<?xml version="1.0" standalone="no"?>
<!DOCTYPE svg PUBLIC "-//W3C//DTD SVG 1.1//EN" "http://www.w3.org/Graphics/SVG/1.1/DTD/svg11.dtd" >
<svg>
<metadata>
Created by FontForge 20120731 at Tue Jul  2 08:57:53 2019
 By www
New Old English (version 1.01) by Keith Bates. A soft gothic script inspired by engraved lettering on Victorian gothic crowns and florins. (c) 2010 www.k-type.com " keith@k-type.com
</metadata>
<defs>
<font id="NewOldEnglishW00-Regular" horiz-adv-x="606" >
  <font-face 
    font-family="New Old English"
    font-weight="400"
    font-stretch="normal"
    units-per-em="1000"
    panose-1="2 0 4 0 0 0 0 0 0 0"
    ascent="800"
    descent="-200"
    x-height="613"
    cap-height="758"
    bbox="-29 -229 1124 1006.5"
    underline-thickness="50"
    underline-position="-125"
    unicode-range="U+0020-FB02"
  />
<missing-glyph horiz-adv-x="500" 
d="M63 0v800h375v-800h-375zM125 63h250v675h-250v-675z" />
    <glyph glyph-name=".notdef" horiz-adv-x="500" 
d="M63 0v800h375v-800h-375zM125 63h250v675h-250v-675z" />
    <glyph glyph-name="glyph1" horiz-adv-x="0" 
 />
    <glyph glyph-name="glyph1" horiz-adv-x="0" 
 />
    <glyph glyph-name="glyph2" horiz-adv-x="225" 
 />
    <glyph glyph-name="space" unicode=" " horiz-adv-x="225" 
 />
    <glyph glyph-name="exclam" unicode="!" horiz-adv-x="292" 
d="M204 620q-1 -2 -2 -6.5t-2 -10.5q-19 -112 -31.5 -211.5t-17.5 -189.5l-37 -28q-8 111 -21 217.5t-31 211.5q-3 19 -13 34q-9 13 -9 25q0 14 23 35l18 16t17 16q24 28 34 28t18 -9.5t15 -19.5q8 -7 19.5 -17.5t27.5 -25.5q10 -10 10 -23q0 -9 -6 -20.5t-12 -21.5zM203 59
q0 -28 -20.5 -48t-48.5 -20q-29 0 -49 20t-20 48t20 48t49 20q28 0 48.5 -20t20.5 -48z" />
    <glyph glyph-name="quotedbl" unicode="&#x22;" horiz-adv-x="343" 
d="M293 570q0 -20 -12 -27l-56 -39q-8 -5 -12 -5q-8 0 -8 12v190q0 24 12 32l54 37q4 4 10 4q12 0 12 -19v-185zM138 570q0 -20 -12 -27l-56 -39q-8 -5 -12 -5q-8 0 -8 12v190q0 24 12 32l54 37q4 4 10 4q12 0 12 -19v-185z" />
    <glyph glyph-name="numbersign" unicode="#" horiz-adv-x="583" 
d="M548 473l-3 -19q-3 -21 -21 -21h-76l-26 -118h63q9 0 18.5 -7t8.5 -18q-3 -20 -5 -27q-5 -14 -18 -14h-80l-31 -148q-5 -24 -28 -24h-30q-14 0 -20 10.5t-4 19.5l30 142h-120l-32 -148q-5 -24 -28 -24h-31q-14 0 -20 10.5t-4 19.5l30 142h-59q-9 0 -18.5 7t-8.5 18
q3 22 5 26q4 15 18 15h77l25 118h-62q-11 0 -18 6q-11 8 -9 19q3 25 4 26q6 15 19 15h80l31 144q5 23 27 23h34q11 0 17 -9.5t4 -20.5l-29 -137h121l31 144q5 23 27 23h32q11 0 17 -9.5t4 -20.5l-29 -137h60q9 0 18.5 -7.5t8.5 -18.5zM367 442h-120l-29 -136h120z" />
    <glyph glyph-name="dollar" unicode="$" horiz-adv-x="503" 
d="M433 595q0 -24 -38 -74q-37 -49 -54 -49q-10 0 -10 10q0 5 6 25q6 19 6 32v26q0 48 -86 68l-3 1v-206q16 -10 34.5 -21.5t41.5 -24.5q59 -34 76 -68q17 -32 17 -101v-81q0 -24 -20 -35q-48 -23 -129 -91q-10 -8 -20 -8v-33q0 -14 -14 -14h-14q-13 0 -13 14v45l-56 18
l-67 21q-50 21 -50 105q0 23 38 73t54 50q10 0 10 -10q0 -4 -2 -11t-4 -15t-4 -15.5t-2 -12.5v-29q0 -46 81 -67h2v214l-1 1q-78 40 -113 74q-49 45 -49 130v81q0 24 21 35q33 16 63.5 41t59.5 50q10 8 19 8v35q0 14 13 14h14q14 0 14 -14v-46l1 -1q25 -10 65 -20
q54 -14 63 -18q50 -17 50 -106zM213 457v187l-30 8q-18 6 -26 16l-6 -5q9 -14 9 -37v-74q0 -28 10 -52q7 -16 43 -43zM323 83q-12 18 -12 42v73q0 67 -57 108v-200l24 -6q26 -8 39 -22z" />
    <glyph glyph-name="percent" unicode="%" horiz-adv-x="819" 
d="M774 83q0 -10 -2 -16q-3 -8 -13 -12q-53 -23 -84 -53q-10 -13 -33 -10q-10 5 -40 15q-33 13 -59.5 20t-46.5 8l-12 1q-22 1 -22 20v12q0 11 19 18l6 2q12 4 12 17v264q0 10 6 15q3 4 6 6q28 14 49.5 28t37.5 27q11 10 33 10q8 0 22 -6l27 -10l75 -25q19 -6 19 -27v-304z
M337 383q0 -10 -2.5 -16.5t-12.5 -11.5q-53 -23 -84 -53q-10 -13 -33 -10q-5 2 -14.5 6.5t-25.5 9.5q-65 25 -106 28h-12q-22 1 -22 20v12q0 11 19 18l6 2q12 4 12 18v264q0 9 4 14t8 7q55 28 87 54q11 10 33 10q7 0 22 -5q11 -5 18 -7.5t9 -3.5l75 -25q19 -6 19 -27v-304z
M603 621l-376 -605q-9 -16 -27 -16h-30q-20 0 -10 19l374 601q9 13 22 13h41q13 0 6 -12zM698 56q-9 10 -9 28v28v222q0 20 -13 23l-67 17q-19 4 -25 23l-9 -7q9 -11 9 -27v-29l1 -221q0 -20 12 -24l67 -16q19 -4 25 -23zM261 357q-9 10 -9 27v29l-1 221q0 19 -12 24l-67 17
q-19 4 -25 22l-9 -6q9 -11 9 -28v-28v-222q0 -20 13 -23l67 -17q19 -4 25 -23z" />
    <glyph glyph-name="ampersand" unicode="&#x26;" horiz-adv-x="656" 
d="M626 430q2 -5 -7 -16l-22 -38l-128 -230v-1q28 -57 53 -57q14 0 30 22q17 23 26 23t17.5 -7t8.5 -14q0 -9 -10 -23q-42 -62 -45 -65q-29 -32 -66 -32t-56 17q-13 11 -32 51l-63 -53q-18 -15 -29 -15q-16 0 -82 31q-20 10 -72 33l-64 23q-25 9 -25 44v74q0 90 112 183
l40 32l-111 213q-2 6 -2 8q0 15 15 26q23 13 55.5 33.5t76.5 49.5q18 15 29 15q10 0 43 -15q19 -11 72 -33l64 -23q24 -9 24 -44v-53q0 -64 -37 -105q-7 -8 -27 -24t-52 -39l-25 -18l110 -216l83 149q-9 -3 -19 -3q-5 0 -18.5 6.5t-21.5 6.5q-21 3 -33.5 -5.5t-21.5 -8.5
q-5 0 -5 4q0 7 13 24l19 28q10 15 18 24.5t15 14.5t14.5 7t18.5 2q1 0 30 -7q22 -5 34 -5q11 0 31 10q17 4 12 4q7 0 8 -4zM361 527v58q0 23 -15 29l-128 51l-11 -8l69 -139l39 -75q46 34 46 84zM380 88l-31 61l-115 221q-57 -45 -57 -109v-81q0 -23 15 -29l177 -71z" />
    <glyph glyph-name="quotesingle" unicode="'" horiz-adv-x="188" 
d="M138 570q0 -20 -12 -27l-56 -39q-8 -5 -12 -5q-8 0 -8 12v190q0 24 12 32l54 37q4 4 10 4q12 0 12 -19v-185z" />
    <glyph glyph-name="parenleft" unicode="(" horiz-adv-x="248" 
d="M198 826q-58 -210 -58 -451q0 -173 53 -474q5 -17 -12 -17h-32q-13 0 -17 10q-102 216 -102 481q0 222 100 455q8 14 22 14h31q18 0 15 -18z" />
    <glyph glyph-name="parenright" unicode=")" horiz-adv-x="248" 
d="M218 375q0 -266 -103 -481q-4 -10 -17 -10h-32q-15 0 -12 17q54 298 54 474q0 241 -58 451q-3 18 15 18h30q16 0 22 -14q101 -235 101 -455z" />
    <glyph glyph-name="asterisk" unicode="*" horiz-adv-x="416" 
d="M365 689q7 -6 -3 -21q-5 -9 -10 -17.5t-18 -5.5q-6 1 -9 0l-96 -18l68 -70q4 -1 14 -8q6 -5 5 -15l-4 -16q-1 -22 -17 -19l-15 3q-23 1 -24 18q-1 2 -1 4t-1 3l-49 84l-49 -83q2 -11 -8.5 -20t-26.5 -7q-23 -5 -24 10v6t-1 9q-6 21 9 27l8 4l68 71l-96 18h-4
q-2 0 -4.5 -0.5t-5.5 -0.5q-10 -1 -14.5 7.5t-8.5 16.5q-3 5 -6 13q-2 8 16 15l12 6q7 4 11 4q6 0 12 -6l2 -2q4 -4 6 -5l88 -39l-11 93l-3 7l-1 3q-7 12 6 22l5 4l5 5l3 3q6 7 12 7q7 0 14 -10l12 -11q7 -6 7 -11t-3 -9l-2 -3q-2 -6 -2 -7l-12 -94l90 40q4 2 6 4l2 3
q10 9 24 1l6 -4q7 -2 18 -9z" />
    <glyph glyph-name="plus" unicode="+" horiz-adv-x="454" 
d="M415 347q0 -12 -12 -12h-135v-161q0 -12 -12 -12h-66q-12 0 -12 12v161h-134q-12 0 -12 12v52q0 12 12 12h134v162q0 12 12 12h66q12 0 12 -12v-162h135q12 0 12 -12v-52z" />
    <glyph glyph-name="comma" unicode="," horiz-adv-x="201" 
d="M171 26q0 -47 -27 -90q-30 -51 -74 -51q-15 0 -15 15q0 2 17 27q18 24 18 49q0 3 -4 15q-26 3 -43.5 23.5t-17.5 47.5q0 26 20.5 47.5t49.5 21.5q30 0 50 -21q26 -29 26 -84z" />
    <glyph glyph-name="hyphen" unicode="-" horiz-adv-x="253" 
d="M223 302q0 -12 -12 -12h-189q-12 0 -12 12v57q0 12 12 12h189q12 0 12 -12v-57z" />
    <glyph glyph-name="hyphen" unicode="&#x2010;" horiz-adv-x="253" 
d="M223 302q0 -12 -12 -12h-189q-12 0 -12 12v57q0 12 12 12h189q12 0 12 -12v-57z" />
    <glyph glyph-name="period" unicode="." horiz-adv-x="205" 
d="M175 65q0 -30 -21 -51.5t-51 -21.5t-51.5 21.5t-21.5 51.5t21.5 51t51.5 21t51 -21t21 -51z" />
    <glyph glyph-name="slash" unicode="/" horiz-adv-x="359" 
d="M363 774l-279 -807q-8 -21 -26 -21h-49q-20 0 -13 22l279 808q6 18 24 18h51q21 0 13 -20z" />
    <glyph glyph-name="zero" unicode="0" horiz-adv-x="546" 
d="M476 120q0 -16 -3 -23q-5 -11 -18 -17q-37 -16 -67 -35t-54 -41q-14 -19 -47 -14q-12 2 -25 9q-8 5 -16 8t-16 5q-93 37 -152 40l-17 1q-31 1 -31 28v17q0 15 27 26l9 3q17 8 17 25v483q0 13 8 21q4 7 9 9q81 41 125 78q17 14 46 14q11 0 32 -8q32 -14 38 -15l108 -35
q27 -9 27 -39v-540zM367 82q-13 13 -13 39v41v422q0 29 -18 34l-96 24q-28 8 -35 32l-13 -9q11 -13 13 -39v-41v-422q0 -30 18 -34l96 -24q26 -8 35 -32z" />
    <glyph glyph-name="one" unicode="1" horiz-adv-x="444" 
d="M389 113l-51 -92q-8 -15 -20 -22q-17 -11 -34 -11q-25 0 -44 11l-23 14q-14 9 -25 15t-19 10q-12 7 -49 18q-20 3 -20 22v19q0 13 18 22l13 5q18 7 18 27v473q0 27 -13 27q-12 0 -19 -7l-30 -25q-15 -11 -25 2l-6 7q-12 14 2 26l9 7l94 78q22 18 38 18q31 0 40 -9
q8 -8 15 -16t14 -18q10 -13 10 -44v-544q0 -35 24 -35q19 0 26 13l18 30q9 16 24 7l8 -4q16 -9 7 -24z" />
    <glyph glyph-name="two" unicode="2" horiz-adv-x="511" 
d="M459 113l-24 -53q-29 -68 -102 -68q-22 0 -62 15q-39 16 -62 16q-30 0 -54 -11q-45 -20 -64 -20q-37 0 -49 39q-6 19 -6 43q0 80 57 136l137 135q18 17 29.5 32.5t18 31.5t9.5 34t3 41l-1 90q0 30 -18 36l-97 30q-18 5 -24 5q-14 0 -31 -14l-11 -10q-35 -29 -44 -29
q-8 0 -15 7l-4 4q-15 17 2 32l82 73q42 49 88 49q7 0 51 -15q90 -32 136 -45q28 -9 28 -48v-103q0 -71 -70 -138l-184 -183q-53 -55 -53 -100q0 -20 7 -34h8q22 45 99 45q11 0 58 -12q40 -10 58 -10q31 0 75 24q4 3 10 3q21 0 21 -19q0 -3 -2 -9z" />
    <glyph glyph-name="three" unicode="3" horiz-adv-x="530" 
d="M467 733q1 -21 -21 -40q-13 -10 -38 -38l-124 -140l72 -38q72 -41 93 -97q9 -27 9 -75v-173q0 -32 -25 -42q-40 -17 -75 -39t-65 -50q-10 -10 -27 -10q-16 0 -44 12q-41 19 -120 36q-62 14 -62 115q0 29 17 51l55 63q14 17 28 17q8 0 14 -7t0 -22q-8 -23 -9 -42v-29
q0 -36 37 -46l120 -37q18 -7 25 -19l7 6q-12 19 -12 36v147q0 69 -31 100q-18 19 -94 52q-15 7 -15 25q0 13 10 23l151 169l-4 3q-46 -25 -112 -25q-18 0 -45 7q-30 8 -43 8q-22 0 -41 -8l-38 -16q-8 -3 -15 0q-8 3 -8 11q0 1 2 7l26 61q8 19 16.5 32t20 20.5t27 11
t37.5 3.5q26 0 77 -15q52 -15 79 -15q34 0 64 8l30 12q17 7 32 7q17 0 19 -20z" />
    <glyph glyph-name="four" unicode="4" horiz-adv-x="548" 
d="M513 315l-54 -85q-12 -20 -35 -20q9 0 -12 6l-34 9l1 -102q0 -32 23 -32q18 0 25 13l17 30q9 16 25 7l7 -4q16 -9 7 -24l-44 -80q-15 -28 -32 -36.5t-44 -8.5t-46 15q-11 9 -20.5 15.5t-17.5 11.5q-15 8 -58 25q-20 5 -20 22v20q0 13 18 22l13 5q18 7 18 26v95
q-20 7 -38 7q-29 0 -59 -10q-66 -20 -70 -20q-24 0 -60 50q-8 11 -8 20q0 11 10 30l208 401q20 35 52 35q26 0 38 -14l39 -44q17 -20 17 -54l-1 -322q41 -19 60 -19q14 0 22 12l14 23q9 16 24 6l8 -4q18 -10 7 -27zM250 354v288l-5 6l-171 -328l6 -8q43 49 126 49
q20 0 44 -7z" />
    <glyph glyph-name="five" unicode="5" horiz-adv-x="528" 
d="M477 745q-4 -8 -10.5 -23.5t-16.5 -38.5q-16 -36 -35.5 -51.5t-54.5 -15.5q-13 0 -48 8q-87 23 -113 23q-38 0 -45 -21l-35 -105q-7 -22 9 -31l17 -11q50 53 127 53q66 0 122 -53q65 -63 65 -168v-179q0 -32 -25 -42q-40 -17 -75 -39t-66 -50q-10 -10 -26 -10
q-17 0 -45 12q-40 19 -119 36q-63 13 -63 115q0 29 17 51l55 64q14 17 28 17q8 0 14 -6q7 -9 1 -24q-9 -23 -9 -42v-31q0 -33 36 -43q23 -6 55 -16.5t73 -24.5q11 -5 17 -14l7 3q-10 14 -10 35l-2 47v179q0 56 -32 88q-26 27 -61 27q-49 0 -77 -39l-13 -18q-10 -16 -24 -16
q-9 0 -16 4l-41 21q-21 11 -12 37l17 50l60 182q13 37 45.5 53t95.5 16q16 0 53 -8t52 -8q43 0 86 25q4 2 7 2q16 0 16 -14q0 -4 -1 -6z" />
    <glyph glyph-name="six" unicode="6" horiz-adv-x="535" 
d="M475 224v-101q0 -27 -22 -37q-102 -51 -142 -88q-10 -8 -22 -8q-18 0 -34 14q-5 5 -46 17q-41 13 -69 18q-30 4 -52 25q-18 16 -18 75v484q0 22 13 31q25 17 39.5 26.5t18.5 12.5q39 28 62 51q12 13 29 13q11 0 26 -7l89 -37q13 -6 34 -12h4q13 -1 13 -13q0 -7 -6 -14
l-28 -34q-21 -27 -55 -27q-17 0 -31 7l-81 34l-10 -9q11 -11 11 -36v-179h6q0 22 33 48l72 54q13 10 30 0l120 -84q16 -10 16 -50v-174zM365 84q-13 13 -13 36v254q0 20 -10 27l-42 31q-12 9 -23 0l-59 -45q-20 -15 -20 -39v-194q0 -21 21 -27l109 -31q17 -4 25 -21z" />
    <glyph glyph-name="seven" unicode="7" horiz-adv-x="470" 
d="M455 734q-2 -20 -18 -30q-11 -7 -20 -17t-17 -23l-57 -100q-89 -160 -89 -298q0 -91 26 -146q8 -14 15 -14q9 0 16 7l14 12q13 12 27 -2l6 -7q14 -14 -2 -26l-9 -8l-100 -78q-22 -17 -45 -17q-32 0 -49 29q-29 53 -29 121q0 78 34 162q14 34 38 81t59 108l84 152l-5 8
q-49 -26 -122 -26q-15 0 -50 8q-34 8 -48 8q-22 0 -41.5 -8.5t-38.5 -16.5q-6 -3 -13 0t-7 10q0 1 2 5l26 62q28 66 109 66q14 0 34.5 -3.5t48.5 -10.5t48.5 -10.5t34.5 -3.5q50 0 77 11q34 14 49 14q13 0 12 -19z" />
    <glyph glyph-name="eight" unicode="8" horiz-adv-x="521" 
d="M451 120q0 -25 -13 -34q-23 -13 -56.5 -33.5t-78.5 -49.5q-18 -15 -29 -15q-10 0 -43 15q-20 10 -72 33l-64 23q-25 9 -25 44v70q0 93 112 187l-75 32q-35 17 -35 59v174q0 25 13 34q23 13 55.5 33.5t76.5 49.5q18 15 29 15q10 0 43 -15q19 -11 72 -33l64 -23
q24 -9 24 -44v-73q0 -64 -37 -105q-15 -15 -79 -63q19 -7 43 -17t55 -23q20 -8 20 -43v-198zM332 507v78q0 23 -15 29l-128 51l-11 -8q11 -14 11 -38v-134q0 -26 19 -33l76 -31q48 58 48 86zM345 88q-11 14 -11 38v143q0 29 -23 38l-80 33q-44 -44 -44 -99v-81q0 -23 15 -29
l132 -51z" />
    <glyph glyph-name="nine" unicode="9" horiz-adv-x="517" 
d="M447 136q0 -110 -71 -172q-19 -17 -65 -46.5t-119 -73.5q-5 -3 -10 -3q-13 0 -13 13q0 8 6 13q58 48 82 75q63 73 63 149v153l-57 -56q-19 -19 -43 -19q-22 0 -40 15l-68 42q-42 25 -42 59v340q0 25 13 34q23 13 55.5 33.5t76.5 49.5q18 15 29 15q10 0 43 -15
q19 -11 72 -33l64 -23q24 -9 24 -44v-506zM320 302v283q0 23 -15 29l-118 51l-11 -8q11 -14 11 -38v-289q0 -16 12 -28l58 -42q19 -13 33 1l20 19q10 10 10 22z" />
    <glyph glyph-name="colon" unicode=":" horiz-adv-x="265" 
d="M205 406q0 -30 -21 -51.5t-51 -21.5t-51.5 21.5t-21.5 51.5t21.5 51.5t51.5 21.5t51 -21.5t21 -51.5zM205 65q0 -30 -21 -51.5t-51 -21.5t-51.5 21.5t-21.5 51.5t21.5 51.5t51.5 21.5t51 -21.5t21 -51.5z" />
    <glyph glyph-name="semicolon" unicode=";" horiz-adv-x="265" 
d="M205 406q0 -30 -21 -51.5t-51 -21.5t-51.5 21.5t-21.5 51.5t21.5 51.5t51.5 21.5t51 -21.5t21 -51.5zM205 26q0 -47 -27 -90q-30 -51 -74 -51q-15 0 -15 15q0 2 17 27q18 24 18 49q0 3 -4 15q-26 3 -43.5 23.5t-17.5 47.5q0 26 20.5 47.5t49.5 21.5q30 0 50 -21
q26 -29 26 -84z" />
    <glyph glyph-name="less" unicode="&#x3c;" horiz-adv-x="525" 
d="M475 121q0 -5 -4 -9.5t-8 -2.5l-401 208q-12 7 -12 16v72q0 10 12 16l401 208q4 2 8 -2.5t4 -9.5v-76q0 -5 -12 -12l-288 -149q-9 -5 -9 -11q0 -7 9 -11l288 -149q12 -6 12 -12v-76z" />
    <glyph glyph-name="equal" unicode="=" horiz-adv-x="463" 
d="M428 419q0 -12 -12 -12h-369q-12 0 -12 12v66q0 12 12 12h369q12 0 12 -12v-66zM428 265q0 -12 -12 -12h-369q-12 0 -12 12v66q0 12 12 12h369q12 0 12 -12v-66z" />
    <glyph glyph-name="greater" unicode="&#x3e;" horiz-adv-x="525" 
d="M475 333q0 -9 -12 -16l-401 -208q-4 -2 -8 2.5t-4 9.5v76q0 6 12 12l288 149q9 4 9 11q0 6 -9 11l-288 149q-12 7 -12 12v76q0 5 4 9.5t8 2.5l401 -208q12 -6 12 -16v-72z" />
    <glyph glyph-name="question" unicode="?" horiz-adv-x="479" 
d="M419 584q0 -52 -29 -99q-11 -17 -31.5 -41.5t-51.5 -56.5q-68 -71 -68 -163v-21l-38 -28q-9 37 -9 79q0 73 51 144q59 85 59 136q0 25 -8.5 47t-23.5 38t-35.5 25t-44.5 9q-42 0 -70 -25l-20 -18q-7 -6 -13 -4q-4 0 -11 4l-6 7q-13 13 4 30l74 68q46 42 107 42
q73 0 121 -56q43 -50 43 -117zM302 60q0 -28 -20 -48t-48 -20q-29 0 -49 20t-20 48t20 48t49 20q28 0 48 -20t20 -48z" />
    <glyph glyph-name="at" unicode="@" horiz-adv-x="908" 
d="M854 306q0 -99 -56 -179q-47 -66 -122 -101q-74 -34 -142 -34q-16 0 -36.5 14t-30.5 27q-13 18 -7 33l-9 4q-9 -18 -32 -31l-84 -42q-13 -7 -24 -7q-25 0 -30 29q-13 71 -13 83q0 16 5 38q9 45 34.5 81t63.5 60q20 11 35 46q4 8 6.5 15t3.5 12q1 9 0 24q-2 23 -19 23
q-3 0 -21 -5q-15 -4 -19 -4q-11 0 -12 12v13q2 14 18 17l21 3q36 7 62 36q10 12 25 12q9 0 20 -6q5 -3 18.5 -8.5t34.5 -13.5q33 -11 44 -11q12 0 37 19t31 19q7 0 9 -3l6 -9q4 -8 -8 -19l-20 -18q-9 -11 -12 -22l-68 -322q-1 -5 -1 -12q0 -23 22 -23q36 0 71 18
q62 32 89 67q51 63 51 166q0 124 -88 203q-88 81 -224 82q-158 1 -265 -112q-101 -107 -101 -254t101 -254q106 -112 263 -112q102 0 195 39q88 36 132 91l-15 -93q-121 -97 -309 -97q-183 0 -308 128q-119 125 -119 298q0 171 118 295q121 130 306 130q162 0 268 -98
q105 -98 105 -247zM519 368q4 17 -10 25q-31 16 -47 16q-17 0 -18 -1q-8 -2 -5 -13q5 -25 1 -41q-4 -8 -8.5 -19t-9.5 -25q-9 -26 9 -33q12 -5 25.5 -8t27.5 -5q12 -1 16 13zM483 200q5 24 -14 28q-59 14 -60 14q-16 0 -29 -27q-11 -20 -15 -39q-3 -14 -3 -35q0 -75 25 -75
q3 0 52 23q24 11 28 36z" />
    <glyph glyph-name="A" unicode="A" 
d="M591 105l-87 -97q-15 -17 -31 -17q-15 0 -27 9q-6 4 -26.5 15.5t-55.5 30.5q-23 14 -23 55v206l-79 -90q-23 -26 -46 -26t-54 24q-12 9 -18 -4l-28 -60q-11 -21 6 -35q11 -11 28 -18q12 -5 20 -4q13 1 21 11l25 28q15 16 28 6l8 -7q4 -4 6 -13q0 -7 -7 -15q-2 -4 -9 -11
l-76 -84q-15 -17 -31 -17q-15 0 -26 8l-61 38q-13 9 -13 22q0 8 4 15l75 162q4 12 -3 21q-75 84 -75 212q0 119 71 204q70 85 174 85q47 0 84 -17q27 -13 35 -30h13q4 17 19 31t35 14q52 0 52 -28q0 -13 -22 -17q-28 -4 -28 -48v-553q0 -30 27 -30q12 0 29 18l33 37
q10 12 24 1l8 -6q14 -11 1 -26zM341 380v256l-11 10q0 -30 -13 -57l-123 -271q18 -7 47 -7q20 0 44 9q28 10 46 30q10 10 10 30zM284 608q13 27 13 43q0 19 -17.5 26t-41.5 7q-68 0 -115 -59q-42 -54 -42 -128q0 -57 27 -105q23 -38 52 -57z" />
    <glyph glyph-name="B" unicode="B" horiz-adv-x="582" 
d="M522 335l-1 -205q0 -29 -24 -39q-91 -45 -145 -95q-10 -8 -24 -8q-21 0 -35 14q-30 19 -99 39q-68 21 -101 21h-18q-10 0 -18.5 7t-8.5 18v17q0 21 24 27q1 1 9 3q19 6 19 32v471q0 18 -9 18t-17 -7l-7 -6l-26 -21q-15 -11 -25 2l-6 7q-12 14 2 26l15 12l87 74
q19 18 39 18t29 -10q18 -18 27 -31q6 -6 12 -24v-5t1 -8l87 68q13 10 32 10q23 0 37 -17l91 -115q11 -14 11 -28q0 -19 -20 -36l-45 -36q-16 -13 -16 -24q0 -9 20 -14q33 -8 57 -35l17 -22v1q29 -38 29 -99zM349 566l-57 76q-12 17 -24 17q-9 0 -21 -9l-25 -19v-203l118 93
q16 12 16 27q0 10 -7 18zM401 84q-12 16 -12 36v171q0 54 -7 71q-8 18 -45 63q-11 14 -23 14q-11 0 -25 -10l-67 -53v-225q0 -18 18 -22q38 -7 70 -14.5t58 -16.5q18 -6 25 -19z" />
    <glyph glyph-name="C" unicode="C" horiz-adv-x="569" 
d="M509 638l-18 -15q-19 -16 -48 -16q-31 0 -53 18l-41 34l-6 -5q10 -13 10 -36v-310q0 -29 -10 -45l-29 -33q-8 -8 -23 -20.5t-38 -29.5q-25 -18 -32 -8l-4 5q-4 10 6 22q12 12 12 45v370q0 22 18 37q37 29 64.5 52.5t45.5 40.5q16 16 31 16q19 0 33 -13q21 -20 39 -35
t34 -23q21 -11 21 -28q0 -13 -12 -23zM521 79q-76 -91 -191 -91q-112 0 -187 78q-73 73 -73 177v261q0 108 75 182q62 61 140 70q15 1 15 -11q0 -8 -8 -11q-34 -13 -67 -55q-37 -46 -37 -98v-334q0 -71 56 -125q56 -53 140 -53q65 0 115 35q8 5 15 5q15 0 15 -13
q0 -7 -8 -17z" />
    <glyph glyph-name="D" unicode="D" 
d="M536 596v-466q0 -29 -24 -39q-48 -23 -83.5 -47t-61.5 -48q-10 -8 -24 -8q-22 0 -36 14q-30 22 -99 39q-63 16 -111 16h-17q-10 0 -18.5 7t-8.5 18v17q0 21 24 27q1 1 9 3q19 6 19 32l-1 477q0 18 -9 18q-8 0 -16 -7l-2 -2l-31 -25q-9 -8 -24 0l-7 9q-12 14 2 25l8 7
l95 79q21 18 37 18q20 0 30 -10q18 -18 27 -31q6 -6 12 -24v-11l88 66q11 8 26 8q22 0 42 -15l122 -88q32 -23 32 -59zM416 84q-12 16 -12 36v416q0 47 -21 62l-77 54q-14 10 -25 10t-24 -10l-31 -23v-478q0 -26 23 -26q73 0 130 -25q22 -9 29 -21z" />
    <glyph glyph-name="E" unicode="E" horiz-adv-x="574" 
d="M509 638l-18 -15q-19 -16 -49 -16t-52 18l-40 35l-8 -7q11 -14 11 -35v-199h10q9 27 38 27h92q18 0 18 -16q0 -9 -7 -16l-50 -53q-21 -22 -51 -22h-50v-31q0 -42 -27 -67q-3 -2 -12 -11q-8 -8 -23 -20.5t-38 -29.5q-25 -18 -32 -8l-4 5q-5 10 7 22t11 45v370q0 22 18 37
q37 29 64 52.5t46 40.5q16 16 31 16q19 0 33 -13q21 -20 39 -35t34 -23q21 -11 21 -28q0 -13 -12 -23zM521 79q-76 -91 -191 -91q-112 0 -187 78q-73 73 -73 177v261q0 108 75 182q62 61 140 70q15 1 15 -11q0 -8 -8 -11q-34 -13 -67 -55q-37 -46 -37 -98v-334
q0 -71 56 -125q56 -53 140 -53q65 0 115 35q8 5 15 5q15 0 15 -13q0 -7 -8 -17z" />
    <glyph glyph-name="F" unicode="F" horiz-adv-x="532" 
d="M486 642l-18 -15q-17 -14 -38 -14q-30 0 -54 21l-42 38l-7 -7q9 -14 9 -40v-202h10q10 27 38 27h76q23 0 23 -21q0 -13 -11 -24l-41 -40q-22 -22 -48 -22h-25q-22 0 -22 -24l-1 -253q0 -98 -50 -162q-16 -20 -38 -37t-51 -31q-62 -31 -127 -31q-20 0 -37.5 1.5t-33.5 5.5
q-18 4 -18 18q0 17 19 18l34 1q85 3 139 57q54 52 54 145v562q0 30 29 51q10 7 22.5 16.5t26.5 22.5q14 11 44 39q16 15 39 15q21 0 31 -13q20 -27 60 -55q19 -13 19 -27q0 -11 -11 -20zM284 734q-34 -13 -67 -55q-37 -46 -37 -98v-502q-1 -104 -52 -151q-17 -15 -39 -24
q-15 -6 -31 -6q-18 0 -18 10q0 5 4 12l8 16q15 28 15 112v456q0 108 72 182q63 63 138 70q15 1 15 -11q0 -8 -8 -11z" />
    <glyph glyph-name="G" unicode="G" horiz-adv-x="616" 
d="M556 26q0 -40 -29 -40q-17 0 -42 19q-14 11 -27 11q-16 0 -36 -10v1q-42 -19 -92 -19q-112 0 -187 78q-73 73 -73 177v261q0 108 75 182q62 61 140 70q15 1 15 -11q0 -8 -8 -11q-34 -13 -67 -55q-37 -46 -37 -98v-334q0 -71 56 -125q56 -53 140 -53q22 0 40 3q14 5 14 20
v220q0 23 -12 23q-6 0 -26 -16q-13 -9 -40.5 -32t-72.5 -61l-1 1q-23 -20 -33 -27q-28 -19 -35 -11l-4 5q-6 10 8 24t14 46v349q0 24 17 38q37 29 64 52.5t46 40.5q16 16 31 16q19 0 33 -13q21 -20 39 -35t34 -23q21 -11 21 -28q0 -13 -12 -23l-18 -15q-19 -16 -48 -16
q-31 0 -53 18l-41 34l-6 -5q10 -13 10 -36v-280l80 69q19 18 33 18q8 0 34 -15q7 -4 15.5 -9t19.5 -13q21 -15 21 -50v-312z" />
    <glyph glyph-name="H" unicode="H" horiz-adv-x="601" 
d="M591 385l-50 -76q-10 -16 -37 -19v-190q0 -60 -45 -106q-26 -28 -59.5 -53.5t-73.5 -50.5q-7 -4 -12 -4q-16 0 -16 16q0 9 22 30q28 27 42 48q22 35 22 83v259q-60 30 -106 30q-31 0 -53 -15v-185q0 -33 20 -47q21 -14 21 -26q0 -14 -36 -66q-15 -24 -31 -24q-9 0 -35 20
q-41 32 -55 39q-29 15 -29 30q0 3 3.5 8t7.5 13t7.5 18.5t3.5 22.5v129q0 17 -23 28q-12 4 -12 14q0 14 10 21q26 20 26 36v268q0 17 -11 17q-8 0 -15 -6l-31 -26q-14 -12 -25 2l-6 7q-11 14 2 25l10 10l91 76q23 17 38 17q21 0 30 -10q16 -15 27.5 -31t11.5 -27v-271
q49 27 78 27q40 0 81 -18v81q0 91 70 152l-6 5q-19 -13 -31 -13q-9 0 -28 4.5t-29 3.5q-17 -2 -30 -11q-19 -11 -25 -11q-14 0 4 30l23 37q9 15 16 24.5t13.5 15t13.5 7.5t17 2q5 0 27 -7q25 -6 35 -6q55 0 84 9q2 1 3 1t2 1l13 4v-1l1 1l3 -3l4 -5q4 -9 -5 -17l-6 -4
q-49 -40 -49 -133v-193q0 -21 16 -21q10 0 18 11l13 18q11 15 25 6l8 -4q18 -10 7 -27z" />
    <glyph glyph-name="I" unicode="I" horiz-adv-x="540" 
d="M351 750q5 -9 -6 -17q-20 -17 -35 -53q-17 -42 -17 -83v-323q0 -28 -35 -63l-77 -75q-6 -6 -11 -6q-8 0 -8 8q0 6 4 10l5 8q13 20 13 60v293q0 88 49 146l-9 11q-29 -13 -52 -13q-18 0 -31 4.5t-33 4.5q-28 0 -60 -19q-6 -3 -9 -3q-9 1 -9 10q0 8 9 20l26 37q34 49 78 49
q11 0 36 -7q28 -6 45 -6q68 0 107 11q3 2 12 4l4 -3zM470 750q2 -4 -2 -11t-8 -13q-8 -16 -8 -39l1 -505q0 -51 -28 -70q-11 -7 -24.5 -18.5t-30.5 -28.5q-38 -36 -55 -63q-7 -13 -22 -13q-7 0 -37 8q-48 14 -97 14q-52 0 -84 -13q-4 -1 -18 -8q-7 -3 -12 1.5t-5 10.5v7
q0 8 23 31l31 28q15 13 42 24q37 14 72 14q39 0 89 -10q24 -6 40 -20l11 11q-10 13 -10 40v456q0 71 34 117q19 27 54 45q24 11 36 11q3 0 5 -2z" />
    <glyph glyph-name="J" unicode="J" horiz-adv-x="540" 
d="M470 750q2 -4 -2 -11t-8 -13q-8 -16 -8 -39v-641q0 -79 -51 -142q-34 -43 -88 -68q-63 -29 -128 -29q-79 0 -141 31q-12 6 -12 17q0 18 18 18q6 0 36 -8t48 -8q78 0 133 46q71 59 71 169v511q0 73 34 117q21 28 54 45q24 11 36 11q3 0 5 -2zM351 750q5 -9 -6 -17
q-20 -17 -35 -53q-17 -42 -17 -83v-502q0 -110 -56 -161q-21 -18 -40 -26q-41 -15 -41 4q0 4 13 30q14 26 14 112v455q0 85 50 146l-9 11q-29 -13 -52 -13q-18 0 -31 4.5t-33 4.5q-28 0 -60 -19q-6 -3 -9 -3q-9 1 -9 10q0 8 9 20l26 37q34 49 78 49q11 0 36 -7q28 -6 45 -6
q68 0 107 11q3 2 12 4l4 -3z" />
    <glyph glyph-name="K" unicode="K" horiz-adv-x="616" 
d="M606 112q0 -8 -4 -12l-80 -91q-15 -17 -31 -17q-13 0 -26 8q-9 5 -27 15.5t-44 27.5q-24 18 -24 49v228q0 12 -9 26l-69 59l-55 -74v-190q0 -24 15 -36l16 -13q12 -11 12 -22q0 -8 -5 -16l-39 -45q-16 -19 -31 -19q-11 0 -25 11q-14 12 -31.5 25.5t-37.5 29.5
q-22 13 -22 27q0 5 10 16.5t10 28.5l-1 499q0 24 -13 24q-12 0 -19 -7l-30 -25q-15 -11 -25 2l-6 7q-12 14 2 26l9 7l94 78q22 18 38 18q31 0 40 -9q8 -8 15 -16t14 -18q10 -13 10 -41v-279l199 267l-5 6q-26 -18 -42 -17q-17 0 -26 4q-24 8 -30 8q-15 0 -32 -11
q-4 -3 -11.5 -8.5t-11.5 -5.5q-10 0 -10 10q0 7 8 20l26 40q31 49 64 49q8 0 29 -7q22 -6 37 -6q57 0 93 11q3 2 12 4l3 -3l4 -5q3 -9 -5.5 -17t-16.5 -19l-158 -213l110 -98q14 -14 14 -34l-1 -256q0 -30 28 -30q13 0 26 16l27 30q11 12 21 5q3 -1 12 -10q5 -5 5 -12z" />
    <glyph glyph-name="L" unicode="L" horiz-adv-x="634" 
d="M624 139q12 -8 0 -25l-8 -13q-4 -6 -21.5 -28t-49.5 -60q-17 -21 -34 -21q-18 0 -30 12q-37 35 -112 35q-53 0 -125 -19q-51 -13 -64 -18q-26 -10 -60 -10q-19 0 -37.5 5t-18.5 19q0 18 19 19l25 1q84 3 132 69q41 56 41 129v349q0 71 34 117q19 28 53 45q24 11 31 11
q3 0 5 -2l3 -4q2 -5 -2 -11.5t-8 -11.5q-7 -15 -7 -40l-1 -427q0 -87 -64 -151l4 -9q22 16 61 31t61 15q41 0 75 -23q22 -16 26 -16q10 0 18 9l15 18q4 7 18 15q7 1 13 -4zM294 750q5 -9 -5 -17l-5 -4q-46 -46 -46 -132v-324q0 -106 -56 -159q-19 -17 -39 -26q-40 -15 -40 4
q0 5 4 12l8 16q14 30 14 114v275q0 91 71 153l-6 5q-19 -13 -31 -13q-5 0 -12.5 1.5t-16 3t-16.5 2.5t-12 1q-8 0 -16 -3.5t-15.5 -7.5t-14 -7.5t-10.5 -3.5q-15 0 5 30l23 37q18 30 29 39.5t31 9.5q5 0 27 -7q24 -6 35 -6q40 0 69 9q2 1 3 1t2 1q4 2 12 4l1 -1v1l4 -3z" />
    <glyph glyph-name="M" unicode="M" horiz-adv-x="804" 
d="M749 104q0 -9 -38 -83q-10 -22 -33 -22q-9 0 -18.5 2t-18 5t-15 5t-7.5 2q-8 0 -17.5 -2.5t-18.5 -5t-16.5 -5t-10.5 -2.5q-25 0 -25 23q0 2 42 115q62 172 62 275q0 207 -131 230q-12 1 -18 0q-9 -3 -9 -12q0 -2 1 -4q23 -75 23 -126q0 -89 -39 -201q-10 -31 -30 -78.5
t-50 -113.5q16 11 32 11q8 0 22.5 -6t24.5 -6q7 0 19 6.5t17 7.5l1 -1h-1q13 0 13 -14q0 -9 -38 -83q-10 -22 -33 -22q-18 0 -37 7t-23 7q-15 0 -30.5 -6t-19.5 -6q-6 -3 -14 -3q-24 0 -24 23q0 1 41 115q62 172 62 275q0 200 -130 230q-13 3 -23 -2q-15 -9 -15 -27v-465
q0 -27 20 -42t20 -29q0 -6 -11 -23q-44 -63 -61 -63q-15 0 -32 14q-27 25 -49.5 38.5t-23.5 14.5q-12 10 -12 24q0 3 3.5 9t8 13.5t8.5 16.5t4 18l-1 491q0 20 -11 20q-10 0 -23 -13l-20 -17q-13 -12 -25 1l-6 7q-12 13 1 25l94 83q0 1 15 12q11 10 31 10q23 0 34 -11
q37 -37 37 -58l50 54q13 15 30 15q32 0 78 -26q46 -25 66 -58l68 73q11 11 30 11h2q1 0 2.5 -0.5t3.5 -0.5q90 -15 140 -89q46 -67 46 -168q0 -92 -38 -200l-80 -190l1 -1q13 9 27 9q7 0 22 -6t26 -6q6 0 18 6.5t18 7.5l1 -1h-2q13 0 13 -14z" />
    <glyph glyph-name="N" unicode="N" horiz-adv-x="632" 
d="M577 101q0 -7 -40 -80q-12 -22 -32 -22q-17 0 -39 7q-26 8 -29 8q-15 0 -45 -13l-1 1q-5 -4 -14 -4q-23 0 -23 21q0 10 19 52l24 54q64 170 64 288q0 197 -154 230q-10 2 -17 -5l-49 -49q-11 -14 -11 -26v-418q0 -26 20 -40t20 -26q0 -13 -35 -66q-17 -24 -31 -24
q-11 0 -37 20q-40 31 -56 39q-29 15 -29 30q0 5 10.5 22t10.5 41v490q0 24 -11 24q-6 0 -13 -6l-33 -27q-15 -11 -25 2l-6 7q-12 14 2 26l99 82q22 19 37 19q26 0 40 -11q9 -7 28 -34q9 -14 9 -43v-30l108 108q10 10 24 10q10 0 13 -1q195 -51 195 -256q0 -92 -40 -203
q-13 -35 -34.5 -83t-50.5 -109l5 -5q14 11 29 11q7 0 23.5 -6.5t28.5 -6.5q-3 0 32 15q10 2 14 -13z" />
    <glyph glyph-name="O" unicode="O" horiz-adv-x="597" 
d="M527 296q0 -77 -49 -123q-35 -32 -66 -51q-8 -3 -13 -3q-15 0 -15 14q0 6 4 13q12 19 12 55v340q0 63 -45 105q-44 43 -110 43q-64 0 -111 -46q-29 -27 -38 -27q-16 0 -16 16q0 10 7 20q32 45 76 71q59 34 132 34q96 0 164 -68t68 -160v-233zM510 97q-32 -45 -76 -71
q-59 -34 -131 -34q-98 0 -166 68q-67 67 -67 160v233q0 77 49 123q34 31 66 51q7 3 13 3q15 0 15 -14q0 -6 -4 -13q-12 -20 -12 -55v-340q0 -63 45 -106q45 -42 110 -42q64 0 111 46q28 27 38 27q16 0 16 -16q0 -10 -7 -20z" />
    <glyph glyph-name="P" unicode="P" horiz-adv-x="593" 
d="M538 377q0 -56 -36 -75q-17 -10 -29.5 -16.5t-19.5 -11.5q-34 -19 -48 -35q-24 -26 -44 -26q-16 0 -35 18q-39 38 -86 33q-15 -2 -15 -17v-120q0 -31 19 -43q25 -14 38 -4l37 46q12 14 26 3l7 -6q13 -10 2 -25l-6 -8q-14 -19 -31 -40t-37 -44q-17 -20 -35 -20
q-11 0 -18 5l-16 12l-59 33q-17 8 -31 14t-25 8h-18q-10 0 -18.5 7t-8.5 18v17q0 21 24 27q1 1 9 3q19 6 19 32v53q0 15 -24 23q-12 4 -12 14q0 14 10 21q26 21 26 36v328q0 18 -11 18q-8 0 -15 -7l-31 -26q-15 -11 -25 2l-6 7q-12 14 2 26l2 1l4 4l4 4l91 76q22 18 38 18
q20 0 29 -10q18 -18 27 -31q6 -6 12 -24l1 -53l137 107q10 9 29 9q23 0 40 -16l79 -75q22 -20 26 -53q1 -7 1.5 -21t0.5 -35v-181zM428 300q-9 15 -9 62v189q0 20 -15 34l-59 56q-16 16 -26 16q-8 0 -19 -8l-62 -48q-13 -10 -13 -30v-225q0 -15 15 -6q25 16 67 16
q44 0 82 -30q18 -14 27 -33z" />
    <glyph glyph-name="Q" unicode="Q" horiz-adv-x="595" 
d="M527 296q0 -77 -49 -123q-35 -32 -66 -51q-8 -3 -13 -3q-15 0 -15 14q0 6 4 13q12 19 12 55v340q-2 63 -46 105q-43 43 -109 43q-62 0 -111 -46q-29 -27 -38 -27q-16 0 -16 16q0 10 7 20q32 45 76 71q59 34 132 34q96 0 164 -68t68 -160v-233zM609 -67q-8 -38 -32 -67
q-27 -32 -70 -32q-38 0 -70 21.5t-53 53.5q-49 74 -115 85q-86 14 -143 78q-56 65 -56 148v233q0 77 49 123q34 31 66 51q7 3 13 3q15 0 15 -14q0 -6 -4 -13q-12 -20 -12 -55v-340q0 -63 45 -106q45 -42 110 -42q62 0 111 46q28 27 38 27q16 0 16 -16q0 -10 -7 -20
q-32 -45 -76 -71q-34 -19 -64 -27v-6q43 -2 93 -45q31 -27 66 -27q26 0 55 25q7 7 15 7q15 0 10 -20z" />
    <glyph glyph-name="R" unicode="R" horiz-adv-x="635" 
d="M630 112q0 -9 -10 -23q-19 -28 -30.5 -44t-15.5 -21q-29 -32 -67 -32q-80 0 -116 114l-48 155q-22 73 -79 87q-22 5 -45 5v-208q0 -25 19 -40q19 -13 19 -28t-23 -50q-24 -37 -41 -37q-10 0 -47 25l-50 33q-24 13 -24 31q0 7 13 23q14 17 14 39v489q0 19 -11 19
q-6 0 -16 -8l-26 -22q-13 -12 -25 1l-6 7q-12 13 1 25l88 79q28 27 41 27q25 0 38 -11q6 -6 27 -34q9 -12 9 -44v-30l98 97q22 22 49 21q73 -3 122 -55q50 -52 50 -125q0 -64 -45 -124q-40 -54 -97 -79v-8q68 -27 86 -98l37 -143q9 -37 33 -37q15 0 28 22q15 23 24 23
q8 0 17 -7t9 -14zM430 530q0 52 -38 85q-35 29 -80 29q-23 0 -36 -11l-49 -45q-8 -8 -8 -22v-178h33q85 0 135 48q43 40 43 94z" />
    <glyph glyph-name="S" unicode="S" horiz-adv-x="589" 
d="M539 341q0 -59 -14 -59q-8 0 -17 15q-22 40 -79 63q-14 5 -50.5 14.5t-97.5 23.5q-95 23 -138 55q-60 49 -60 145q0 20 23 75q21 48 32 62q18 23 63 23q14 0 38 -3t57 -8t57 -7.5t38 -2.5q52 0 80 11l12 5q9 4 18 4q15 0 15 -14q0 -6 -5 -16l-127 -229q73 -18 108 -48
q47 -41 47 -109zM505 162q0 -35 -24 -90q-23 -56 -42 -69q-18 -12 -54 -12q-31 0 -86 13t-86 13q-73 0 -98 -15l-11 -6q-10 -5 -21 -5q-12 3 -12 16q0 9 7 22l123 218q-74 21 -109 51q-42 37 -42 99q0 72 15 72q5 0 17 -19q24 -40 84 -65q22 -10 50.5 -18.5t64.5 -16.5
q43 -9 72 -16t44 -12q108 -36 108 -160zM440 677l-9 4q-41 -48 -109 -48q-61 0 -127 25q-32 12 -37 12q-28 0 -28 -44q0 -35 35 -61q41 -30 100 -41l32.5 -7.5t46.5 -9.5zM456 113q0 74 -131 106q-28 7 -49 11.5t-36 7.5l-98 -174l10 -5q16 29 52 48q32 17 64 17
q40 0 95 -23q53 -22 66 -22q17 0 22 14q5 12 5 20z" />
    <glyph glyph-name="T" unicode="T" horiz-adv-x="562" 
d="M537 728l-13 -29q-29 -68 -103 -68q-12 0 -35 4l-12 2q-22 4 -22 -25l-1 -289q0 -29 -23 -52l-72 -73l-14 -8q-5 -3 -9 -3q-10 0 -10 11q0 5 3 10l3 4q14 19 14 47v249q0 100 49 131v8q-56 7 -83 10t-26 3q-36 0 -64 -9q-11 -3 -19 -8q-26 -15 -28 -15q-12 0 -12 11
q0 8 4 17l17 41q25 61 114 61q25 0 47.5 -2t44.5 -6q51 -9 80 -12q31 -3 72 -3t71 13q11 4 16 7t9 3q6 -2 7 -4q3 -6 -5 -26zM528 82q-76 -91 -192 -91q-111 0 -187 78q-72 73 -72 177v211q0 32 32 64l88 88q6 6 12 6q7 0 7 -8q0 -6 -3 -10l-5 -8q-13 -20 -13 -68v-271
q0 -72 54 -124q58 -54 141 -54q66 0 116 35q8 5 15 5q14 0 14 -13q0 -9 -7 -17z" />
    <glyph glyph-name="U" unicode="U" horiz-adv-x="650" 
d="M422 494v-41v41zM635 122q12 -13 -2 -25l-96 -87q-21 -18 -40 -18q-23 0 -37 11q-10 7 -28 34q-10 13 -10 43v38h-8q-2 -19 -24 -41l-75 -75q-11 -11 -31 -11q-1 1 -2 1q-3 0 -5 1q-50 13 -89 38t-67 60.5t-42.5 79t-14.5 94.5q0 89 39 196q21 55 83 184l-4 5
q-13 -10 -30 -10q-6 0 -22.5 6t-28.5 6q-7 0 -18.5 -7.5t-14.5 -7.5q-13 0 -13 13q0 7 40 80q12 22 32 22q17 0 39 -7t28 -7q13 0 45 12q9 3 16 3q23 0 23 -21q0 -9 -18 -51l-24 -59q-35 -97 -45 -136q-20 -78 -20 -149q0 -73 52 -149q57 -82 127 -82q6 0 12 6l50 49
q10 11 10 26v448q0 16 -11 16q-7 0 -14 -7l-19 -17q-1 -1 -4 -3.5t-8 -6.5q-14 -12 -26 1l-6 7q-12 13 2 25l20 18l80 73q16 16 41 16q22 0 33 -9q15 -16 29 -35q9 -12 9 -40v-49q1 -2 1 -7v-492q0 -21 17 -21q8 0 25 15l12 11q14 12 26 -1z" />
    <glyph glyph-name="V" unicode="V" horiz-adv-x="592" 
d="M552 525q0 -90 -48 -213q-11 -29 -32 -74.5t-52 -106.5q-15 -30 -28.5 -54.5t-26.5 -44.5q-28 -43 -75 -43q-40 0 -86 36q-50 39 -123 69l-34 14q-17 8 -17 28v8q0 27 25 31l9 2q15 4 15 24v419q0 35 -19 53l-29 27q-21 19 -21 44t23 53q15 18 40 35q16 10 26 3t2 -25
l-7 -13q-9 -20 -9 -27q0 -13 10 -20q8 -7 21.5 -16.5t30.5 -21.5q24 -17 34 -29q21 -23 21 -45v-20l118 117q22 22 47 22q12 0 45 -16q40 -18 67 -41.5t43.5 -50.5t23 -58.5t6.5 -65.5zM440 434q0 114 -74 173q-35 27 -61 36q-17 6 -37 -14l-45 -49q-18 -20 -21 -42v-345
q0 -24 18 -34l72 -49q14 -10 28 -10q20 0 31 26l23 62q66 184 66 246z" />
    <glyph glyph-name="W" unicode="W" horiz-adv-x="802" 
d="M762 525q0 -94 -49 -217q-12 -31 -33 -74.5t-50 -101.5q-19 -36 -32.5 -61.5t-23.5 -40.5q-25 -40 -62 -40q-15 0 -46 17l-67 39q-11 7 -19 -4q-31 -52 -69 -52q-40 0 -99 35q-81 49 -131 69l-34 14q-17 8 -17 28v8q0 27 25 31l9 2q15 4 15 24v419q0 35 -19 53l-29 27
q-21 19 -21 44t23 53q15 18 40 35q16 10 26 3t2 -25l-7 -13q-9 -20 -9 -27q0 -13 10 -20q8 -7 21.5 -16.5t30.5 -21.5q10 -7 34 -28q20 -23 20 -49v-17l142 123q17 16 39 16q18 0 33 -13t36 -37q5 -12 5 -22v-23l84 76q20 19 38 19q23 0 54 -14q66 -31 101 -95
q29 -55 29 -123zM650 434q0 58 -21 108q-18 45 -47 68q-41 34 -67 34q-14 0 -21 -5l-29 -25q-9 -11 -9 -27v-432q0 -22 11 -28l46 -23q7 -3 14 -3q21 0 33 26q8 17 13 30t9 23q68 184 68 254zM340 613q0 37 -23 37q-10 0 -20 -8l-96 -81v-32v-336q0 -26 23 -41l78 -42
q-1 2 -1 5q7 -4 15 -4q24 0 24 30v472z" />
    <glyph glyph-name="X" unicode="X" horiz-adv-x="623" 
d="M590 739q2 -4 -2 -8l-4 -6q-1 -1 -1 -2l-25 -55q-15 -34 -50 -34q-18 0 -27 4q-20 9 -27 9q-16 0 -26 -18l-86 -167l148 -331q6 -15 17 -15q8 0 19 9l18 15q19 15 32 5q2 0 6 -7q11 -11 11 -20q0 -11 -15 -24l-85 -82q-18 -18 -36 -20q-28 -1 -37 3q-12 5 -20 22
l-157 352l-124 -222q-9 -17 4 -30q8 -8 19.5 -16t20.5 -8q17 0 41 24l16 16q8 8 15 8q9 0 20 -11t11 -20q0 -10 -18 -26l-83 -77q-17 -15 -32 -14q-16 2 -26 10l-63 44q-9 6 -9 23q0 14 8 27l8 13l-1 1l174 301l-91 204q-8 15 -19 15q-7 0 -18 -8l-16 -15q-11 -10 -20 -10
q-14 0 -22 15q-8 13 -8 19q0 10 16 23l90 83q19 19 39 19q19 0 27 -4q15 -7 22 -23q1 -6 12 -30l86 -194l104 206q18 37 56 37q5 0 29 -7q25 -6 36 -6q8 0 21 7l14 4v-1l1 1l4 -3z" />
    <glyph glyph-name="Y" unicode="Y" horiz-adv-x="638" 
d="M422 494v-41v41zM598 8q2 -22 -17 -52l-77 -136q-9 -16 -30 -16q-10 0 -18 4q-14 5 -39.5 12t-61.5 16q-59 10 -114 6q-69 -4 -107 -33q-5 -3 -10 -3q-21 0 -21 39q0 40 31 68l131 118q-100 20 -152 84q-50 62 -50 150q0 89 39 194q11 29 31 75t50 109l-4 4
q-11 -8 -30 -8q-6 0 -21 6t-27 6q-5 0 -17.5 -7t-17.5 -7q-13 0 -11 12q0 8 40 81q12 21 32 21q13 0 37 -8q21 -7 27 -7q18 0 47 12q12 5 17 5q23 0 23 -23q0 -9 -19 -53l-24 -56q-17 -48 -28 -82t-16 -54q-20 -78 -20 -148q0 -174 197 -213l43 39q11 13 11 24v449
q0 16 -11 16q-6 0 -13 -6l-30 -27q-13 -12 -25 1l-6 7q-12 13 1 25l85 77l6 3l7 7q18 18 42 18q21 0 30 -9q7 -7 15 -15.5t16 -19.5t8 -28v-576q0 -44 21 -62l14 -12q14 -12 16 -27zM524 -64q7 13 -8 25l-62 52q-33 27 -33 60v43h-10l-205 -186l9 -11q46 37 119 37
q67 0 163 -37q15 -5 21 7z" />
    <glyph glyph-name="Z" unicode="Z" horiz-adv-x="617" 
d="M583 733q0 -18 -20 -18l-25 -1q-81 -5 -124 -56q-24 -29 -58 -111l-152 -366q-23 -56 -53 -80q-20 -17 -45 -21q-5 -1 -12 -1.5t-17 -0.5q-22 1 -25 6l-3 4q-2 3 2 9l9 13.5t11 15.5t9 16l156 379q27 65 91 120l-5 8q-44 -24 -91 -24q-9 0 -20.5 2.5t-23.5 5t-23.5 5
t-20.5 2.5q-22 0 -52 -14q-27 -13 -34 -13q-20 0 -9 27l27 63q22 54 82 54q24 0 49 -3t51 -8q55 -12 84 -12q24 0 68 9q48 11 67 12q25 3 50 3q19 0 38 -5t19 -20zM587 128l-5 -15l-41 -99q-8 -21 -34 -21q-13 0 -26 12q-34 34 -149 34q-52 0 -122 -18q-53 -14 -63 -18
q-27 -10 -60 -10q-20 0 -38.5 5t-18.5 20q0 17 19 18l25 1q80 3 130 56q31 34 62 111l152 366q24 57 53 80q21 15 45 21q9 1 30 0q22 -2 25 -4l3 -4q1 -3 -2.5 -9t-9 -13.5t-11.5 -16t-9 -15.5l-159 -386q-29 -68 -86 -113l5 -9q76 42 139 42q41 0 60 -17q13 -11 19 -11
q12 0 17 11l8 17q9 18 24 11l8 -3q16 -7 10 -23z" />
    <glyph glyph-name="bracketleft" unicode="[" horiz-adv-x="283" 
d="M263 -143q0 -20 -20 -20l-193 -1q-20 0 -20 20v964q0 20 20 20h193q20 0 20 -20v-18q0 -20 -20 -20h-116v-889h116q20 0 20 -20v-16z" />
    <glyph glyph-name="backslash" unicode="\" horiz-adv-x="359" 
d="M363 -32q7 -22 -13 -22h-49q-19 0 -26 21l-279 807q-8 20 13 20h51q18 0 24 -18z" />
    <glyph glyph-name="bracketright" unicode="]" horiz-adv-x="283" 
d="M253 -144q0 -20 -20 -20l-193 1q-20 0 -20 20v16q0 20 20 20h116v889h-116q-20 0 -20 20v18q0 20 20 20h193q20 0 20 -20v-964z" />
    <glyph glyph-name="asciicircum" unicode="^" horiz-adv-x="580" 
d="M520 328q2 -4 -2.5 -8t-9.5 -4h-76q-8 0 -12 12l-119 278q-5 9 -11 9q-7 0 -11 -9l-119 -278q-6 -12 -12 -12h-76q-5 0 -9.5 4t-2.5 8l178 391q4 12 16 12h72q10 0 16 -12z" />
    <glyph glyph-name="underscore" unicode="_" horiz-adv-x="487" 
d="M525 -105q0 -20 -20 -20h-514q-20 0 -20 20v13q0 20 20 20h514q20 0 20 -20v-13z" />
    <glyph glyph-name="grave" unicode="`" horiz-adv-x="542" 
d="M345 671q-1 -6 -23 -18q-19 -12 -25 -10q-15 6 -26 21l-85 128q-10 14 -5 30q4 10 30 24q26 15 38 12q16 -4 24 -20l65 -132q11 -23 7 -35z" />
    <glyph glyph-name="a" unicode="a" horiz-adv-x="522" 
d="M512 80l-66 -66q-16 -16 -42 -16q-23 0 -39 13l-53 41q-23 17 -18 41l-12 5q-6 -24 -33 -39l-93 -53q-14 -8 -28 -8q-33 0 -46 36q-14 36 -28 71.5t-14 74.5q0 57 22 101t64 74q21 15 31 58q2 11 3.5 18.5t1.5 12.5q0 10 -6 30q-9 29 -30 29q-7 0 -26 -6q-18 -6 -21 -6
q-14 0 -18 15q-2 4 -2.5 8t-1.5 8q-3 18 18 22l25 4q45 9 69 44q10 15 27 15q11 0 27 -8q8 -4 25.5 -10t46.5 -16q44 -14 58 -14q15 0 41 23q8 8 16.5 16t17.5 8t12 -3.5t10 -11.5q8 -11 -5 -24q-29 -29 -29 -50v-393q0 -44 24 -44q8 0 20 12l20 20q13 12 26 0l6 -7
q5 -5 5 -12q0 -8 -5 -13zM288 332v128q0 24 -20 33q-42 19 -63 19q-28 0 -28 -8q0 -5 3 -9q13 -27 13 -51q0 -10 -5 -28l-6 -24q-5 -32 19 -41q8 -2 29.5 -7t57.5 -12zM288 167v119q-98 20 -104 20q-20 0 -30 -33q-8 -27 -8 -49q0 -35 17 -81q20 -50 40 -50q6 0 59 28
q26 14 26 46z" />
    <glyph glyph-name="b" unicode="b" horiz-adv-x="539" 
d="M469 129q0 -27 -22 -37q-70 -35 -136 -95q-10 -8 -22 -8q-19 0 -35 15q-13 14 -109 44l-51 12q-2 0 -39 3q-25 1 -25 24v16q0 19 21 27l14 5q17 6 17 33v271q0 26 -17 28l-15 2q-20 2 -20 24v16q0 19 24 22l14 2q14 2 14 19v4v103q0 24 -2 32q-5 16 -21 21q-20 5 -20 17
q0 28 37 28q39 0 51 -40h12q15 40 56 40q50 0 50 -27q0 -17 -19 -18q-16 -4 -16 -32v-170h7q0 21 32 48l60 50q13 12 30 0l114 -84q16 -12 16 -50v-345zM365 80q-13 13 -13 36v334q0 20 -10 27l-42 31q-12 9 -23 0l-54 -46q-13 -10 -13 -28v-281q0 -20 21 -27l97 -34
q19 -7 25 -21z" />
    <glyph glyph-name="c" unicode="c" horiz-adv-x="427" 
d="M372 503q10 -3 10 -11q0 -9 -10 -16l-37 -26q-20 -14 -43 -14q-26 0 -45 19l-49 49l-9 -8q10 -10 10 -34v-322q0 -21 12 -28l43 -30q12 -9 23 0l62 51q13 12 25 -2l6 -7q11 -15 -2 -25l-5 -4l-120 -100q-10 -8 -21 -8q-13 0 -21 5q-24 17 -57.5 39.5t-77.5 48.5
q-16 7 -16 22q0 5 3.5 10.5t7 12.5t7 16.5t3.5 22.5v316q0 22 13 31l138 96q4 3 10 5q21 8 35 -12l72 -75q16 -17 30 -21z" />
    <glyph glyph-name="d" unicode="d" horiz-adv-x="536" 
d="M516 597q11 -14 -2 -25l-33 -30q-21 -20 -21 -64v-367q0 -12 -8 -20q-5 -6 -9 -9q-72 -23 -131 -78q-14 -19 -37 -14q-10 1 -21 9t-26 13q-26 8 -60.5 18.5t-79.5 22.5l-37 7q-21 4 -21 25v17q0 17 20 23l14 4q17 6 17 24v343q0 13 30 30l49 26l-49 24q-74 38 -74 110
q0 29 14 55q7 16 22 16q13 0 22 -19q15 -32 60 -54l249 -123q7 -4 15 -4q12 0 24 13l33 28l12 10q12 6 21 -4zM345 82q-13 13 -13 39v332q0 14 -19 23l-115 56v-368q0 -28 18 -34l81 -25q27 -8 35 -32z" />
    <glyph glyph-name="e" unicode="e" horiz-adv-x="482" 
d="M423 397l-215 -195v-63q1 -20 12 -27l40 -25q16 -11 27 0h1l91 77q14 12 25 -2l6 -7q12 -14 -2 -25l-155 -130q-7 -7 -21 -7q-15 0 -22 4l-52 38q-19 14 -53 30q-15 7 -55 18q-20 5 -20 25v14q0 17 18 25l13 5q19 6 19 26v302q0 22 13 31l139 96q3 3 9 5q22 7 35 -12
l146 -161q10 -10 10 -22q0 -11 -9 -20zM318 380l-111 124l-9 -7q10 -10 10 -35v-181z" />
    <glyph glyph-name="f" unicode="f" horiz-adv-x="405" 
d="M408 655l-32 -31q-22 -20 -50 -20q-19 0 -38 11l-60 39l-11 -10q11 -11 11 -36v-58q0 -16 19 -16h66q24 0 24 -24v-21q0 -24 -24 -24h-64q-21 0 -21 -20v-312q0 -21 12 -28l41 -25q10 -8 21 0l43 34q14 12 25 -2l6 -7q12 -14 -2 -25l-101 -83q-8 -7 -19 -7q-11 -3 -24 4
l-52 26q-16 8 -32.5 15t-33.5 13t-38 9q-25 4 -25 25v19q0 19 21 25l9 3q21 7 21 29v287q0 20 -17 20h-29q-24 0 -24 24v21q0 24 24 24h29q17 0 17 15v73q0 22 13 31q23 14 55.5 36t75.5 53q19 15 29 15q15 0 31 -11l64 -47q21 -15 32 -16l4 -1q11 -2 11 -12q0 -8 -7 -15z
" />
    <glyph glyph-name="g" unicode="g" horiz-adv-x="544" 
d="M489 572l-21 -20q-15 -14 -15 -55v-405q0 -47 7 -68q5 -17 21 -32q8 -8 8 -20q0 -16 -11 -36l-63 -116q-8 -15 -26 -15q-7 0 -14 4q-38 13 -96 27q-25 5 -70 5q-11 0 -23.5 -2t-28.5 -6q-39 -11 -55 -24q-3 -3 -7 -3q-9 0 -17 11.5t-8 26.5q0 21 17 38q32 35 101 101
q8 6 8 13q0 8 -10 15l-68 43q-42 28 -42 61v363q0 22 13 31q23 13 55.5 34.5t76.5 50.5q18 15 29 15q2 0 43 -15l71 -27q32 -12 52 0l41 36q13 12 25 -1l6 -7q11 -11 1 -23zM326 132v303q0 23 -15 29l-118 51l-11 -8q11 -14 11 -38v-309q0 -16 12 -28l58 -42q19 -13 33 1
l20 18q10 10 10 23zM412 -81q5 11 -9 20q-21 13 -46 43q-29 35 -29 64v9q0 8 -4 9q-5 1 -9 -3l-46 -46l-115 -114l9 -9q44 40 82 40q70 0 135 -35q15 -7 22 4z" />
    <glyph glyph-name="h" unicode="h" horiz-adv-x="551" 
d="M481 112q0 -58 -46 -106.5t-139 -106.5q-5 -3 -10 -3q-13 0 -13 13q0 8 6 13q85 70 85 149v379q0 20 -10 27l-42 31q-12 9 -23 0l-66 -51q-13 -10 -13 -28v-286q0 -24 15 -36l16 -13q12 -11 12 -22q0 -8 -5 -16l-39 -45q-16 -19 -31 -19q-11 0 -25 11l-70 55
q-23 11 -23 24q0 8 11 19.5t11 29.5v311q0 24 -17 26l-15 2q-20 2 -20 22v18q0 21 28 24l9 1q13 1 15 12v111q0 23 -2 33q-5 16 -21 21q-20 5 -20 17q0 28 37 28q39 0 51 -40h12q13 40 56 40q50 0 50 -27q0 -17 -19 -18q-18 -5 -16 -32v-174h8q0 26 31 48l71 54q15 10 31 0
l114 -84q16 -12 16 -49v-363z" />
    <glyph glyph-name="i" unicode="i" horiz-adv-x="332" 
d="M203 733q13 -17 -5 -31l-66 -49q-17 -14 -31 5l-12 16q-14 17 5 31l66 48q17 14 31 -4zM327 126q11 -12 0 -23l-7 -8l-80 -89q-15 -17 -31 -17q-13 0 -26 8q-11 8 -30.5 21t-48.5 32q-27 16 -27 59v345q0 20 -4 27l-17 22q-6 7 -6 18q0 15 12 24l88 65q7 6 18 6
q15 0 24 -11l34 -46q6 -8 6 -18q0 -15 -12 -24q-15 -12 -15 -36v-372q0 -31 26 -31q13 0 34 23l28 32l4 3q14 11 30 -10z" />
    <glyph glyph-name="j" unicode="j" horiz-adv-x="293" 
d="M204 733q14 -18 -5 -31l-66 -49q-16 -13 -30 5l-13 16q-14 17 5 31l66 48q17 14 31 -4zM227 559q6 -8 6 -18q0 -17 -12 -24q-15 -11 -15 -30v-471q0 -54 -47 -104q-40 -43 -136 -103q-5 -3 -10 -3q-13 0 -13 13q0 8 6 13q71 59 71 147l1 475q0 20 -4 27l-17 22
q-6 7 -6 18q0 15 12 24l88 65q7 6 18 6q15 0 24 -11z" />
    <glyph glyph-name="k" unicode="k" horiz-adv-x="550" 
d="M540 97l-80 -92q-17 -17 -31 -17q-15 0 -26 8q-9 5 -27 15.5t-44 27.5q-24 18 -24 49v146q0 12 -9 26l-37 43q-10 13 -25 2l-16 -13q-11 -9 -11 -24v-128q0 -22 15 -34l16 -13q12 -11 12 -22q0 -8 -5 -16l-39 -45q-16 -19 -31 -19q-11 0 -25 11l-67 53q-24 7 -24 25
q0 4 3 10t7 13t7 14t3 13v311q0 24 -17 26l-15 2q-20 2 -20 22v18q0 21 28 24l9 1q13 1 15 12v112q0 23 -2 33q-5 16 -21 21q-20 5 -20 17q0 28 37 28q39 0 51 -40h12q13 40 56 40q50 0 50 -27q0 -17 -19 -18q-18 -5 -16 -32v-160l108 87q15 12 31 0l83 -100q7 -8 7 -20
q0 -17 -16 -30l-60 -51q-10 -9 -10 -16q0 -6 8 -16l50 -57q14 -17 14 -34v-174q0 -30 28 -30q10 0 23 13l30 34q11 14 25 2l7 -6q13 -11 2 -25zM330 454l-49 61q-11 14 -25 3l-33 -26q-13 -10 -13 -29v-135l117 94q10 7 10 16q0 8 -7 16z" />
    <glyph glyph-name="l" unicode="l" horiz-adv-x="331" 
d="M326 103l-11 -13l-76 -84q-15 -17 -31 -17q-13 0 -26 8q-11 8 -31.5 22t-50.5 33q-25 15 -25 61v545q0 23 -2 33q-5 16 -21 21q-20 5 -20 17q0 28 37 28q39 0 51 -40h12q15 40 56 40q50 0 50 -27q0 -17 -19 -18q-15 -5 -15 -31v-572q0 -13 12 -22q10 -8 16 -8q13 0 32 22
l29 32q12 13 25 1l7 -6q13 -12 1 -25z" />
    <glyph glyph-name="m" unicode="m" horiz-adv-x="827" 
d="M822 108l-83 -98q-14 -17 -29 -17q-14 0 -25 8q-10 8 -29 21.5t-47 32.5q-13 8 -14 20q-1 3 -1 35v340q0 21 -9 27l-40 31q-11 8 -22 0l-50 -40q-15 -11 -15 -29v-283q0 -23 15 -36l22 -20q12 -11 12 -23q0 -7 -5 -15l-40 -52q-13 -19 -28 -19q-11 0 -25 11l-57 49
q-23 11 -23 27q0 7 9.5 19t9.5 24l-1 329q0 19 -9 27l-39 31q-12 9 -23 0l-53 -47q-13 -10 -13 -28v-290q0 -27 14 -38l15 -13q12 -11 12 -22q0 -8 -5 -16l-38 -45q-15 -19 -28 -19q-11 0 -25 11l-63 53q-23 11 -23 27q0 7 10 18.5t10 27.5v329q0 20 -3 38q-3 10 -11 10
q-4 0 -8 -6l-30 -29q-13 -13 -26 0l-6 6q-13 13 0 26l106 106q4 6 12 6q9 0 25 -13l52 -40q10 -7 10 -25v-25h10q0 22 27 46l59 52q13 12 29 0l98 -76q13 -10 25 0l95 76q15 10 30 0l102 -80q21 -17 21 -43v-369q0 -30 26 -30q12 0 31 22l24 29q12 14 25 2l7 -5
q14 -12 3 -26z" />
    <glyph glyph-name="n" unicode="n" horiz-adv-x="603" 
d="M598 99l-27 -29l-53 -61q-15 -17 -31 -17q-15 0 -26 8q-10 8 -29 21.5t-48 31.5q-18 9 -18 40v354q0 23 -10 30l-41 31q-14 9 -24 0l-56 -47q-13 -10 -13 -28v-289q0 -27 14 -38l16 -13q12 -11 12 -22q0 -8 -5 -16l-39 -45q-16 -19 -30 -19q-12 0 -26 11l-67 53
q-24 10 -24 27q0 7 10.5 19.5t10.5 28.5v339q0 26 -5 33q-8 9 -17 0l-35 -32q-14 -14 -26 0l-6 7q-12 13 1 25l112 105q4 6 12 6q10 0 27 -13l54 -40q11 -8 11 -25v-25h10q0 22 29 46l62 52q13 12 30 0l114 -84q16 -10 16 -49v-362q0 -30 28 -30q12 0 27 17l20 23l7 7
q11 14 25 1l7 -6q13 -12 1 -26z" />
    <glyph glyph-name="o" unicode="o" horiz-adv-x="524" 
d="M454 123q0 -16 -3 -23q-5 -11 -18 -17q-37 -16 -67 -35t-54 -41q-14 -19 -37 -14q-10 1 -20.5 9.5t-26.5 12.5q-61 29 -152 40l-17 2q-29 3 -29 27v17q0 16 25 26l9 3q17 8 17 25v336q0 13 8 21q4 7 9 9q81 41 125 78q17 14 36 14q11 0 27 -8q21 -11 33 -15l108 -35
q27 -9 27 -39v-393zM345 85q-13 13 -13 39v41v275q0 28 -18 34l-76 24q-27 9 -35 32l-13 -9q11 -13 13 -39v-41v-275q0 -28 18 -34l76 -24q27 -9 35 -32z" />
    <glyph glyph-name="p" unicode="p" horiz-adv-x="556" 
d="M486 477l-1 -352q0 -16 -3 -23q-5 -11 -18 -17q-86 -37 -125 -73q-19 -19 -36 -19q-5 0 -48 21q-12 6 -28 9v-140q0 -27 17 -30q18 -5 18 -20q0 -27 -50 -27q-43 0 -56 40h-12q-12 -40 -51 -40q-37 0 -37 28q0 13 21 18q21 4 21 39l1 137q0 19 -14 22l-19 4q-18 4 -18 23
v12q0 13 25 31l10 7q15 10 15 31l1 312q0 25 -5 32q-8 10 -19 -1l-7 -7l-26 -24q-14 -14 -26 0l-6 7q-12 13 1 25l8 8l104 97q4 6 12 6q10 0 27 -13l54 -40q11 -8 11 -25v-27h7q1 19 24 39l68 61q13 12 30 0l114 -84q16 -10 16 -47zM382 83q-13 14 -13 39v332q0 17 -9 23
l-42 31q-14 9 -24 0l-54 -47q-13 -10 -13 -28v-271q0 -25 17 -30l90 -26q27 -8 35 -32z" />
    <glyph glyph-name="q" unicode="q" horiz-adv-x="528" 
d="M568 -61q12 -13 -2 -25l-100 -91q-20 -17 -31 -17q-15 0 -26 8l-73 53q-13 9 -15 20q-1 3 -1 35v153l-60 -59q-24 -24 -45 -24q-12 0 -31 16q-17 11 -42 28t-57 40q-15 12 -15 39v367q0 22 13 31q23 13 55.5 34.5t76.5 50.5q18 15 29 15q2 0 43 -15l71 -27q22 -9 37 -9
q14 0 22 7l35 36q13 13 26 1l6 -6q12 -12 0 -26l-25 -28q-12 -14 -12 -50v-566q0 -31 26 -31q10 0 20 10l43 38q14 12 26 -1zM320 152v287q0 23 -15 29l-119 51l-10 -8q11 -14 11 -38v-313q0 -16 12 -28l43 -30q19 -13 33 -2l35 29q10 9 10 23z" />
    <glyph glyph-name="r" unicode="r" horiz-adv-x="461" 
d="M374 598q-11 15 -26 15q-13 0 -23 -9l-60 -48q-27 -20 -28 -54h-10v30q0 28 -16 38l-49 35q-11 8 -25 8q-13 0 -23 -10l-11 -11l-92 -85q-13 -12 -1 -25l6 -7q12 -13 26 -1l26 24l5 4q12 13 22 1q5 -7 5 -30v-321q-2 -11 -19 -17q-2 -1 -5 -2t-8 -3q-18 -9 -18 -22v-19
q0 -9 5 -14t15 -8t23.5 -5.5t31.5 -6.5q25 -11 53 -30l43 -28q13 -8 29 -8q13 0 24 11l20 22l69 75q12 13 -1 25l-7 7q-13 12 -25 -1l-33 -37l-7 -7q-13 -10 -25 -2l-26 16q-12 7 -12 25v298q0 30 21 44l30 20q23 16 34 1l8 -10q22 -28 53 -28q17 0 33 11l39 27q11 8 11 16
q0 6 -9 11l-3 2q-9 5 -24 26l-46 57q-12 20 -34 14z" />
    <glyph glyph-name="s" unicode="s" horiz-adv-x="487" 
d="M422 124q0 -31 -21 -44l-129 -81l-9 -5q-18 -6 -35 11l-112 79q-11 7 -16 2q-6 -7 -3 -19q4 -15 4 -28q0 -48 -22 -48q-24 0 -24 49q0 25 18 51l93 135q9 12 -4 21l-77 51q-27 18 -27 50v134q0 30 21 44l129 81l10 5q17 6 35 -12l106 -74q11 -8 18 2t4 22t-3 24
q0 40 21 40q23 0 23 -43q0 -28 -15 -44l-92 -132q-11 -14 2 -23l78 -56q27 -20 27 -51v-141zM334 466l-9 6q-25 -13 -47 -13q-24 0 -50 17l-45 30l-8 -10q10 -10 10 -34v-58q0 -26 19 -39l41 -27zM305 110q-10 10 -10 34v76q0 23 -19 35l-40 26l-98 -140l9 -6q25 13 51 13
q32 0 58 -19l41 -29z" />
    <glyph glyph-name="t" unicode="t" horiz-adv-x="394" 
d="M374 119l-20 -20l-98 -96q-17 -15 -32 -15q-14 0 -26 8t-34 22q-11 8 -35 22l-47 17q-30 12 -30 30v14q0 21 18 26q35 9 35 31v296q-4 13 -17 13h-39q-24 0 -24 23v14q0 10 34 29q86 50 127 154q16 39 27 39q20 0 20 -35v-134q0 -21 20 -21h63q24 0 24 -24v-21
q0 -24 -24 -24h-62q-21 0 -21 -20v-308q0 -15 11.5 -26t24.5 -11q24 0 47 23l26 26q5 5 13 5q6 0 13 -5l6 -7q13 -12 0 -25z" />
    <glyph glyph-name="u" unicode="u" horiz-adv-x="600" 
d="M595 123q6 -13 -4 -22l-89 -81q-31 -28 -42 -28q-26 2 -38 11l-50 38q-21 16 -21 36v11h-10q0 -26 -30 -48l-56 -44q-15 -12 -31 0l-109 84q-15 12 -15 49l-1 363q0 19 -12 19q-8 0 -22 -11l-8 -7l-21 -19q-13 -12 -25 1l-6 7q-12 13 1 25l93 87q20 19 35 19q7 0 27 -15
q5 -4 13.5 -10t19.5 -16q23 -20 23 -40v-380q0 -23 9 -30l36 -26q13 -9 24 0l51 42q13 10 13 28v294q0 27 -14 38l-16 13q-12 10 -12 22q0 8 5 16l39 45q16 19 30 19q12 0 26 -11l78 -58q13 -12 13 -25q0 -3 -3.5 -9t-7 -13t-7 -14.5t-3.5 -13.5v-335q0 -37 28 -37
q12 0 22 8l31 27l6 5q9 6 18 0l6 -6z" />
    <glyph glyph-name="v" unicode="v" horiz-adv-x="510" 
d="M447 123q0 -16 -3 -23q-5 -11 -18 -17q-29 -13 -58 -39l-33 -33q-26 -23 -47 -23q-25 0 -67 33q-49 38 -133 73l-34 14q-17 8 -17 28v8q0 27 25 31l9 2q15 4 15 24v314q0 26 -10 43l-9 16q-8 14 -8 33q0 37 25 59l67 59q15 13 27 -1l5 -6q7 -14 -2 -23l-12 -12
q-14 -14 -14 -30q0 -14 12 -32l27 -40q16 -23 16 -42v-7q0 -13 10 -4l81 72q14 13 29 13q13 0 27 -11l25 -25l33 -34q32 -34 32 -57v-363zM339 82q-13 13 -13 39v41v302q0 22 -15 39l-13 14q-9 10 -16 10q-9 0 -20 -11l-32 -30q-18 -17 -21 -42v-278q0 -27 18 -34l64 -27
q27 -11 35 -32z" />
    <glyph glyph-name="w" unicode="w" horiz-adv-x="745" 
d="M675 123q0 -16 -3 -23q-5 -11 -18 -17q-15 -7 -30 -16t-29 -22l-35 -33q-26 -23 -45 -23q-22 0 -56 24q-11 8 -28.5 19t-42.5 25q-15 6 -25 -7l-38 -38q-23 -23 -46 -23q-29 0 -75 36q-50 39 -123 69l-34 14q-17 8 -17 28v8q0 27 25 31l9 2q15 4 15 24v314q0 26 -10 43
l-9 16q-8 16 -8 34q0 36 25 58l67 59q15 13 27 -1l5 -6q7 -14 -2 -23l-12 -12q-14 -14 -14 -30q0 -14 12 -32l27 -40q16 -23 16 -43v-6q0 -13 10 -4l83 74q14 11 27 11q14 0 26.5 -11.5t25.5 -24.5l47 -47q9 -9 15 -9q7 0 14 7l80 71q17 14 27 14q13 0 27 -11l25 -25l33 -34
q32 -34 32 -57v-363zM567 82q-13 13 -13 39v41v302q0 22 -15 39l-13 14q-8 8 -15 8q-8 0 -21 -12l-29 -27q-18 -16 -21 -43v-277q0 -27 18 -34l61 -27q28 -13 35 -32zM332 82q-13 13 -13 39v41v302q0 22 -15 39l-13 14q-9 10 -17 10t-19 -11l-32 -30q-17 -17 -21 -43v-277
q0 -27 18 -34l64 -27q27 -11 35 -32z" />
    <glyph glyph-name="x" unicode="x" horiz-adv-x="468" 
d="M438 517q0 -13 -21 -29l-12 -9q-25 -19 -45 -19q-8 0 -16 4t-15.5 9t-14.5 9t-13 4q-14 0 -14 -21v-303q0 -26 17 -38l26 -19q17 -11 30 5l2 3l39 50q12 14 26 2l7 -5q14 -12 2 -26l-103 -127q-12 -15 -34 -15q-17 0 -31 11l-26 20q-21 16 -21 51h-13q-10 -45 -64 -74
q-22 -11 -48 -8q-12 1 -25 7.5t-23 15.5t-16.5 20.5t-6.5 23.5q0 10 6 21l33 59q11 17 21 17q8 0 14 -8l15 -20q17 -20 31 -20q27 0 27 35v325q0 31 -12 40l-16 12q-14 11 -26 -3l-31 -36l-14 -16q-13 -13 -26 -2l-7 6q-12 10 -1 26l9 12l71 81q22 25 44 25q6 0 11.5 -2
t12.5 -6.5t17 -13t25 -20.5q25 -19 25 -40h14q0 34 20 54l18 18q11 11 21 11q9 0 18 -9l52 -48q12 -12 20 -18t12.5 -9.5t6.5 -6t2 -6.5z" />
    <glyph glyph-name="y" unicode="y" horiz-adv-x="552" 
d="M502 -26q0 -18 -12 -40l-64 -114q-8 -15 -25 -15q-8 0 -15 4q-55 16 -103 25t-93 6q-62 -5 -90 -30q-4 -4 -10 -4q-9 0 -17 12.5t-8 29.5q0 22 17 39l103 104q8 8 8 17q-1 4 -5 10t-17 15t-38 22t-69 32q-19 7 -19 27v7q0 21 19 31q23 12 23 36v299q0 15 -9 15
q-6 0 -10 -3l-11 -12l-14 -15q-13 -13 -26 -1l-6 6q-13 12 -1 26l87 93q17 17 35 17q13 0 29 -14l29 -26q15 -14 15 -42l-1 -375q0 -16 12 -28l44 -27q19 -11 32 -4l35 35q10 10 10 23v14v292q0 24 -15 38l-16 15q-8 8 -8 18t7 17l58 51q14 13 29 13q13 0 23 -10l63 -66
q13 -14 2 -25q-16 -15 -16 -33v-397q0 -54 18 -76q20 -26 20 -32zM423 -83q4 10 -6 22l-60 67q-5 6 -16 30l-2 25q-3 18 -10 18t-14 -7l-162 -162l9 -9q44 32 90 32q69 0 144 -37q13 -6 19 5z" />
    <glyph glyph-name="z" unicode="z" horiz-adv-x="400" 
d="M330 86q0 -65 -55 -129q-21 -24 -81 -72q-34 -26 -61 -45.5t-49 -30.5q-6 -3 -11 -3q-14 0 -14 13q0 7 7 13q55 47 91 98q45 61 45 105v148q0 46 -4 62q-4 21 -23 43l-14 18q-15 18 -35 18q-11 0 -21 -6l-45 -34q-14 -11 -25 3l-6 7q-11 14 4 25l128 99q17 14 17 29
q0 9 -8 20l-25 33q-10 13 -23 13q-12 0 -25 -10l-16 -11l-41 -30q-14 -11 -25 5l-5 7q-11 16 4 26l145 104q13 9 30 9q24 0 36 -14l67 -81q9 -12 9 -23q0 -17 -20 -32l-49 -38q-19 -15 -19 -28q0 -14 20 -19q36 -9 61 -39q36 -42 36 -112v-141z" />
    <glyph glyph-name="braceleft" unicode="{" horiz-adv-x="329" 
d="M299 -156q0 -10 -11 -10h-6q-69 0 -125 44q-60 48 -60 118q0 33 13 110q14 82 14 111q0 80 -79 102q-15 4 -15 14v11q0 10 14 13q80 23 80 107q0 14 -3 41t-10 65q-7 39 -10 66t-3 41q0 74 61 119q52 39 128 45q12 0 12 -11v-15q0 -10 -10 -13q-85 -21 -85 -94
q0 -14 3 -39.5t8 -61.5q12 -72 12 -102q0 -114 -139 -160q-9 -3 -9 -6q0 -4 10 -7q139 -52 139 -161q0 -29 -12 -101t-12 -101q0 -76 87 -98q8 -2 8 -12v-15z" />
    <glyph glyph-name="bar" unicode="|" horiz-adv-x="229" 
d="M159 -64q0 -12 -12 -12h-65q-12 0 -12 12v852q0 12 12 12h65q12 0 12 -12v-852z" />
    <glyph glyph-name="braceright" unicode="}" horiz-adv-x="329" 
d="M299 333q0 -10 -15 -14q-79 -22 -79 -102q0 -34 13 -111q7 -40 10.5 -67t3.5 -43q0 -70 -60 -118q-56 -44 -125 -44h-6q-11 0 -11 10v15q0 10 8 12q87 22 87 98q0 29 -12 101t-12 101q0 109 139 161q10 3 10 7q0 3 -9 6q-139 46 -139 160q0 15 3 40.5t8 61.5
q12 72 12 101q0 73 -85 94q-10 3 -10 13v15q0 11 12 11q76 -6 128 -45q61 -45 61 -119q0 -14 -3 -41t-10 -66q-7 -38 -10 -65t-3 -41q0 -84 80 -107q14 -3 14 -13v-11z" />
    <glyph glyph-name="asciitilde" unicode="~" horiz-adv-x="552" 
d="M502 369q0 -11 -11 -28q-32 -42 -109 -42q-55 0 -112 26q-57 28 -101 28q-54 0 -94 -31q-9 -5 -15 -4q-10 1 -10 11v29q0 9 6 21.5t20.5 23t37.5 18t57 7.5q54 0 123 -32q45 -22 90 -22q53 0 93 31q9 5 15 4q10 -1 10 -10v-30z" />
    <glyph glyph-name="uni00A0" unicode="&#xa0;" horiz-adv-x="225" 
 />
    <glyph glyph-name="exclamdown" unicode="&#xa1;" horiz-adv-x="292" 
d="M227 689q0 -28 -20 -48t-48 -20q-29 0 -49 20t-20 48t20 48t49 20q28 0 48 -20t20 -48zM244 111q8 -14 8 -25q0 -14 -22 -35q-9 -8 -18 -15.5t-18 -15.5q-24 -29 -33 -29q-11 0 -19 10t-14 19q-8 7 -19.5 17.5t-27.5 25.5q-11 11 -11 23q0 9 7 22l6 10t5 10q4 7 5 17
q38 224 48 401l37 28q8 -111 21 -217.5t31 -211.5q3 -17 14 -34z" />
    <glyph glyph-name="cent" unicode="&#xa2;" horiz-adv-x="427" 
d="M372 503q10 -3 10 -11q0 -9 -10 -16l-37 -26q-18 -12 -40 -14l-96 -277v-14q0 -16 12 -28l43 -30q12 -8 19 -4l66 55q13 12 25 -2l6 -7q11 -15 -2 -25l-5 -4l-120 -100q-10 -8 -21 -8q-13 0 -21 5l-46 33l-20 -57q-5 -14 -13 -14h-14q-19 0 -14 14l27 79q-17 11 -31 19.5
t-24 13.5q-16 7 -16 22q0 5 3.5 10.5t7 12.5t7 16.5t3.5 22.5v311q0 22 13 31l138 96q4 3 10 5q21 8 35 -12l32 -33l22 64q4 13 13 13h14q18 0 14 -13l-33 -95l10 -11q16 -17 30 -21zM257 447l-10 8l-49 49l-9 -8q10 -10 10 -34v-184z" />
    <glyph glyph-name="sterling" unicode="&#xa3;" horiz-adv-x="496" 
d="M448 76q-5 -11 -10.5 -20.5t-11.5 -18.5q-29 -45 -96 -45q-24 0 -67 15q-42 16 -66 16q-51 0 -64 -7q-12 -5 -47 -13q-32 -7 -48 -7q-27 0 -25 24q0 12 12 26l26 32q57 82 57 172q0 16 -0.5 29t-1.5 24l-3 25h-5q-5 0 -12 -2t-14 -4.5t-13.5 -4.5t-9.5 -2q-23 0 -21 21
q2 17 25 37q20 17 40 26q-5 23 -9.5 46.5t-9.5 46.5q-11 55 -11 78q0 65 64 126q65 62 134 62q88 0 127 -44q27 -30 27 -72q0 -45 -26 -74q-23 -23 -52 -23q-16 0 -25.5 8.5t-1.5 25.5q11 27 11 63q0 33 -20.5 57t-48.5 24q-11 0 -23 -5q-54 -24 -54 -81q0 -11 1.5 -24.5
t3.5 -30.5l29 -140q2 -7 4 -17t4 -24q61 -24 77 -24q28 0 55 28q13 13 26 0l4 -4q11 -11 0 -25l-35 -45q-31 -40 -72 -40q-13 0 -44 9q-5 -128 -69 -192l4 -8q38 32 89 32q20 0 56 -12q38 -11 53 -11q33 0 71 24q5 4 14 4q19 0 19 -18q0 -7 -17 -43z" />
    <glyph glyph-name="currency" unicode="&#xa4;" horiz-adv-x="589" 
d="M542 456l-19 -22q-15 -18 -38 -18h-113v-31h69q21 0 21 -17q0 -8 -7 -15l-23 -22q-20 -18 -38 -18h-22v-5q0 -29 -10 -45l-29 -33q-8 -8 -23 -20.5t-38 -29.5q-25 -18 -32 -8l-4 5q-5 10 7 22t12 45l-1 370q0 22 18 37q37 29 64.5 52.5t45.5 40.5q16 16 31 16
q20 0 33 -13q21 -20 39 -35t34 -23q22 -10 22 -28q0 -13 -13 -23l-18 -15q-19 -16 -48 -16q-31 0 -53 18l-41 34l-6 -5q10 -13 10 -36v-130h156q21 0 21 -16q0 -9 -7 -16zM540 79q-76 -91 -191 -91q-112 0 -187 78q-73 73 -73 177v70h-54q-15 0 -15 13q0 8 9 19l18 19
q19 21 42 21v31h-54q-15 0 -15 13q0 8 9 19l18 19q19 21 42 21v16q0 108 75 182q62 61 140 70q15 1 15 -11q0 -8 -8 -11q-35 -14 -67 -55q-37 -46 -37 -98v-334q0 -71 56 -125q56 -53 140 -53q66 0 116 35q8 5 14 5q15 0 15 -13q0 -7 -8 -17z" />
    <glyph glyph-name="yen" unicode="&#xa5;" horiz-adv-x="643" 
d="M628 749q1 -3 -2 -9q-2 -3 -5 -6q-1 -1 -1 -2l-24 -55q-15 -34 -51 -34q-18 0 -27 4q-20 9 -28 9q-10 0 -20 -12l-9 -14l-91 -185h132q20 0 20 -16q0 -9 -6 -16l-19 -22q-17 -18 -38 -18h-99v-33h142q21 0 21 -17q0 -8 -7 -15l-23 -22q-20 -18 -38 -18h-95v-125
q0 -23 15 -36l16 -13q13 -10 13 -22q0 -9 -6 -16l-39 -45q-16 -19 -30 -19q-12 0 -26 11q-14 12 -31.5 25.5t-37.5 29.5q-22 13 -22 27q0 5 10 17t10 28v138h-146q-15 0 -15 13q0 10 9 19l19 19q21 21 54 21h79v14l-8 19h-138q-15 0 -15 13q0 10 9 19l19 19q21 21 54 21h40
l-75 174q-8 15 -18 15q-9 0 -19 -9l-18 -14q-19 -15 -32 -5l-2 2q-2 2 -4 5q-10 10 -10 20t15 24l87 80q18 18 36 20q28 1 38 -4t18 -22l12 -27l109 -254l113 232h1l19 39q18 37 57 37q5 0 29 -7q25 -6 35 -6q8 0 22 7l6 2t7 2h1q2 0 4 -2z" />
    <glyph glyph-name="brokenbar" unicode="&#xa6;" horiz-adv-x="229" 
d="M159 407q0 -12 -12 -12h-65q-12 0 -12 12v381q0 12 12 12h65q12 0 12 -12v-381zM159 -65q0 -12 -12 -12h-65q-12 0 -12 12v381q0 12 12 12h65q12 0 12 -12v-381z" />
    <glyph glyph-name="section" unicode="&#xa7;" horiz-adv-x="528" 
d="M478 204q0 -84 -85 -157q41 -52 41 -111q0 -74 -56 -121q-53 -44 -128 -44q-84 0 -121 42q-35 40 -35 124q0 17 15 17h72q12 0 15 -24q3 -35 9 -45q12 -24 47 -24q32 0 55 17.5t23 48.5q0 48 -73 109l-134 110q-73 72 -73 150q0 86 82 150q-34 43 -34 98q0 75 50 122
q49 48 125 48q84 0 119 -37t35 -119q0 -15 -15 -15h-72q-14 0 -15 21q-1 31 -6 40q-11 21 -46 21q-72 0 -72 -64q0 -51 72 -108l133 -103q72 -68 72 -146zM376 192q0 50 -36 80l-149 112q-40 -30 -40 -72q0 -57 70 -118l113 -84q42 33 42 82z" />
    <glyph glyph-name="dieresis" unicode="&#xa8;" horiz-adv-x="542" 
d="M431 700q0 -23 -16.5 -40t-39.5 -17q-24 0 -40 17t-16 40t16.5 39.5t39.5 16.5q22 0 39 -16.5t17 -39.5zM234 700q0 -23 -16.5 -40t-40.5 -17q-23 0 -39 17t-16 40t16.5 39.5t38.5 16.5q23 0 40 -16.5t17 -39.5z" />
    <glyph glyph-name="copyright" unicode="&#xa9;" horiz-adv-x="841" 
d="M821 375q0 -164 -118 -275q-119 -111 -283 -111q-187 0 -312 146q-88 103 -88 240q0 102 51 188q51 85 141 141q92 56 208 56q138 0 251 -88q150 -117 150 -297zM764 375q0 108 -69 198q-107 137 -275 136q-29 0 -120 -21q-119 -44 -183 -154q-42 -74 -42 -159
q0 -109 71 -200q105 -136 274 -136q170 0 275 135q69 88 69 201zM571 573q9 -3 9 -11q0 -9 -9 -16l-37 -25q-20 -15 -43 -15q-26 0 -45 19l-49 49l-9 -8q10 -10 10 -34v-317q0 -16 12 -28l43 -30q11 -8 19 -3l65 55q14 11 26 -3l5 -6q12 -14 -2 -26l-4 -4l-120 -100
q-10 -8 -21 -8q-13 0 -21 5q-24 17 -57.5 39.5t-78.5 48.5q-15 7 -15 22q0 5 3.5 10.5t7 13t7 17t3.5 21.5v311q0 22 13 31l138 96q3 2 5 3l4 2q22 7 35 -11l73 -75q17 -17 29 -21z" />
    <glyph glyph-name="ordfeminine" unicode="&#xaa;" horiz-adv-x="326" 
d="M302 436l-39 -39q-11 -11 -27 -11q-14 0 -57 33q-13 10 -12 25l-3 1q-5 -15 -20 -22l-55 -32q-12 -5 -19 -5q-21 0 -29 23q-26 67 -26 91q0 70 53 106q20 14 20 52q0 10 -5 21.5t-14 11.5q-4 0 -14.5 -3.5t-13.5 -3.5q-11 0 -16 20q-1 13 13 16q2 0 6 0.5t9 1.5
q26 5 40 25q7 10 18 10q7 0 17 -5t43 -15q27 -8 34 -8q8 0 33 22q6 6 12 6q7 0 12.5 -6t5.5 -11q0 -2 -3.5 -6t-7.5 -9.5t-7.5 -11.5t-3.5 -12v-238q0 -23 12 -23q2 0 6 3.5t8.5 7.5t9.5 7.5t8 3.5q5 0 9 -4l3 -4q4 -4 4 -9t-4 -9zM163 668q0 13 -10 17q-27 11 -36 11
q-14 0 -14 -1q-1 -1 1 -6q8 -18 8 -31q0 -8 -3 -18q-8 -32 6 -36q18 -7 42 -10q6 -2 6 7v67zM163 488v56q0 15 -13 18q-22 5 -33.5 7.5t-12.5 2.5q-20 0 -20 -46q0 -23 10 -50q10 -28 21 -28q4 0 35 16q13 7 13 24z" />
    <glyph glyph-name="guillemotleft" unicode="&#xab;" horiz-adv-x="519" 
d="M479 28q5 -8 5 -13q0 -15 -24 -15h-40q-26 0 -48 28l-116 169q-8 13 -8 22q0 10 8 23l113 163q25 33 52 33h37q23 0 23 -18q0 -8 -6 -15l-126 -186zM258 28q5 -8 5 -13q0 -15 -24 -15h-40q-26 0 -48 28l-116 169q-8 13 -8 22q0 10 8 23l113 163q25 33 52 33h37
q23 0 23 -18q0 -8 -6 -15l-126 -186z" />
    <glyph glyph-name="logicalnot" unicode="&#xac;" horiz-adv-x="650" 
d="M600 142q0 -22 -20 -22h-49q-22 -4 -22 22v250h-444q-11 -2 -20.5 4.5t-9.5 17.5v43q0 24 26 24h134h251h135q19 0 19 -22v-317z" />
    <glyph glyph-name="uni00AD" unicode="&#xad;" horiz-adv-x="253" 
d="M223 302q0 -12 -12 -12h-189q-12 0 -12 12v57q0 12 12 12h189q12 0 12 -12v-57z" />
    <glyph glyph-name="registered" unicode="&#xae;" horiz-adv-x="841" 
d="M821 375q0 -105 -51.5 -192t-142.5 -139q-94 -55 -207 -55q-169 0 -284 109q-116 110 -116 277v3q0 162 121 274q117 108 279 108q138 0 251 -88q150 -117 150 -297zM764 375q0 108 -69 198q-107 137 -275 136q-29 0 -120 -21q-119 -44 -183 -154q-42 -74 -42 -159
q0 -109 71 -200q105 -136 274 -136q170 0 275 135q69 88 69 201zM649 182q0 -7 -7 -17l-33 -47q-23 -23 -49 -23q-62 0 -85 83l-22 85q-22 90 -103 99v-164q0 -19 14 -30t14 -20q0 -11 -17 -36q-18 -27 -30 -27q-8 0 -35 18l-36 24q-17 9 -17 23q0 4 9.5 16.5t9.5 27.5v366
q0 14 -8 14q-5 0 -11 -6l-19 -16q-10 -9 -19 1l-4 5q-9 9 1 18l64 58q22 19 30 19q17 0 28 -8l19 -25q7 -8 7 -32v-22l71 71q16 16 36 15q50 -3 85 -35q39 -36 39 -96q0 -47 -30 -89q-31 -42 -70 -59v-6q45 -18 59 -66l28 -109q7 -27 24 -27q11 0 21 16t17 16q19 0 19 -15z
M503 490q0 18 -7 32.5t-19 25t-27.5 16.5t-31.5 6q-17 0 -27 -8l-35 -33q-6 -5 -6 -16v-123q12 -4 31 -4q55 0 89 34q33 30 33 70z" />
    <glyph glyph-name="macron" unicode="&#xaf;" horiz-adv-x="600" 
d="M482 687q0 -32 -39 -32h-309q-36 0 -36 32q0 34 36 34h309q39 0 39 -34z" />
    <glyph glyph-name="macron" unicode="&#x2c9;" horiz-adv-x="600" 
d="M482 687q0 -32 -39 -32h-309q-36 0 -36 32q0 34 36 34h309q39 0 39 -34z" />
    <glyph glyph-name="degree" unicode="&#xb0;" horiz-adv-x="360" 
d="M320 597q0 -63 -38 -110q-41 -50 -102 -50q-62 0 -103 50q-37 46 -37 110t37 110q41 50 103 50q63 0 104 -50q36 -47 36 -110zM248 597q0 15 -5 30t-14 27.5t-21.5 20t-27.5 7.5q-32 0 -49.5 -26t-17.5 -59t17.5 -59t49.5 -26t52 27q16 25 16 58z" />
    <glyph glyph-name="plusminus" unicode="&#xb1;" horiz-adv-x="454" 
d="M415 395q0 -12 -12 -12h-135v-161q0 -12 -12 -12h-66q-12 0 -12 12v161h-134q-12 0 -12 12v52q0 12 12 12h134v162q0 12 12 12h66q12 0 12 -12v-162h135q12 0 12 -12v-52zM405 95q0 -12 -12 -12h-339q-12 0 -12 12v52q0 12 12 12h339q12 0 12 -12v-52z" />
    <glyph glyph-name="uni00B2" unicode="&#xb2;" horiz-adv-x="310" 
d="M261 334q-18 -42 -63 -42q-6 0 -16 3t-21 6t-21 6t-16 3q-19 0 -32 -6q-26 -12 -39 -12q-25 0 -32 25q-4 11 -4 26q0 48 35 83l82 81q35 35 35 81v53q0 17 -9 20l-58 18q-17 5 -29 -7l-3 -2l-4 -4l-16 -14q-14 -8 -23 1l-4 4q-11 12 2 23l49 43q25 30 54 30q6 0 32 -9
l82 -27q18 -6 18 -31v-61q0 -47 -43 -89l-110 -109q-32 -32 -32 -56q0 -4 4 -13q19 24 62 24q6 0 15.5 -2t19.5 -4t19.5 -4t15.5 -2q18 0 44 14q4 2 7 2q15 0 15 -14q0 -2 -16 -38z" />
    <glyph glyph-name="uni00B3" unicode="&#xb3;" horiz-adv-x="320" 
d="M286 737q2 -14 -14 -25q-4 -3 -9 -9t-13 -14l-73 -81l41 -22q45 -24 57 -59q6 -17 6 -44v-102q0 -20 -16 -27q-47 -19 -84 -53q-14 -12 -45 1q-23 10 -71 21q-39 9 -39 71q0 17 11.5 30.5t31.5 37.5q17 20 28 7q5 -7 1 -16q-5 -15 -5 -25v-17q0 -18 37 -31l55 -15
q11 -3 15 -10l2 1q-7 10 -7 20v87q0 40 -18 58q-12 12 -56 31q-10 4 -10 16q0 7 6 15l89 98q-30 -14 -66 -14q-9 0 -26.5 5t-26.5 5q-11 0 -47 -15q-4 -1 -10 0q-6 3 -6 8q0 4 1 5l16 37q18 41 62 41q15 0 47 -9q31 -9 47 -9q28 0 46.5 8t29.5 8t13 -14z" />
    <glyph glyph-name="acute" unicode="&#xb4;" horiz-adv-x="542" 
d="M385 822q5 -16 -5 -30l-86 -128q-9 -15 -25 -21q-5 -2 -26 10q-21 13 -22 18q-4 12 7 35l65 132q8 16 24 20q12 3 37 -12q27 -14 31 -24z" />
    <glyph glyph-name="mu" unicode="&#xb5;" horiz-adv-x="633" 
d="M628 749q1 -3 -2 -9q-2 -3 -5 -6q-1 -1 -1 -2l-24 -55q-15 -34 -51 -34q-18 0 -27 4q-20 9 -28 9q-10 0 -20 -12l-9 -14l-101 -206v-281q0 -23 15 -36l16 -13q13 -10 13 -22q0 -9 -6 -16l-39 -45q-16 -19 -30 -19q-12 0 -26 11q-14 12 -31.5 25.5t-37.5 29.5
q-22 13 -22 27q0 5 10 17t10 28v224l-114 265q-8 15 -18 15q-9 0 -19 -9l-18 -14q-19 -15 -32 -5l-2 2q-2 2 -4 5q-10 10 -10 20t15 24l87 80q18 18 36 20q28 1 38 -4t18 -22l12 -27l109 -254l113 232h1l19 39q18 37 57 37q5 0 29 -7q25 -6 35 -6q8 0 22 7l6 2t7 2h1
q2 0 4 -2z" />
    <glyph glyph-name="mu" unicode="&#x3bc;" horiz-adv-x="633" 
d="M628 749q1 -3 -2 -9q-2 -3 -5 -6q-1 -1 -1 -2l-24 -55q-15 -34 -51 -34q-18 0 -27 4q-20 9 -28 9q-10 0 -20 -12l-9 -14l-101 -206v-281q0 -23 15 -36l16 -13q13 -10 13 -22q0 -9 -6 -16l-39 -45q-16 -19 -30 -19q-12 0 -26 11q-14 12 -31.5 25.5t-37.5 29.5
q-22 13 -22 27q0 5 10 17t10 28v224l-114 265q-8 15 -18 15q-9 0 -19 -9l-18 -14q-19 -15 -32 -5l-2 2q-2 2 -4 5q-10 10 -10 20t15 24l87 80q18 18 36 20q28 1 38 -4t18 -22l12 -27l109 -254l113 232h1l19 39q18 37 57 37q5 0 29 -7q25 -6 35 -6q8 0 22 7l6 2t7 2h1
q2 0 4 -2z" />
    <glyph glyph-name="paragraph" unicode="&#xb6;" horiz-adv-x="530" 
d="M520 675q0 -29 -37 -29h-29v-772q0 -40 -35 -40q-37 0 -37 40v772h-76v-772q0 -40 -36 -40t-36 40v415q-108 0 -166 53.5t-58 152.5q0 70 37 126q57 87 194 87h242q37 0 37 -30v-3z" />
    <glyph glyph-name="periodcentered" unicode="&#xb7;" horiz-adv-x="262" 
d="M207 344q0 -33 -23 -56t-55 -23q-33 0 -56 23t-23 56q0 32 23 55t56 23q32 0 55 -23t23 -55z" />
    <glyph glyph-name="periodcentered" unicode="&#x2219;" horiz-adv-x="262" 
d="M207 344q0 -33 -23 -56t-55 -23q-33 0 -56 23t-23 56q0 32 23 55t56 23q32 0 55 -23t23 -55z" />
    <glyph glyph-name="cedilla" unicode="&#xb8;" horiz-adv-x="427" 
d="M309 -97q0 -47 -44 -70q-35 -18 -85 -18q-36 0 -55 4q-8 2 -8 9q0 11 14 9q21 -3 27 -3q26 0 47 12q25 13 25 38q0 23 -22 35q-19 11 -42 11q-6 0 -7 3q-3 4 2 9l21 18q20 17 46 17q34 0 57.5 -20.5t23.5 -53.5z" />
    <glyph glyph-name="uni00B9" unicode="&#xb9;" horiz-adv-x="271" 
d="M236 368l-30 -55q-4 -9 -13 -14q-10 -7 -22 -7q-17 0 -27 7l-14 9q-39 24 -54 25t-15 15v12q0 10 20 18q9 4 9 14v279q0 12 -5 14q-6 0 -10 -3q-23 -18 -27 -18q-6 0 -10 4l-3 4q-9 10 2 19l5 4l56 47q14 11 24 11q20 0 26 -6q25 -24 25 -48v-322q0 -18 12 -18q8 0 13 6
q13 25 22 25q2 0 6 -2l5 -2q12 -8 5 -18z" />
    <glyph glyph-name="ordmasculine" unicode="&#xba;" horiz-adv-x="295" 
d="M275 464q0 -8 -2 -14q-2 -8 -12 -12q-41 -17 -71 -44q-17 -20 -36 -5l-2 2q-4 2 -7.5 4t-8.5 3q-44 21 -90 24h-10q-21 1 -21 20v10q0 10 23 19q9 4 9 12v199q0 9 4 14t7 6q49 25 75 46q10 9 23 9q6 0 19 -5l18 -9l64 -20q18 -6 18 -26v-233zM204 442q-7 8 -7 23v24l2 -2
q-2 2 -2 165q0 15 -9 18l-45 14q-16 4 -22 18l-3 -2q7 -8 7 -23v-24l-2 2q2 -2 2 -165q0 -15 9 -18l46 -14q15 -5 21 -18z" />
    <glyph glyph-name="guillemotright" unicode="&#xbb;" horiz-adv-x="519" 
d="M484 197l-116 -169q-24 -28 -48 -28h-40q-24 0 -24 15q0 5 5 13l130 191q-32 47 -63.5 93t-63.5 93q-5 8 -5 15q0 18 23 18h37q26 0 52 -33q16 -22 43.5 -62.5t68.5 -100.5q9 -12 9 -23q0 -9 -8 -22zM263 197l-116 -169q-24 -28 -48 -28h-40q-24 0 -24 15q0 5 5 13
l130 191q-32 47 -63.5 93t-63.5 93q-5 8 -5 15q0 18 23 18h37q26 0 52 -33q16 -22 43.5 -62.5t68.5 -100.5q9 -12 9 -23q0 -9 -8 -22z" />
    <glyph glyph-name="onequarter" unicode="&#xbc;" horiz-adv-x="681" 
d="M629 188l-33 -50q-7 -13 -24 -13h-1q-5 1 -11 3t-11 4v-54q0 -17 11 -17q10 0 17 16t18 16q2 0 6 -2l5 -3q11 -6 5 -18l-26 -47q-10 -17 -20.5 -22.5t-28.5 -5.5t-28 10q-13 10 -23 15q-19 11 -33.5 15t-14.5 16v11q0 10 12 16q6 2 11.5 5t5.5 11v52q-10 2 -20 2
q-21 0 -34 -4q-39 -12 -43 -12q-16 0 -38 30q-10 13 1 33l125 238q10 22 33 22q14 0 28 -12q10 -12 20.5 -23.5t10.5 -33.5v-190q36 -16 44 -4l8 14q8 11 18 4l5 -3q12 -8 5 -19zM236 368l-30 -55q-4 -9 -13 -14q-10 -7 -22 -7q-17 0 -27 7l-14 9q-39 24 -54 25t-15 15v12
q0 10 20 18q9 4 9 14v279q0 12 -5 14q-6 0 -10 -3q-23 -18 -27 -18q-6 0 -10 4l-3 4q-9 10 2 19l5 4l56 47q14 11 24 11q20 0 26 -6q25 -24 25 -48v-322q0 -18 12 -18q8 0 13 6q13 25 22 25q2 0 6 -2l5 -2q12 -8 5 -18zM512 621l-376 -605q-10 -16 -27 -16h-30q-22 0 -10 19
l374 601q7 13 22 13h41q13 0 6 -12zM466 216v166l-100 -189l1 -2q25 28 76 28q12 0 23 -3z" />
    <glyph glyph-name="onehalf" unicode="&#xbd;" horiz-adv-x="681" 
d="M642 38q-18 -42 -63 -42q-6 0 -16 3t-21 6t-21 6t-16 3q-19 0 -32 -6q-26 -12 -39 -12q-25 0 -32 24q-4 11 -4 27q0 48 35 83l82 80q35 35 35 81v54q0 16 -9 19l-58 18q-17 5 -29 -6l-3 -3l-4 -3l-16 -14q-14 -9 -23 1l-4 4q-10 11 2 22l49 44q25 30 54 30q6 0 32 -9
q26 -10 47 -16.5t35 -11.5q18 -5 18 -30v-62q0 -47 -43 -89l-110 -109q-32 -32 -32 -56q0 -4 4 -13q19 25 62 25q6 0 15.5 -2t19.5 -4.5t19.5 -4.5t15.5 -2q18 0 44 14q4 2 7 2q15 0 15 -13q0 -3 -16 -38zM236 368l-30 -55q-4 -9 -13 -14q-10 -7 -22 -7q-17 0 -27 7l-14 9
q-39 24 -54 25t-15 15v12q0 10 20 18q9 4 9 14v279q0 12 -5 14q-6 0 -10 -3q-23 -18 -27 -18q-6 0 -10 4l-3 4q-9 10 2 19l5 4l56 47q14 11 24 11q20 0 26 -6q25 -24 25 -48v-322q0 -18 12 -18q8 0 13 6q13 25 22 25q2 0 6 -2l5 -2q12 -8 5 -18zM512 621l-376 -605
q-10 -16 -27 -16h-30q-22 0 -10 19l374 601q7 13 22 13h41q13 0 6 -12z" />
    <glyph glyph-name="threequarters" unicode="&#xbe;" horiz-adv-x="696" 
d="M669 188l-33 -50q-7 -13 -24 -13h-1q-5 1 -11 3t-11 4v-54q0 -17 11 -17q10 0 17 16t18 16q2 0 6 -2l5 -3q11 -6 5 -18l-26 -47q-10 -17 -20.5 -22.5t-28.5 -5.5t-28 10q-13 10 -23 15q-19 11 -33.5 15t-14.5 16v11q0 10 12 16q6 2 11.5 5t5.5 11v52q-10 2 -20 2
q-21 0 -34 -4q-39 -12 -43 -12q-16 0 -38 30q-10 13 1 33l125 238q10 22 33 22q14 0 28 -12q10 -12 20.5 -23.5t10.5 -33.5v-190q36 -16 44 -4l8 14q8 11 18 4l5 -3q12 -8 5 -19zM286 737q2 -14 -14 -25q-4 -3 -9 -9t-13 -14l-73 -81l41 -22q45 -24 57 -59q6 -17 6 -44v-102
q0 -20 -16 -27q-47 -19 -84 -53q-14 -12 -45 1q-23 10 -71 21q-39 9 -39 71q0 17 11.5 30.5t31.5 37.5q17 20 28 7q5 -7 1 -16q-5 -15 -5 -25v-17q0 -18 37 -31l55 -15q11 -3 15 -10l2 1q-7 10 -7 20v87q0 40 -18 58q-12 12 -56 31q-10 4 -10 16q0 7 6 15l89 98
q-30 -14 -66 -14q-9 0 -26.5 5t-26.5 5q-11 0 -47 -15q-4 -1 -10 0q-6 3 -6 8q0 4 1 5l16 37q18 41 62 41q15 0 47 -9q31 -9 47 -9q28 0 46.5 8t29.5 8t13 -14zM552 621l-376 -605q-10 -16 -27 -16h-30q-22 0 -10 19l374 601q7 13 22 13h41q13 0 6 -12zM506 216v166
l-100 -189l1 -2q25 28 76 28q12 0 23 -3z" />
    <glyph glyph-name="questiondown" unicode="&#xbf;" horiz-adv-x="479" 
d="M324 689q0 -28 -20 -48t-49 -20q-28 0 -48 20t-20 48t20 48t48 20q29 0 49 -20t20 -48zM419 132q13 -13 -4 -30l-74 -68q-47 -42 -107 -42q-73 0 -121 56q-43 50 -43 117q0 52 29 99q11 17 31.5 41.5t51.5 56.5q68 71 68 163v21l38 28q9 -38 9 -79q0 -74 -51 -144
q-59 -85 -59 -136q0 -25 8.5 -47t23.5 -38t35.5 -25t44.5 -9q42 0 70 25l20 18q7 6 13 4q4 0 11 -4z" />
    <glyph glyph-name="Agrave" unicode="&#xc0;" 
d="M372 817q-1 -5 -22 -18q-19 -12 -25 -10q-15 7 -26 21l-86 129q-10 15 -4 29q5 12 30 25q26 14 38 11q17 -5 24 -19l65 -132q10 -23 6 -36zM591 105l-87 -97q-15 -17 -31 -17q-15 0 -27 9q-6 4 -26.5 15.5t-55.5 30.5q-23 14 -23 55v206l-79 -90q-23 -26 -46 -26t-54 24
q-12 9 -18 -4l-28 -60q-11 -21 6 -35q11 -11 28 -18q12 -5 20 -4q13 1 21 11l25 28q15 16 28 6l8 -7q4 -4 6 -13q0 -7 -7 -15q-2 -4 -9 -11l-76 -84q-15 -17 -31 -17q-15 0 -26 8l-61 38q-13 9 -13 22q0 8 4 15l75 162q4 12 -3 21q-75 84 -75 212q0 119 71 204q70 85 172 85
q55 0 91 -18q25 -12 30 -29h13q4 17 19 31t35 14q52 0 52 -28q0 -13 -22 -17q-28 -4 -28 -48v-553q0 -30 27 -30q12 0 29 18l33 37q10 12 24 1l8 -6q14 -11 1 -26zM341 380v256l-11 10q0 -30 -13 -57l-123 -271q18 -7 47 -7q20 0 44 9q28 10 46 30q10 10 10 30zM284 608
q13 27 13 43q0 19 -17.5 26t-41.5 7q-68 0 -115 -59q-42 -54 -42 -128q0 -57 27 -105q23 -38 52 -57z" />
    <glyph glyph-name="Aacute" unicode="&#xc1;" 
d="M404 969q6 -14 -4 -29l-86 -129q-11 -15 -25 -21q-7 -2 -26 10q-21 13 -22 18q-4 12 7 35l64 132q8 16 24 20q12 3 38 -11q25 -13 30 -25zM591 105l-87 -97q-15 -17 -31 -17q-15 0 -27 9q-6 4 -26.5 15.5t-55.5 30.5q-23 14 -23 55v206l-79 -90q-23 -26 -46 -26t-54 24
q-12 9 -18 -4l-28 -60q-11 -21 6 -35q11 -11 28 -18q12 -5 20 -4q13 1 21 11l25 28q15 16 28 6l8 -7q4 -4 6 -13q0 -7 -7 -15q-2 -4 -9 -11l-76 -84q-15 -17 -31 -17q-15 0 -26 8l-61 38q-13 9 -13 22q0 8 4 15l75 162q4 12 -3 21q-75 84 -75 212q0 119 71 204q70 85 172 85
q55 0 91 -18q25 -12 30 -29h13q4 17 19 31t35 14q52 0 52 -28q0 -13 -22 -17q-28 -4 -28 -48v-553q0 -30 27 -30q12 0 29 18l33 37q10 12 24 1l8 -6q14 -11 1 -26zM341 380v256l-11 10q0 -30 -13 -57l-123 -271q18 -7 47 -7q20 0 44 9q28 10 46 30q10 10 10 30zM284 608
q13 27 13 43q0 19 -17.5 26t-41.5 7q-68 0 -115 -59q-42 -54 -42 -128q0 -57 27 -105q23 -38 52 -57z" />
    <glyph glyph-name="Acircumflex" unicode="&#xc2;" horiz-adv-x="595" 
d="M470 815q0 -9 -7.5 -17t-15.5 -8q-18 0 -34 12l-98 79h-15q-24 -23 -90 -72q-23 -19 -42 -19q-7 0 -14.5 9t-7.5 18q0 11 20 36l86 104q22 25 55 25q37 0 58 -25l86 -104q19 -18 19 -38zM585 105l-87 -97q-15 -17 -31 -17q-15 0 -27 9q-6 4 -26.5 15.5t-55.5 30.5
q-23 14 -23 55v206l-74 -90q-23 -27 -46 -27q-3 0 -6 0.5t-7 1.5q-22 7 -40 21q-11 9 -19 -5l-26 -57q-11 -21 6 -35q10 -10 28 -18q12 -5 20 -4q13 1 21 11l25 28q15 16 28 6l8 -7q6 -5 6 -13q0 -7 -7 -15q-2 -4 -9 -11l-76 -84q-15 -17 -31 -17q-15 0 -26 8l-60 38
q-14 9 -14 21q0 9 4 16l75 162q4 9 -3 18q-77 92 -77 215q0 119 71 204q70 85 172 85q50 0 86 -18q25 -12 31 -29h12q4 17 19 31t35 14q52 0 52 -28q0 -13 -21 -17q-29 -5 -29 -48v-553q0 -30 27 -30q12 0 29 18l33 37q11 12 25 1l7 -6q14 -11 1 -26zM335 376v265l-6 5
q0 -30 -13 -57l-122 -271q21 -7 46 -7q15 0 35 6q27 9 45 24q15 13 15 35zM283 608q13 27 13 43q0 19 -17.5 26t-41.5 7q-70 0 -115 -59q-42 -56 -42 -128q0 -56 27 -104q22 -39 52 -58z" />
    <glyph glyph-name="Atilde" unicode="&#xc3;" 
d="M456 891q0 -101 -71 -101q-34 0 -91 25q-56 25 -77 25q-16 0 -34 -18q-19 -17 -21 -17q-10 3 -10 17q0 39 18 66q20 32 57 32q27 0 83 -24q57 -23 84 -23q15 0 32 15q16 16 20 16q10 0 10 -13zM591 105l-87 -97q-15 -17 -31 -17q-15 0 -27 9q-6 4 -26.5 15.5t-55.5 30.5
q-23 14 -23 55v206l-79 -90q-23 -26 -46 -26t-54 24q-12 9 -18 -4l-28 -60q-11 -21 6 -35q11 -11 28 -18q12 -5 20 -4q13 1 21 11l25 28q15 16 28 6l8 -7q4 -4 6 -13q0 -7 -7 -15q-2 -4 -9 -11l-76 -84q-15 -17 -31 -17q-15 0 -26 8l-61 38q-13 9 -13 22q0 8 4 15l75 162
q4 12 -3 21q-75 84 -75 212q0 119 71 204q70 85 172 85q55 0 91 -18q25 -12 30 -29h13q4 17 19 31t35 14q52 0 52 -28q0 -13 -22 -17q-28 -4 -28 -48v-553q0 -30 27 -30q12 0 29 18l33 37q10 12 24 1l8 -6q14 -11 1 -26zM341 380v256l-11 10q0 -30 -13 -57l-123 -271
q18 -7 47 -7q20 0 44 9q28 10 46 30q10 10 10 30zM284 608q13 27 13 43q0 19 -17.5 26t-41.5 7q-68 0 -115 -59q-42 -54 -42 -128q0 -57 27 -105q23 -38 52 -57z" />
    <glyph glyph-name="Adieresis" unicode="&#xc4;" 
d="M466 847q0 -24 -17 -40.5t-40 -16.5t-39.5 16.5t-16.5 40.5q0 23 16.5 39t39.5 16t40 -16.5t17 -38.5zM269 847q0 -24 -17 -40.5t-40 -16.5t-39.5 16.5t-16.5 40.5q0 23 16.5 39t39.5 16t40 -16.5t17 -38.5zM591 105l-87 -97q-15 -17 -31 -17q-15 0 -27 9
q-6 4 -26.5 15.5t-55.5 30.5q-23 14 -23 55v206l-79 -90q-23 -26 -46 -26t-54 24q-12 9 -18 -4l-28 -60q-11 -21 6 -35q11 -11 28 -18q12 -5 20 -4q13 1 21 11l25 28q15 16 28 6l8 -7q4 -4 6 -13q0 -7 -7 -15q-2 -4 -9 -11l-76 -84q-15 -17 -31 -17q-15 0 -26 8l-61 38
q-13 9 -13 22q0 8 4 15l75 162q4 12 -3 21q-75 84 -75 212q0 119 71 204q70 85 172 85q55 0 91 -18q25 -12 30 -29h13q4 17 19 31t35 14q52 0 52 -28q0 -13 -22 -17q-28 -4 -28 -48v-553q0 -30 27 -30q12 0 29 18l33 37q10 12 24 1l8 -6q14 -11 1 -26zM341 380v256l-11 10
q0 -30 -13 -57l-123 -271q18 -7 47 -7q20 0 44 9q28 10 46 30q10 10 10 30zM284 608q13 27 13 43q0 19 -17.5 26t-41.5 7q-68 0 -115 -59q-42 -54 -42 -128q0 -57 27 -105q23 -38 52 -57z" />
    <glyph glyph-name="Aring" unicode="&#xc5;" 
d="M413 880q0 -38 -26.5 -64.5t-64.5 -26.5t-64.5 26.5t-26.5 64.5t26.5 64.5t64.5 26.5t64.5 -26.5t26.5 -64.5zM591 105l-87 -97q-15 -17 -31 -17q-15 0 -27 9q-6 4 -26.5 15.5t-55.5 30.5q-23 14 -23 55v206l-79 -90q-23 -26 -46 -26t-54 24q-12 9 -18 -4l-28 -60
q-11 -21 6 -35q11 -11 28 -18q12 -5 20 -4q13 1 21 11l25 28q15 16 28 6l8 -7q4 -4 6 -13q0 -7 -7 -15q-2 -4 -9 -11l-76 -84q-15 -17 -31 -17q-15 0 -26 8l-61 38q-13 9 -13 22q0 8 4 15l75 162q4 12 -3 21q-75 84 -75 212q0 119 71 204q70 85 172 85q55 0 91 -18
q25 -12 30 -29h13q4 17 19 31t35 14q52 0 52 -28q0 -13 -22 -17q-28 -4 -28 -48v-553q0 -30 27 -30q12 0 29 18l33 37q10 12 24 1l8 -6q14 -11 1 -26zM364 880q0 42 -42 42t-42 -42t42 -42t42 42zM341 380v256l-11 10q0 -30 -13 -57l-123 -271q18 -7 47 -7q20 0 44 9
q28 10 46 30q10 10 10 30zM284 608q13 27 13 43q0 19 -17.5 26t-41.5 7q-68 0 -115 -59q-42 -54 -42 -128q0 -57 27 -105q23 -38 52 -57z" />
    <glyph glyph-name="AE" unicode="&#xc6;" horiz-adv-x="839" 
d="M774 638l-18 -15q-19 -16 -49 -16t-52 18l-40 35l-8 -7q11 -14 11 -35v-199h10q9 27 38 27h92q18 0 18 -16q0 -9 -7 -16l-50 -53q-21 -22 -51 -22h-50v-31q0 -42 -27 -67q-3 -2 -12 -11q-8 -8 -23 -20.5t-38 -29.5q-25 -18 -32 -8l-4 5q-5 10 7 22t11 45v370q0 22 18 37
q37 29 64 52.5t46 40.5q16 16 31 16q19 0 33 -13q21 -20 39 -35t34 -23q21 -11 21 -28q0 -13 -12 -23zM786 79q-76 -91 -191 -91q-55 0 -100 19q-69 29 -110 85q-50 67 -50 156v54h1l-1 5l-74 -90q-23 -27 -46 -27q-3 0 -6 0.5t-7 1.5q-22 7 -40 21q-11 9 -19 -5l-26 -57
q-11 -21 6 -35q10 -10 28 -18q12 -5 20 -4q13 1 21 11l25 28q15 16 28 6l8 -7q6 -5 6 -13q0 -7 -7 -15q-2 -4 -9 -11l-76 -84q-15 -17 -31 -17q-15 0 -26 8l-60 38q-14 9 -14 21q0 9 4 16l75 162q4 9 -3 18q-77 92 -77 215q0 119 71 204q70 85 172 85q50 0 86 -18
q25 -12 31 -29h12q10 45 44 45q52 0 52 -28q0 -13 -21 -17q-29 -5 -29 -48v-426q0 -68 57 -119q58 -50 139 -50q65 0 115 35q8 5 15 5q15 0 15 -13q0 -7 -8 -17zM335 376v265l-6 5q0 -30 -13 -57l-122 -271q21 -7 46 -7q15 0 35 6q27 9 45 24q15 13 15 35zM283 608
q13 27 13 43q0 19 -17.5 26t-41.5 7q-70 0 -115 -59q-42 -56 -42 -128q0 -56 27 -104q22 -39 52 -58z" />
    <glyph glyph-name="Ccedilla" unicode="&#xc7;" horiz-adv-x="569" 
d="M509 638l-18 -15q-19 -16 -48 -16q-31 0 -53 18l-41 34l-6 -5q10 -13 10 -36v-310q0 -29 -10 -45l-29 -33q-8 -8 -23 -20.5t-38 -29.5q-25 -18 -32 -8l-4 5q-4 10 6 22q12 12 12 45v370q0 22 18 37q37 29 64.5 52.5t45.5 40.5q16 16 31 16q19 0 33 -13q21 -20 39 -35
t34 -23q21 -11 21 -28q0 -13 -12 -23zM521 79q-76 -91 -191 -91q-112 0 -187 78q-73 73 -73 177v261q0 108 75 182q62 61 140 70q15 1 15 -11q0 -8 -8 -11q-34 -13 -67 -55q-37 -46 -37 -98v-334q0 -71 56 -125q56 -53 140 -53q65 0 115 35q8 5 15 5q15 0 15 -13
q0 -7 -8 -17zM410 -97q0 -47 -44 -70q-35 -18 -85 -18q-36 0 -55 4q-8 2 -8 9q0 11 14 9q21 -3 27 -3q26 0 47 12q25 13 25 38q0 23 -22 35q-19 11 -42 11q-6 0 -7 3q-3 4 2 9l21 18q20 17 46 17q34 0 57.5 -20.5t23.5 -53.5z" />
    <glyph glyph-name="Egrave" unicode="&#xc8;" horiz-adv-x="574" 
d="M376 817q-1 -5 -22 -18q-19 -12 -25 -10q-15 7 -26 21l-86 129q-10 15 -4 29q5 12 30 25q26 14 38 11q17 -5 24 -19l65 -132q10 -23 6 -36zM509 638l-18 -15q-19 -16 -49 -16t-52 18l-40 35l-8 -7q11 -14 11 -35v-199h10q9 27 38 27h92q18 0 18 -16q0 -9 -7 -16l-50 -53
q-21 -22 -51 -22h-50v-31q0 -42 -27 -67q-3 -2 -12 -11q-8 -8 -23 -20.5t-38 -29.5q-25 -18 -32 -8l-4 5q-5 10 7 22t11 45v370q0 22 18 37q37 29 64 52.5t46 40.5q16 16 31 16q19 0 33 -13q21 -20 39 -35t34 -23q21 -11 21 -28q0 -13 -12 -23zM521 79q-76 -91 -191 -91
q-112 0 -187 78q-73 73 -73 177v261q0 108 75 182q62 61 140 70q15 1 15 -11q0 -8 -8 -11q-34 -13 -67 -55q-37 -46 -37 -98v-334q0 -71 56 -125q56 -53 140 -53q65 0 115 35q8 5 15 5q15 0 15 -13q0 -7 -8 -17z" />
    <glyph glyph-name="Eacute" unicode="&#xc9;" horiz-adv-x="574" 
d="M411 968q5 -15 -5 -29l-85 -128q-11 -15 -26 -21q-5 -3 -25 9q-21 13 -22 19q-4 13 6 35l65 132q7 14 24 19q12 3 38 -11q25 -13 30 -25zM509 638l-18 -15q-19 -16 -49 -16t-52 18l-40 35l-8 -7q11 -14 11 -35v-199h10q9 27 38 27h92q18 0 18 -16q0 -9 -7 -16l-50 -53
q-21 -22 -51 -22h-50v-31q0 -42 -27 -67q-3 -2 -12 -11q-8 -8 -23 -20.5t-38 -29.5q-25 -18 -32 -8l-4 5q-5 10 7 22t11 45v370q0 22 18 37q37 29 64 52.5t46 40.5q16 16 31 16q19 0 33 -13q21 -20 39 -35t34 -23q21 -11 21 -28q0 -13 -12 -23zM521 79q-76 -91 -191 -91
q-112 0 -187 78q-73 73 -73 177v261q0 108 75 182q62 61 140 70q15 1 15 -11q0 -8 -8 -11q-34 -13 -67 -55q-37 -46 -37 -98v-334q0 -71 56 -125q56 -53 140 -53q65 0 115 35q8 5 15 5q15 0 15 -13q0 -7 -8 -17z" />
    <glyph glyph-name="Ecircumflex" unicode="&#xca;" horiz-adv-x="574" 
d="M463 815q0 -9 -7.5 -17t-15.5 -8q-18 0 -34 12l-98 79h-15q-24 -23 -90 -72q-23 -19 -42 -19q-7 0 -14.5 9t-7.5 18q0 11 20 36l86 104q22 25 55 25q37 0 58 -25l86 -104q19 -18 19 -38zM509 638l-18 -15q-19 -16 -49 -16t-52 18l-40 35l-8 -7q11 -14 11 -35v-199h10
q9 27 38 27h92q18 0 18 -16q0 -9 -7 -16l-50 -53q-21 -22 -51 -22h-50v-31q0 -42 -27 -67q-3 -2 -12 -11q-8 -8 -23 -20.5t-38 -29.5q-25 -18 -32 -8l-4 5q-5 10 7 22t11 45v370q0 22 18 37q37 29 64 52.5t46 40.5q16 16 31 16q19 0 33 -13q21 -20 39 -35t34 -23
q21 -11 21 -28q0 -13 -12 -23zM521 79q-76 -91 -191 -91q-112 0 -187 78q-73 73 -73 177v261q0 108 75 182q62 61 140 70q15 1 15 -11q0 -8 -8 -11q-34 -13 -67 -55q-37 -46 -37 -98v-334q0 -71 56 -125q56 -53 140 -53q65 0 115 35q8 5 15 5q15 0 15 -13q0 -7 -8 -17z" />
    <glyph glyph-name="Edieresis" unicode="&#xcb;" horiz-adv-x="574" 
d="M458 847q0 -24 -16.5 -40.5t-40.5 -16.5q-23 0 -39.5 16.5t-16.5 40.5q0 23 16.5 39t39.5 16t40 -16.5t17 -38.5zM261 847q0 -24 -17 -40.5t-40 -16.5t-39.5 16.5t-16.5 40.5q0 23 16.5 39t39.5 16t40 -16.5t17 -38.5zM509 638l-18 -15q-19 -16 -49 -16t-52 18l-40 35
l-8 -7q11 -14 11 -35v-199h10q9 27 38 27h92q18 0 18 -16q0 -9 -7 -16l-50 -53q-21 -22 -51 -22h-50v-31q0 -42 -27 -67q-3 -2 -12 -11q-8 -8 -23 -20.5t-38 -29.5q-25 -18 -32 -8l-4 5q-5 10 7 22t11 45v370q0 22 18 37q37 29 64 52.5t46 40.5q16 16 31 16q19 0 33 -13
q21 -20 39 -35t34 -23q21 -11 21 -28q0 -13 -12 -23zM521 79q-76 -91 -191 -91q-112 0 -187 78q-73 73 -73 177v261q0 108 75 182q62 61 140 70q15 1 15 -11q0 -8 -8 -11q-34 -13 -67 -55q-37 -46 -37 -98v-334q0 -71 56 -125q56 -53 140 -53q65 0 115 35q8 5 15 5
q15 0 15 -13q0 -7 -8 -17z" />
    <glyph glyph-name="Igrave" unicode="&#xcc;" horiz-adv-x="540" 
d="M338 817q-1 -5 -22 -18q-19 -12 -25 -10q-15 7 -26 21l-86 129q-10 15 -4 29q5 12 30 25q26 14 38 11q17 -5 24 -19l65 -132q10 -23 6 -36zM351 750q5 -9 -6 -17q-20 -17 -35 -53q-17 -42 -17 -83v-323q0 -28 -35 -63l-77 -75q-6 -6 -11 -6q-8 0 -8 8q0 6 4 10l5 8
q13 20 13 60v293q0 88 49 146l-9 11q-29 -13 -52 -13q-18 0 -31 4.5t-33 4.5q-28 0 -60 -19q-6 -3 -9 -3q-9 1 -9 10q0 8 9 20l26 37q34 49 78 49q11 0 36 -7q28 -6 45 -6q68 0 107 11q3 2 12 4l4 -3zM470 750q2 -4 -2 -11t-8 -13q-8 -16 -8 -39l1 -501q0 -51 -28 -70
q-11 -7 -24.5 -18.5t-30.5 -28.5q-38 -36 -55 -63q-7 -13 -22 -13q-7 0 -37 8q-48 14 -97 14q-52 0 -84 -13q-4 -1 -18 -8q-7 -3 -13 1.5t-6 10.5v7q0 8 23 31l25 24q10 10 23 18t24 12q27 10 54 10q50 0 106 -9q34 -6 45 -18l11 11q-11 14 -11 39v452q0 71 34 117
q19 27 54 45q24 11 36 11q3 0 5 -2z" />
    <glyph glyph-name="Iacute" unicode="&#xcd;" horiz-adv-x="540" 
d="M373 969q5 -16 -5 -30l-86 -128q-9 -15 -25 -21q-5 -2 -26 10q-21 13 -22 18q-4 12 7 35l65 132q8 16 24 20q12 3 37 -12q27 -14 31 -24zM351 750q5 -9 -6 -17q-20 -17 -35 -53q-17 -42 -17 -83v-323q0 -28 -35 -63l-77 -75q-6 -6 -11 -6q-8 0 -8 8q0 6 4 10l5 8
q13 20 13 60v293q0 88 49 146l-9 11q-29 -13 -52 -13q-18 0 -31 4.5t-33 4.5q-28 0 -60 -19q-6 -3 -9 -3q-9 1 -9 10q0 8 9 20l26 37q34 49 78 49q11 0 36 -7q28 -6 45 -6q68 0 107 11q3 2 12 4l4 -3zM470 750q2 -4 -2 -11t-8 -13q-8 -16 -8 -39l1 -501q0 -51 -28 -70
q-11 -7 -24.5 -18.5t-30.5 -28.5q-38 -36 -55 -63q-7 -13 -22 -13q-7 0 -37 8q-48 14 -97 14q-52 0 -84 -13q-4 -1 -18 -8q-7 -3 -13 1.5t-6 10.5v7q0 8 23 31l25 24q10 10 23 18t24 12q27 10 54 10q50 0 106 -9q34 -6 45 -18l11 11q-11 14 -11 39v452q0 71 34 117
q19 27 54 45q24 11 36 11q3 0 5 -2z" />
    <glyph glyph-name="Icircumflex" unicode="&#xce;" horiz-adv-x="540" 
d="M439 813q0 -9 -7.5 -17t-15.5 -8q-18 0 -34 12l-98 79h-15q-24 -23 -90 -72q-23 -19 -41 -19q-8 0 -15.5 9t-7.5 18q0 11 20 36l86 104q24 25 55 25q39 0 58 -25l86 -104q19 -18 19 -38zM351 750q5 -9 -6 -17q-20 -17 -35 -53q-17 -42 -17 -83v-323q0 -28 -35 -63
l-77 -75q-6 -6 -11 -6q-8 0 -8 8q0 6 4 10l5 8q13 20 13 60v293q0 88 49 146l-9 11q-29 -13 -52 -13q-18 0 -31 4.5t-33 4.5q-28 0 -60 -19q-6 -3 -9 -3q-9 1 -9 10q0 8 9 20l26 37q34 49 78 49q11 0 36 -7q28 -6 45 -6q68 0 107 11q3 2 12 4l4 -3zM470 750q2 -4 -2 -11
t-8 -13q-8 -16 -8 -39l1 -501q0 -51 -28 -70q-11 -7 -24.5 -18.5t-30.5 -28.5q-38 -36 -55 -63q-7 -13 -22 -13q-7 0 -37 8q-48 14 -97 14q-52 0 -84 -13q-4 -1 -18 -8q-7 -3 -13 1.5t-6 10.5v7q0 8 23 31l25 24q10 10 23 18t24 12q27 10 54 10q50 0 106 -9q34 -6 45 -18
l11 11q-11 14 -11 39v452q0 71 34 117q19 27 54 45q24 11 36 11q3 0 5 -2z" />
    <glyph glyph-name="Idieresis" unicode="&#xcf;" horiz-adv-x="540" 
d="M416 847q0 -24 -16.5 -40.5t-40.5 -16.5q-23 0 -39.5 16.5t-16.5 40.5q0 23 16.5 39t39.5 16t40 -16.5t17 -38.5zM219 847q0 -24 -17 -40.5t-40 -16.5t-39.5 16.5t-16.5 40.5q0 23 16.5 39t39.5 16t40 -16.5t17 -38.5zM351 750q5 -9 -6 -17q-20 -17 -35 -53
q-17 -42 -17 -83v-323q0 -28 -35 -63l-77 -75q-6 -6 -11 -6q-8 0 -8 8q0 6 4 10l5 8q13 20 13 60v293q0 88 49 146l-9 11q-29 -13 -52 -13q-18 0 -31 4.5t-33 4.5q-28 0 -60 -19q-6 -3 -9 -3q-9 1 -9 10q0 8 9 20l26 37q34 49 78 49q11 0 36 -7q28 -6 45 -6q68 0 107 11
q3 2 12 4l4 -3zM470 750q2 -4 -2 -11t-8 -13q-8 -16 -8 -39l1 -501q0 -51 -28 -70q-11 -7 -24.5 -18.5t-30.5 -28.5q-38 -36 -55 -63q-7 -13 -22 -13q-7 0 -37 8q-48 14 -97 14q-52 0 -84 -13q-4 -1 -18 -8q-7 -3 -13 1.5t-6 10.5v7q0 8 23 31l25 24q10 10 23 18t24 12
q27 10 54 10q50 0 106 -9q34 -6 45 -18l11 11q-11 14 -11 39v452q0 71 34 117q19 27 54 45q24 11 36 11q3 0 5 -2z" />
    <glyph glyph-name="Eth" unicode="&#xd0;" 
d="M536 596v-464q0 -29 -24 -39q-48 -23 -83.5 -47t-61.5 -48q-10 -8 -24 -8q-22 0 -36 14q-30 22 -99 39q-63 16 -111 16h-17q-10 0 -18.5 7t-8.5 18v17q0 21 24 27q1 1 9 3q19 6 19 32v190h-63q-9 0 -12 12q-5 21 0 38q4 12 12 12h63l-1 223q0 18 -9 18q-8 0 -16 -7l-2 -2
l-31 -25q-9 -8 -24 0l-7 9q-12 14 2 25l8 7l95 79q21 18 37 18q20 0 30 -10q18 -18 27 -31q6 -6 12 -24v-11l88 66q11 8 26 8q22 0 42 -15l122 -88q32 -23 32 -59zM416 86q-12 16 -12 36v414q0 47 -21 62l-77 54q-14 10 -25 10t-24 -10l-31 -23v-214h85q9 0 12 -12
q5 -20 0 -38q-2 -12 -12 -12h-85v-200q0 -26 23 -26q73 0 130 -25q22 -9 29 -21z" />
    <glyph glyph-name="Ntilde" unicode="&#xd1;" horiz-adv-x="632" 
d="M461 891q0 -101 -71 -101q-34 0 -91 25q-56 25 -77 25q-16 0 -34 -18q-19 -17 -21 -17q-10 3 -10 17q0 39 18 66q20 32 57 32q27 0 83 -24q57 -23 84 -23q15 0 32 15q16 16 20 16q10 0 10 -13zM577 103q0 -7 -40 -80q-12 -21 -32 -21q-17 0 -39 7t-29 7q-15 0 -45 -13
l-1 1q-5 -4 -14 -4q-23 0 -23 21q0 10 19 52l24 54q64 170 64 286q0 76 -40 147q-47 84 -118 84q-7 0 -13 -6l-49 -49q-11 -14 -11 -26v-416q0 -26 20 -40t20 -26q0 -13 -35 -66q-17 -24 -31 -24q-11 0 -37 20q-40 31 -56 39q-29 15 -29 30q0 5 10.5 22t10.5 41v488
q0 24 -11 24q-6 0 -13 -6l-33 -27q-15 -11 -25 2l-6 7q-12 14 2 26l99 82q22 19 37 19q26 0 40 -11q9 -7 28 -34q9 -14 9 -43v-30l108 108q10 10 24 10q10 0 13 -1q195 -51 195 -256q0 -91 -40 -202q-13 -34 -34 -81.5t-51 -109.5l5 -5q14 11 29 11q7 0 23.5 -6.5t28.5 -6.5
q-3 0 32 15q10 2 14 -13z" />
    <glyph glyph-name="Ograve" unicode="&#xd2;" horiz-adv-x="597" 
d="M378 817q-1 -5 -22 -18q-19 -12 -25 -10q-15 7 -26 21l-86 129q-10 15 -4 29q5 12 30 25q26 14 38 11q17 -5 24 -19l65 -132q10 -23 6 -36zM527 296q0 -77 -49 -123q-35 -32 -66 -51q-8 -3 -13 -3q-15 0 -15 14q0 6 4 13q12 19 12 55v340q0 63 -45 105q-44 43 -110 43
q-64 0 -111 -46q-29 -27 -38 -27q-16 0 -16 16q0 10 7 20q32 45 76 71q59 34 132 34q96 0 164 -68t68 -160v-233zM510 97q-32 -45 -76 -71q-59 -34 -131 -34q-98 0 -166 68q-67 67 -67 160v233q0 77 49 123q34 31 66 51q7 3 13 3q15 0 15 -14q0 -6 -4 -13q-12 -20 -12 -55
v-340q0 -63 45 -106q45 -42 110 -42q64 0 111 46q28 27 38 27q16 0 16 -16q0 -10 -7 -20z" />
    <glyph glyph-name="Oacute" unicode="&#xd3;" horiz-adv-x="597" 
d="M395 969q5 -16 -5 -30l-86 -128q-9 -15 -25 -21q-5 -2 -26 10q-21 13 -22 18q-4 12 7 35l65 132q8 16 24 20q12 3 37 -12q27 -14 31 -24zM527 296q0 -77 -49 -123q-35 -32 -66 -51q-8 -3 -13 -3q-15 0 -15 14q0 6 4 13q12 19 12 55v340q0 63 -45 105q-44 43 -110 43
q-64 0 -111 -46q-29 -27 -38 -27q-16 0 -16 16q0 10 7 20q32 45 76 71q59 34 132 34q96 0 164 -68t68 -160v-233zM510 97q-32 -45 -76 -71q-59 -34 -131 -34q-98 0 -166 68q-67 67 -67 160v233q0 77 49 123q34 31 66 51q7 3 13 3q15 0 15 -14q0 -6 -4 -13q-12 -20 -12 -55
v-340q0 -63 45 -106q45 -42 110 -42q64 0 111 46q28 27 38 27q16 0 16 -16q0 -10 -7 -20z" />
    <glyph glyph-name="Ocircumflex" unicode="&#xd4;" horiz-adv-x="597" 
d="M456 814q0 -9 -7.5 -17t-15.5 -8q-18 0 -34 12l-98 79h-15q-24 -23 -90 -72q-23 -19 -42 -19q-7 0 -14.5 9t-7.5 18q0 11 20 36l86 104q22 25 55 25q37 0 58 -25l86 -104q19 -18 19 -38zM527 296q0 -77 -49 -123q-35 -32 -66 -51q-8 -3 -13 -3q-15 0 -15 14q0 6 4 13
q12 19 12 55v340q0 63 -45 105q-44 43 -110 43q-64 0 -111 -46q-29 -27 -38 -27q-16 0 -16 16q0 10 7 20q32 45 76 71q59 34 132 34q96 0 164 -68t68 -160v-233zM510 97q-32 -45 -76 -71q-59 -34 -131 -34q-98 0 -166 68q-67 67 -67 160v233q0 77 49 123q34 31 66 51
q7 3 13 3q15 0 15 -14q0 -6 -4 -13q-12 -20 -12 -55v-340q0 -63 45 -106q45 -42 110 -42q64 0 111 46q28 27 38 27q16 0 16 -16q0 -10 -7 -20z" />
    <glyph glyph-name="Otilde" unicode="&#xd5;" horiz-adv-x="597" 
d="M457 890q0 -101 -71 -101q-34 0 -91 25q-56 25 -77 25q-16 0 -34 -18q-19 -17 -21 -17q-10 3 -10 17q0 39 18 66q20 32 57 32q27 0 83 -24q57 -23 84 -23q15 0 32 15q16 16 20 16q10 0 10 -13zM527 296q0 -77 -49 -123q-35 -32 -66 -51q-8 -3 -13 -3q-15 0 -15 14
q0 6 4 13q12 19 12 55v340q0 63 -45 105q-44 43 -110 43q-64 0 -111 -46q-29 -27 -38 -27q-16 0 -16 16q0 10 7 20q32 45 76 71q59 34 132 34q96 0 164 -68t68 -160v-233zM510 97q-32 -45 -76 -71q-59 -34 -131 -34q-98 0 -166 68q-67 67 -67 160v233q0 77 49 123
q34 31 66 51q7 3 13 3q15 0 15 -14q0 -6 -4 -13q-12 -20 -12 -55v-340q0 -63 45 -106q45 -42 110 -42q64 0 111 46q28 27 38 27q16 0 16 -16q0 -10 -7 -20z" />
    <glyph glyph-name="Odieresis" unicode="&#xd6;" horiz-adv-x="597" 
d="M451 847q0 -24 -17 -40.5t-40 -16.5t-39.5 16.5t-16.5 40.5q0 23 16.5 39t39.5 16t40 -16.5t17 -38.5zM254 847q0 -24 -17 -40.5t-40 -16.5t-39.5 16.5t-16.5 40.5q0 23 16.5 39t39.5 16t40 -16.5t17 -38.5zM527 296q0 -77 -49 -123q-35 -32 -66 -51q-8 -3 -13 -3
q-15 0 -15 14q0 6 4 13q12 19 12 55v340q0 63 -45 105q-44 43 -110 43q-64 0 -111 -46q-29 -27 -38 -27q-16 0 -16 16q0 10 7 20q32 45 76 71q59 34 132 34q96 0 164 -68t68 -160v-233zM510 97q-32 -45 -76 -71q-59 -34 -131 -34q-98 0 -166 68q-67 67 -67 160v233
q0 77 49 123q34 31 66 51q7 3 13 3q15 0 15 -14q0 -6 -4 -13q-12 -20 -12 -55v-340q0 -63 45 -106q45 -42 110 -42q64 0 111 46q28 27 38 27q16 0 16 -16q0 -10 -7 -20z" />
    <glyph glyph-name="Oslash" unicode="&#xd8;" horiz-adv-x="597" 
d="M527 296q0 -77 -49 -123q-35 -32 -66 -51q-8 -3 -13 -3q-15 0 -15 14q0 6 4 13q12 19 12 55v340q0 7 -0.5 13t-1.5 12l-159 -460q45 -46 113 -46q64 0 111 46q28 27 38 27q16 0 16 -16q0 -10 -7 -20q-32 -45 -76 -71q-59 -34 -131 -34q-50 0 -96 20l-16 -45
q-8 -21 -26 -21h-29q-20 0 -13 22l28 80q-81 69 -81 172v233q0 77 49 123q30 27 69 51q7 3 12 3q13 0 13 -12q0 -8 -4 -15q-12 -20 -12 -55v-340q0 -5 0.5 -10.5t1.5 -10.5l158 459q-43 43 -109 43q-64 0 -111 -46q-29 -27 -40 -27q-14 0 -14 15q0 11 7 21q32 45 76 71
q59 34 132 34q49 0 91 -19l13 38q6 18 24 18h31q21 0 13 -20l-24 -71q81 -68 81 -174v-233z" />
    <glyph glyph-name="Ugrave" unicode="&#xd9;" horiz-adv-x="650" 
d="M392 817q-1 -5 -22 -18q-19 -12 -25 -10q-15 7 -26 21l-86 129q-10 15 -4 29q5 12 30 25q26 14 38 11q17 -5 24 -19l65 -132q10 -23 6 -36zM422 494v-41v41zM635 122q12 -13 -2 -25l-96 -87q-21 -18 -40 -18q-23 0 -37 11q-10 7 -28 34q-10 13 -10 43v38h-8
q-2 -19 -24 -41l-75 -75q-11 -11 -31 -11q-1 1 -2 1q-3 0 -5 1q-50 13 -89 38t-67 60.5t-42.5 79t-14.5 94.5q0 89 39 196q21 55 83 184l-4 5q-13 -10 -30 -10q-6 0 -22.5 6t-28.5 6q-7 0 -18.5 -7.5t-14.5 -7.5q-13 0 -13 13q0 7 40 80q12 22 32 22q17 0 39 -7t28 -7
q13 0 45 12q9 3 16 3q23 0 23 -21q0 -9 -18 -51l-24 -59q-35 -97 -45 -136q-20 -78 -20 -149q0 -73 52 -149q57 -82 127 -82q6 0 12 6l50 49q10 11 10 26v448q0 16 -11 16q-7 0 -14 -7l-19 -17q-1 -1 -4 -3.5t-8 -6.5q-14 -12 -26 1l-6 7q-12 13 2 25l20 18l80 73
q16 16 41 16q22 0 33 -9q15 -16 29 -35q9 -12 9 -40v-49q1 -2 1 -7v-492q0 -21 17 -21q8 0 25 15l12 11q14 12 26 -1z" />
    <glyph glyph-name="Uacute" unicode="&#xda;" horiz-adv-x="650" 
d="M437 969q6 -14 -4 -29l-86 -129q-11 -15 -25 -21q-7 -2 -26 10q-21 13 -22 18q-4 12 7 35l64 132q8 16 24 20q12 3 38 -11q25 -13 30 -25zM422 494v-41v41zM635 122q12 -13 -2 -25l-96 -87q-21 -18 -40 -18q-23 0 -37 11q-10 7 -28 34q-10 13 -10 43v38h-8
q-2 -19 -24 -41l-75 -75q-11 -11 -31 -11q-1 1 -2 1q-3 0 -5 1q-50 13 -89 38t-67 60.5t-42.5 79t-14.5 94.5q0 89 39 196q21 55 83 184l-4 5q-13 -10 -30 -10q-6 0 -22.5 6t-28.5 6q-7 0 -18.5 -7.5t-14.5 -7.5q-13 0 -13 13q0 7 40 80q12 22 32 22q17 0 39 -7t28 -7
q13 0 45 12q9 3 16 3q23 0 23 -21q0 -9 -18 -51l-24 -59q-35 -97 -45 -136q-20 -78 -20 -149q0 -73 52 -149q57 -82 127 -82q6 0 12 6l50 49q10 11 10 26v448q0 16 -11 16q-7 0 -14 -7l-19 -17q-1 -1 -4 -3.5t-8 -6.5q-14 -12 -26 1l-6 7q-12 13 2 25l20 18l80 73
q16 16 41 16q22 0 33 -9q15 -16 29 -35q9 -12 9 -40v-49q1 -2 1 -7v-492q0 -21 17 -21q8 0 25 15l12 11q14 12 26 -1z" />
    <glyph glyph-name="Ucircumflex" unicode="&#xdb;" horiz-adv-x="650" 
d="M493 815q0 -9 -7.5 -17t-15.5 -8q-18 0 -34 12l-98 79h-15q-24 -23 -90 -72q-23 -19 -42 -19q-7 0 -14.5 9t-7.5 18q0 11 20 36l86 104q22 25 55 25q37 0 58 -25l86 -104q19 -18 19 -38zM422 494v-41v41zM635 122q12 -13 -2 -25l-96 -87q-21 -18 -40 -18q-23 0 -37 11
q-10 7 -28 34q-10 13 -10 43v38h-8q-2 -19 -24 -41l-75 -75q-11 -11 -31 -11q-1 1 -2 1q-3 0 -5 1q-50 13 -89 38t-67 60.5t-42.5 79t-14.5 94.5q0 89 39 196q21 55 83 184l-4 5q-13 -10 -30 -10q-6 0 -22.5 6t-28.5 6q-7 0 -18.5 -7.5t-14.5 -7.5q-13 0 -13 13q0 7 40 80
q12 22 32 22q17 0 39 -7t28 -7q13 0 45 12q9 3 16 3q23 0 23 -21q0 -9 -18 -51l-24 -59q-35 -97 -45 -136q-20 -78 -20 -149q0 -73 52 -149q57 -82 127 -82q6 0 12 6l50 49q10 11 10 26v448q0 16 -11 16q-7 0 -14 -7l-19 -17q-1 -1 -4 -3.5t-8 -6.5q-14 -12 -26 1l-6 7
q-12 13 2 25l20 18l80 73q16 16 41 16q22 0 33 -9q15 -16 29 -35q9 -12 9 -40v-49q1 -2 1 -7v-492q0 -21 17 -21q8 0 25 15l12 11q14 12 26 -1z" />
    <glyph glyph-name="Udieresis" unicode="&#xdc;" horiz-adv-x="650" 
d="M487 847q0 -24 -17 -40.5t-40 -16.5t-39.5 16.5t-16.5 40.5q0 23 16.5 39t39.5 16t40 -16.5t17 -38.5zM290 847q0 -24 -17 -40.5t-40 -16.5t-39.5 16.5t-16.5 40.5q0 23 16.5 39t39.5 16t40 -16.5t17 -38.5zM422 494v-41v41zM635 122q12 -13 -2 -25l-96 -87
q-21 -18 -40 -18q-23 0 -37 11q-10 7 -28 34q-10 13 -10 43v38h-8q-2 -19 -24 -41l-75 -75q-11 -11 -31 -11q-1 1 -2 1q-3 0 -5 1q-50 13 -89 38t-67 60.5t-42.5 79t-14.5 94.5q0 89 39 196q21 55 83 184l-4 5q-13 -10 -30 -10q-6 0 -22.5 6t-28.5 6q-7 0 -18.5 -7.5
t-14.5 -7.5q-13 0 -13 13q0 7 40 80q12 22 32 22q17 0 39 -7t28 -7q13 0 45 12q9 3 16 3q23 0 23 -21q0 -9 -18 -51l-24 -59q-35 -97 -45 -136q-20 -78 -20 -149q0 -73 52 -149q57 -82 127 -82q6 0 12 6l50 49q10 11 10 26v448q0 16 -11 16q-7 0 -14 -7l-19 -17
q-1 -1 -4 -3.5t-8 -6.5q-14 -12 -26 1l-6 7q-12 13 2 25l20 18l80 73q16 16 41 16q22 0 33 -9q15 -16 29 -35q9 -12 9 -40v-49q1 -2 1 -7v-492q0 -21 17 -21q8 0 25 15l12 11q14 12 26 -1z" />
    <glyph glyph-name="Yacute" unicode="&#xdd;" horiz-adv-x="641" 
d="M417 967q6 -14 -4 -29l-86 -129q-11 -15 -25 -21q-7 -2 -26 10q-21 13 -22 18q-4 12 7 35l64 132q8 16 24 20q12 3 38 -11q25 -13 30 -25zM422 494v-41v41zM598 8q2 -22 -17 -52l-77 -136q-9 -16 -30 -16q-10 0 -18 4q-14 5 -39.5 12t-61.5 16q-59 10 -114 6
q-69 -4 -107 -33q-5 -3 -10 -3q-21 0 -21 39q0 40 31 68l131 117q-99 19 -152 85q-50 62 -50 150t39 195q20 58 81 184l-4 4q-11 -8 -30 -8q-6 0 -21 6t-27 6q-5 0 -17.5 -7t-17.5 -7q-13 0 -11 12q0 8 40 81q12 21 32 21q13 0 37 -8q21 -7 27 -7q18 0 47 12q12 5 17 5
q23 0 23 -23q0 -9 -19 -53l-24 -56q-17 -48 -28 -82t-16 -54q-20 -78 -20 -149q0 -175 197 -214l43 40q11 13 11 24v449q0 16 -11 16q-6 0 -13 -6l-30 -27q-13 -12 -25 1l-6 7q-12 13 1 25l85 77l6 3l7 7q18 18 42 18q21 0 30 -9q7 -7 15 -15.5t16 -19.5t8 -28v-576
q0 -44 21 -62l14 -12q14 -12 16 -27zM524 -64q7 13 -8 25l-62 52q-33 27 -33 60v43h-10l-205 -186l9 -11q46 37 119 37q67 0 163 -37q15 -5 21 7z" />
    <glyph glyph-name="Thorn" unicode="&#xde;" horiz-adv-x="588" 
d="M538 347q0 -56 -36 -75q-17 -10 -29.5 -16.5t-19.5 -11.5q-34 -19 -48 -35q-24 -26 -44 -26q-16 0 -35 18q-39 38 -86 33q-15 -2 -15 -17v-89q0 -31 19 -43q25 -14 38 -4l27 33q11 14 25 3l7 -6q14 -11 3 -25l-6 -8q-11 -14 -25.5 -32t-32.5 -39q-17 -20 -35 -20
q-11 0 -18 5l-16 12l-59 33q-17 8 -31 14t-25 8h-18q-10 0 -18.5 7t-8.5 18v17q0 21 24 27q1 1 9 3q19 6 19 32v122q0 15 -24 23q-12 4 -12 14q0 14 10 21q26 21 26 36v308q0 18 -11 18q-8 0 -15 -7l-31 -26q-15 -11 -25 2l-6 7q-12 14 2 26l2 1l4 4l4 4l91 76q22 18 38 18
q20 0 29 -10q18 -18 27 -31q6 -6 12 -24l1 -143l137 107q10 9 29 9q23 0 40 -16l79 -75q22 -20 26 -53q1 -7 1.5 -21t0.5 -35v-171zM428 270q-9 15 -9 62v179q0 20 -15 34l-59 56q-16 16 -26 16q-8 0 -19 -8l-62 -48q-13 -10 -13 -30v-206q0 -15 15 -10q34 12 62 12
q58 0 92 -34q18 -18 22 -30z" />
    <glyph glyph-name="germandbls" unicode="&#xdf;" horiz-adv-x="528" 
d="M458 143q0 -74 -49 -127q-14 -15 -50 -42t-96 -67q-8 -5 -14 -5q-13 0 -13 13q0 7 6 12q98 95 98 179v137q0 67 -28 99l-21 25q-16 19 -33 4l-13 -11q-9 -8 -17 3l-10 14q-8 12 5 22l73 56q26 20 26 52v74q0 25 -22 35l-101 49l-11 -8q10 -11 10 -38v-477q0 -24 15 -36
l16 -13q13 -10 13 -22q0 -9 -6 -16l-39 -45q-15 -18 -33 -18q-13 0 -23 10q-26 22 -43 36t-26 19q-22 13 -22 27q0 4 10 15.5t10 29.5v456q0 44 26 64q9 7 38 29.5t79 62.5q19 16 33 16q19 0 53 -19q5 -3 13 -7q7 -3 16 -8t23 -11q13 -7 28.5 -14t32.5 -15q27 -14 27 -45
v-74q0 -42 -18 -58l-47 -40q-17 -15 -17 -26q0 -12 20 -17q26 -6 52 -39q29 -40 29 -107v-134z" />
    <glyph glyph-name="agrave" unicode="&#xe0;" horiz-adv-x="522" 
d="M325 671q-1 -6 -23 -18q-19 -12 -25 -10q-15 6 -26 21l-85 128q-10 14 -5 30q4 10 30 24q26 15 38 12q16 -4 24 -20l65 -132q11 -23 7 -35zM512 80l-66 -66q-16 -16 -42 -16q-23 0 -39 13l-53 41q-23 17 -18 41l-12 5q-6 -24 -33 -39l-93 -53q-14 -8 -28 -8q-33 0 -46 36
q-14 36 -28 71.5t-14 74.5q0 57 22 101t64 74q21 15 31 58q2 11 3.5 18.5t1.5 12.5q0 10 -6 30q-9 29 -30 29q-7 0 -26 -6q-18 -6 -21 -6q-14 0 -18 15q-2 4 -2.5 8t-1.5 8q-3 18 18 22l25 4q45 9 69 44q10 15 27 15q11 0 27 -8q8 -4 25.5 -10t46.5 -16q44 -14 58 -14
q15 0 41 23q8 8 16.5 16t17.5 8t12 -3.5t10 -11.5q8 -11 -5 -24q-29 -29 -29 -50v-393q0 -44 24 -44q8 0 20 12l20 20q13 12 26 0l6 -7q5 -5 5 -12q0 -8 -5 -13zM288 332v128q0 24 -20 33q-42 19 -63 19q-28 0 -28 -8q0 -5 3 -9q13 -27 13 -51q0 -10 -5 -28l-6 -24
q-5 -32 19 -41q8 -2 29.5 -7t57.5 -12zM288 167v119q-98 20 -104 20q-20 0 -30 -33q-8 -27 -8 -49q0 -35 17 -81q20 -50 40 -50q6 0 59 28q26 14 26 46z" />
    <glyph glyph-name="aacute" unicode="&#xe1;" horiz-adv-x="522" 
d="M365 822q5 -16 -5 -30l-86 -128q-9 -15 -25 -21q-5 -2 -26 10q-21 13 -22 18q-4 12 7 35l65 132q8 16 24 20q12 3 37 -12q27 -14 31 -24zM512 80l-66 -66q-16 -16 -42 -16q-23 0 -39 13l-53 41q-23 17 -18 41l-12 5q-6 -24 -33 -39l-93 -53q-14 -8 -28 -8q-33 0 -46 36
q-14 36 -28 71.5t-14 74.5q0 57 22 101t64 74q21 15 31 58q2 11 3.5 18.5t1.5 12.5q0 10 -6 30q-9 29 -30 29q-7 0 -26 -6q-18 -6 -21 -6q-14 0 -18 15q-2 4 -2.5 8t-1.5 8q-3 18 18 22l25 4q45 9 69 44q10 15 27 15q11 0 27 -8q8 -4 25.5 -10t46.5 -16q44 -14 58 -14
q15 0 41 23q8 8 16.5 16t17.5 8t12 -3.5t10 -11.5q8 -11 -5 -24q-29 -29 -29 -50v-393q0 -44 24 -44q8 0 20 12l20 20q13 12 26 0l6 -7q5 -5 5 -12q0 -8 -5 -13zM288 332v128q0 24 -20 33q-42 19 -63 19q-28 0 -28 -8q0 -5 3 -9q13 -27 13 -51q0 -10 -5 -28l-6 -24
q-5 -32 19 -41q8 -2 29.5 -7t57.5 -12zM288 167v119q-98 20 -104 20q-20 0 -30 -33q-8 -27 -8 -49q0 -35 17 -81q20 -50 40 -50q6 0 59 28q26 14 26 46z" />
    <glyph glyph-name="acircumflex" unicode="&#xe2;" horiz-adv-x="522" 
d="M417 668q0 -9 -7.5 -17t-15.5 -8q-19 0 -34 12l-98 79h-15q-26 -23 -90 -72q-25 -19 -42 -19q-7 0 -14.5 9t-7.5 18q0 10 20 36l85 104q24 24 56 24q37 0 57 -24l87 -104q19 -18 19 -38zM512 80l-66 -66q-16 -16 -42 -16q-23 0 -39 13l-53 41q-23 17 -18 41l-12 5
q-6 -24 -33 -39l-93 -53q-14 -8 -28 -8q-33 0 -46 36q-14 36 -28 71.5t-14 74.5q0 57 22 101t64 74q21 15 31 58q2 11 3.5 18.5t1.5 12.5q0 10 -6 30q-9 29 -30 29q-7 0 -26 -6q-18 -6 -21 -6q-14 0 -18 15q-2 4 -2.5 8t-1.5 8q-3 18 18 22l25 4q45 9 69 44q10 15 27 15
q11 0 27 -8q8 -4 25.5 -10t46.5 -16q44 -14 58 -14q15 0 41 23q8 8 16.5 16t17.5 8t12 -3.5t10 -11.5q8 -11 -5 -24q-29 -29 -29 -50v-393q0 -44 24 -44q8 0 20 12l20 20q13 12 26 0l6 -7q5 -5 5 -12q0 -8 -5 -13zM288 332v128q0 24 -20 33q-42 19 -63 19q-28 0 -28 -8
q0 -5 3 -9q13 -27 13 -51q0 -10 -5 -28l-6 -24q-5 -32 19 -41q8 -2 29.5 -7t57.5 -12zM288 167v119q-98 20 -104 20q-20 0 -30 -33q-8 -27 -8 -49q0 -35 17 -81q20 -50 40 -50q6 0 59 28q26 14 26 46z" />
    <glyph glyph-name="atilde" unicode="&#xe3;" horiz-adv-x="522" 
d="M415 745q0 -101 -71 -101q-34 0 -91 25q-56 25 -77 25q-16 0 -34 -18q-19 -17 -21 -17q-10 3 -10 17q0 39 18 66q20 32 57 32q27 0 83 -24q57 -23 84 -23q15 0 32 15q16 16 20 16q10 0 10 -13zM512 80l-66 -66q-16 -16 -42 -16q-23 0 -39 13l-53 41q-23 17 -18 41l-12 5
q-6 -24 -33 -39l-93 -53q-14 -8 -28 -8q-33 0 -46 36q-14 36 -28 71.5t-14 74.5q0 57 22 101t64 74q21 15 31 58q2 11 3.5 18.5t1.5 12.5q0 10 -6 30q-9 29 -30 29q-7 0 -26 -6q-18 -6 -21 -6q-14 0 -18 15q-2 4 -2.5 8t-1.5 8q-3 18 18 22l25 4q45 9 69 44q10 15 27 15
q11 0 27 -8q8 -4 25.5 -10t46.5 -16q44 -14 58 -14q15 0 41 23q8 8 16.5 16t17.5 8t12 -3.5t10 -11.5q8 -11 -5 -24q-29 -29 -29 -50v-393q0 -44 24 -44q8 0 20 12l20 20q13 12 26 0l6 -7q5 -5 5 -12q0 -8 -5 -13zM288 332v128q0 24 -20 33q-42 19 -63 19q-28 0 -28 -8
q0 -5 3 -9q13 -27 13 -51q0 -10 -5 -28l-6 -24q-5 -32 19 -41q8 -2 29.5 -7t57.5 -12zM288 167v119q-98 20 -104 20q-20 0 -30 -33q-8 -27 -8 -49q0 -35 17 -81q20 -50 40 -50q6 0 59 28q26 14 26 46z" />
    <glyph glyph-name="adieresis" unicode="&#xe4;" horiz-adv-x="522" 
d="M411 700q0 -23 -16.5 -40t-39.5 -17q-24 0 -40 17t-16 40t16.5 39.5t39.5 16.5q22 0 39 -16.5t17 -39.5zM214 700q0 -23 -16.5 -40t-40.5 -17q-23 0 -39 17t-16 40t16.5 39.5t38.5 16.5q23 0 40 -16.5t17 -39.5zM512 80l-66 -66q-16 -16 -42 -16q-23 0 -39 13l-53 41
q-23 17 -18 41l-12 5q-6 -24 -33 -39l-93 -53q-14 -8 -28 -8q-33 0 -46 36q-14 36 -28 71.5t-14 74.5q0 57 22 101t64 74q21 15 31 58q2 11 3.5 18.5t1.5 12.5q0 10 -6 30q-9 29 -30 29q-7 0 -26 -6q-18 -6 -21 -6q-14 0 -18 15q-2 4 -2.5 8t-1.5 8q-3 18 18 22l25 4
q45 9 69 44q10 15 27 15q11 0 27 -8q8 -4 25.5 -10t46.5 -16q44 -14 58 -14q15 0 41 23q8 8 16.5 16t17.5 8t12 -3.5t10 -11.5q8 -11 -5 -24q-29 -29 -29 -50v-393q0 -44 24 -44q8 0 20 12l20 20q13 12 26 0l6 -7q5 -5 5 -12q0 -8 -5 -13zM288 332v128q0 24 -20 33
q-42 19 -63 19q-28 0 -28 -8q0 -5 3 -9q13 -27 13 -51q0 -10 -5 -28l-6 -24q-5 -32 19 -41q8 -2 29.5 -7t57.5 -12zM288 167v119q-98 20 -104 20q-20 0 -30 -33q-8 -27 -8 -49q0 -35 17 -81q20 -50 40 -50q6 0 59 28q26 14 26 46z" />
    <glyph glyph-name="aring" unicode="&#xe5;" horiz-adv-x="532" 
d="M362 735q0 -38 -26.5 -64.5t-64.5 -26.5t-64.5 26.5t-26.5 64.5t26.5 64.5t64.5 26.5t64.5 -26.5t26.5 -64.5zM512 80l-66 -66q-16 -16 -42 -16q-23 0 -39 13l-53 41q-23 17 -18 41l-12 5q-6 -24 -33 -39l-93 -53q-14 -8 -28 -8q-33 0 -46 36q-14 36 -28 71.5t-14 74.5
q0 57 22 101t64 74q21 15 31 58q2 11 3.5 18.5t1.5 12.5q0 10 -6 30q-9 29 -30 29q-7 0 -26 -6q-18 -6 -21 -6q-14 0 -18 15q-2 4 -2.5 8t-1.5 8q-3 18 18 22l25 4q45 9 69 44q10 15 27 15q11 0 27 -8q8 -4 25.5 -10t46.5 -16q44 -14 58 -14q15 0 41 23q8 8 16.5 16t17.5 8
t12 -3.5t10 -11.5q8 -11 -5 -24q-29 -29 -29 -50v-393q0 -44 24 -44q8 0 20 12l20 20q13 12 26 0l6 -7q5 -5 5 -12q0 -8 -5 -13zM313 735q0 42 -42 42t-42 -42t42 -42t42 42zM288 332v128q0 24 -20 33q-42 19 -63 19q-28 0 -28 -8q0 -5 3 -9q13 -27 13 -51q0 -10 -5 -28
l-6 -24q-5 -32 19 -41q8 -2 29.5 -7t57.5 -12zM288 167v119q-98 20 -104 20q-20 0 -30 -33q-8 -27 -8 -49q0 -35 17 -81q20 -50 40 -50q6 0 59 28q26 14 26 46z" />
    <glyph glyph-name="ae" unicode="&#xe6;" horiz-adv-x="690" 
d="M631 397l-216 -197v-54q0 -20 12 -27l40 -25q16 -11 27 0h1l91 77q14 12 25 -2l6 -7q12 -14 -2 -25l-155 -130q-14 -11 -38 -11h-8q-29 0 -49 16l-53 41q-23 17 -18 41l-12 5q-6 -23 -33 -39l-93 -55q-14 -8 -28 -8q-33 0 -46 37q-14 37 -28 75t-14 78q0 49 22 93.5
t64 74.5q21 15 31 58q2 11 3.5 19.5t1.5 14.5q0 10 -6 30q-9 29 -30 29q-7 0 -26 -6q-18 -6 -21 -6q-14 0 -18 15q-2 4 -2.5 8t-1.5 8q-3 18 18 22l25 4q46 9 69 41q10 15 27 15q10 0 28 -8q14 -5 31 -10.5t39 -12.5q45 -14 59 -14q15 0 29 6l50 35q10 6 16 9q22 7 35 -12
l147 -161q10 -10 10 -22q0 -11 -9 -20zM526 379l-112 125l-9 -7q10 -10 10 -35v-182zM287 464q0 23 -19 32q-42 19 -63 19q-28 0 -28 -8q0 -5 3 -9q13 -27 13 -51q0 -10 -5 -30q-6 -23 -6 -25q-5 -32 19 -41q35 -13 71 -17q15 -2 15 17v113zM287 167v87q0 29 -25 35
q-76 17 -78 17q-20 0 -30 -33q-8 -27 -8 -49q0 -35 17 -81q19 -49 40 -49q6 0 59 28q25 13 25 45z" />
    <glyph glyph-name="ccedilla" unicode="&#xe7;" horiz-adv-x="427" 
d="M372 503q10 -3 10 -11q0 -9 -10 -16l-37 -26q-20 -14 -43 -14q-26 0 -45 19l-49 49l-9 -8q10 -10 10 -34v-317q0 -16 12 -28l43 -30q12 -8 19 -4l66 55q13 12 25 -2l6 -7q11 -15 -2 -25l-5 -4l-120 -100q-10 -8 -21 -8q-13 0 -21 5q-24 17 -57.5 39.5t-77.5 48.5
q-16 7 -16 22q0 5 3.5 10.5t7 12.5t7 16.5t3.5 22.5v311q0 22 13 31l138 96q4 3 10 5q21 8 35 -12l72 -75q16 -17 30 -21zM309 -97q0 -47 -44 -70q-35 -18 -85 -18q-36 0 -55 4q-8 2 -8 9q0 11 14 9q21 -3 27 -3q26 0 47 12q25 13 25 38q0 23 -22 35q-19 11 -42 11
q-6 0 -7 3q-3 4 2 9l21 18q20 17 46 17q34 0 57.5 -20.5t23.5 -53.5z" />
    <glyph glyph-name="egrave" unicode="&#xe8;" horiz-adv-x="469" 
d="M311 671q-1 -6 -23 -18q-19 -12 -25 -10q-15 6 -26 21l-85 128q-10 14 -5 30q4 10 30 24q26 15 38 12q16 -4 24 -20l65 -132q11 -23 7 -35zM423 397l-215 -195v-63q1 -20 12 -27l40 -25q16 -11 27 0h1l91 77q14 12 25 -2l6 -7q12 -14 -2 -25l-155 -130q-7 -7 -21 -7
q-15 0 -22 4l-52 38q-19 14 -53 30q-15 7 -55 18q-20 5 -20 25v14q0 17 18 25l13 5q19 6 19 26v302q0 22 13 31l139 96q3 3 9 5q22 7 35 -12l146 -161q10 -10 10 -22q0 -13 -9 -20zM318 380l-111 124l-9 -7q10 -10 10 -35v-181z" />
    <glyph glyph-name="eacute" unicode="&#xe9;" horiz-adv-x="469" 
d="M341 822q5 -16 -5 -30l-86 -128q-9 -15 -25 -21q-5 -2 -26 10q-21 13 -22 18q-4 12 7 35l65 132q8 16 24 20q12 3 37 -12q27 -14 31 -24zM423 397l-215 -195v-63q1 -20 12 -27l40 -25q16 -11 27 0h1l91 77q14 12 25 -2l6 -7q12 -14 -2 -25l-155 -130q-7 -7 -21 -7
q-15 0 -22 4l-52 38q-19 14 -53 30q-15 7 -55 18q-20 5 -20 25v14q0 17 18 25l13 5q19 6 19 26v302q0 22 13 31l139 96q3 3 9 5q22 7 35 -12l146 -161q10 -10 10 -22q0 -13 -9 -20zM318 380l-111 124l-9 -7q10 -10 10 -35v-181z" />
    <glyph glyph-name="ecircumflex" unicode="&#xea;" horiz-adv-x="469" 
d="M404 668q0 -9 -7.5 -17t-15.5 -8q-19 0 -34 12l-98 79h-15q-26 -23 -90 -72q-25 -19 -42 -19q-7 0 -14.5 9t-7.5 18q0 10 20 36l85 104q24 24 56 24q37 0 57 -24l87 -104q19 -18 19 -38zM423 397l-215 -195v-63q1 -20 12 -27l40 -25q16 -11 27 0h1l91 77q14 12 25 -2
l6 -7q12 -14 -2 -25l-155 -130q-7 -7 -21 -7q-15 0 -22 4l-52 38q-19 14 -53 30q-15 7 -55 18q-20 5 -20 25v14q0 17 18 25l13 5q19 6 19 26v302q0 22 13 31l139 96q3 3 9 5q22 7 35 -12l146 -161q10 -10 10 -22q0 -13 -9 -20zM318 380l-111 124l-9 -7q10 -10 10 -35v-181z
" />
    <glyph glyph-name="edieresis" unicode="&#xeb;" horiz-adv-x="469" 
d="M404 700q0 -23 -16.5 -40t-39.5 -17q-24 0 -40 17t-16 40t16.5 39.5t39.5 16.5q22 0 39 -16.5t17 -39.5zM207 700q0 -23 -16.5 -40t-40.5 -17q-23 0 -39 17t-16 40t16.5 39.5t38.5 16.5q23 0 40 -16.5t17 -39.5zM423 397l-215 -195v-63q1 -20 12 -27l40 -25q16 -11 27 0
h1l91 77q14 12 25 -2l6 -7q12 -14 -2 -25l-155 -130q-7 -7 -21 -7q-15 0 -22 4l-52 38q-19 14 -53 30q-15 7 -55 18q-20 5 -20 25v14q0 17 18 25l13 5q19 6 19 26v302q0 22 13 31l139 96q3 3 9 5q22 7 35 -12l146 -161q10 -10 10 -22q0 -13 -9 -20zM318 380l-111 124l-9 -7
q10 -10 10 -35v-181z" />
    <glyph glyph-name="igrave" unicode="&#xec;" horiz-adv-x="332" 
d="M227 671q-1 -6 -23 -18q-19 -12 -25 -10q-15 6 -26 21l-85 128q-10 14 -5 30q4 10 30 24q26 15 38 12q16 -4 24 -20l65 -132q11 -23 7 -35zM327 129q11 -12 0 -23l-7 -8l-80 -89q-15 -17 -31 -17q-13 0 -26 8q-11 8 -30.5 21t-48.5 32q-27 16 -27 59v342q0 20 -4 27
l-17 22q-6 7 -6 18q0 15 12 24l88 65q7 6 18 6q15 0 24 -11l34 -46q6 -8 6 -18q0 -15 -12 -24q-15 -12 -15 -36v-369q0 -31 26 -31q13 0 34 23l28 32l4 3q14 11 30 -10z" />
    <glyph glyph-name="iacute" unicode="&#xed;" horiz-adv-x="332" 
d="M245 822q5 -16 -5 -30l-86 -128q-9 -15 -25 -21q-5 -2 -26 10q-21 13 -22 18q-4 12 7 35l65 132q8 16 24 20q12 3 37 -12q27 -14 31 -24zM327 129q11 -12 0 -23l-7 -8l-80 -89q-15 -17 -31 -17q-13 0 -26 8q-11 8 -30.5 21t-48.5 32q-27 16 -27 59v342q0 20 -4 27l-17 22
q-6 7 -6 18q0 15 12 24l88 65q7 6 18 6q15 0 24 -11l34 -46q6 -8 6 -18q0 -15 -12 -24q-15 -12 -15 -36v-369q0 -31 26 -31q13 0 34 23l28 32l4 3q14 11 30 -10z" />
    <glyph glyph-name="icircumflex" unicode="&#xee;" horiz-adv-x="332" 
d="M327 668q0 -9 -7.5 -17t-15.5 -8q-18 0 -34 12l-98 79h-15q-24 -23 -90 -72q-23 -19 -42 -19q-7 0 -14.5 9t-7.5 18q0 10 20 36l86 104q22 24 55 24q37 0 58 -24l86 -104q19 -18 19 -38zM327 129q11 -12 0 -23l-7 -8l-80 -89q-15 -17 -31 -17q-13 0 -26 8q-11 8 -30.5 21
t-48.5 32q-27 16 -27 59v342q0 20 -4 27l-17 22q-6 7 -6 18q0 15 12 24l88 65q7 6 18 6q15 0 24 -11l34 -46q6 -8 6 -18q0 -15 -12 -24q-15 -12 -15 -36v-369q0 -31 26 -31q13 0 34 23l28 32l4 3q14 11 30 -10z" />
    <glyph glyph-name="idieresis" unicode="&#xef;" horiz-adv-x="337" 
d="M310 700q0 -23 -16.5 -40t-39.5 -17q-24 0 -40 17t-16 40t16.5 39.5t39.5 16.5t39.5 -16.5t16.5 -39.5zM113 700q0 -23 -16.5 -40t-39.5 -17q-24 0 -40 17t-16 40t16.5 39.5t39.5 16.5q22 0 39 -16.5t17 -39.5zM327 129q11 -12 0 -23l-7 -8l-80 -89q-15 -17 -31 -17
q-13 0 -26 8q-11 8 -30.5 21t-48.5 32q-27 16 -27 59v342q0 20 -4 27l-17 22q-6 7 -6 18q0 15 12 24l88 65q7 6 18 6q15 0 24 -11l34 -46q6 -8 6 -18q0 -15 -12 -24q-15 -12 -15 -36v-369q0 -31 26 -31q13 0 34 23l28 32l4 3q14 11 30 -10z" />
    <glyph glyph-name="eth" unicode="&#xf0;" horiz-adv-x="536" 
d="M516 597q11 -14 -2 -25l-33 -30q-21 -20 -21 -64v-364q0 -12 -8 -20q-5 -6 -9 -9q-72 -23 -131 -78q-14 -19 -37 -14q-10 1 -21 9t-26 13q-26 8 -60.5 18.5t-79.5 22.5l-37 7q-21 4 -21 25v17q0 17 20 23l14 4q17 6 17 24v340q0 13 30 30l49 26l-49 24q-2 1 -3.5 2
t-3.5 2l-41 -25q-16 -10 -25 6l-5 8q-9 15 6 24l26 16q-28 31 -28 77q0 29 14 55q7 16 22 16q13 0 22 -19q15 -32 60 -54l19 -9l51 31q15 9 25 -7l4 -7q9 -16 -6 -25l-26 -16l182 -90q7 -4 15 -4q12 0 24 13l33 28l12 10q12 6 21 -4zM345 85q-13 13 -13 39v329q0 14 -19 23
l-115 56v-365q0 -28 18 -34l81 -25q27 -8 35 -32z" />
    <glyph glyph-name="ntilde" unicode="&#xf1;" horiz-adv-x="603" 
d="M449 745q0 -101 -71 -101q-34 0 -91 25q-56 25 -77 25q-16 0 -34 -18q-19 -17 -21 -17q-10 3 -10 17q0 39 18 66q20 32 57 32q27 0 83 -24q57 -23 84 -23q15 0 32 15q16 16 20 16q10 0 10 -13zM598 99l-27 -29l-53 -61q-15 -17 -31 -17q-15 0 -26 8q-10 8 -29 21.5
t-48 31.5q-18 9 -18 40v354q0 23 -10 30l-41 31q-14 9 -24 0l-56 -47q-13 -10 -13 -28v-289q0 -27 14 -38l16 -13q12 -11 12 -22q0 -8 -5 -16l-39 -45q-16 -19 -30 -19q-12 0 -26 11l-67 53q-24 10 -24 27q0 7 10.5 19.5t10.5 28.5v339q0 26 -5 33q-8 9 -17 0l-35 -32
q-14 -14 -26 0l-6 7q-12 13 1 25l112 105q4 6 12 6q10 0 27 -13l54 -40q11 -8 11 -25v-25h10q0 22 29 46l62 52q13 12 30 0l114 -84q16 -10 16 -49v-362q0 -30 28 -30q12 0 27 17l20 23l7 7q11 14 25 1l7 -6q13 -12 1 -26z" />
    <glyph glyph-name="ograve" unicode="&#xf2;" horiz-adv-x="526" 
d="M345 671q-1 -6 -23 -18q-19 -12 -25 -10q-15 6 -26 21l-85 128q-10 14 -5 30q4 10 30 24q26 15 38 12q16 -4 24 -20l65 -132q11 -23 7 -35zM456 123q0 -16 -3 -23q-5 -11 -18 -17q-37 -16 -67 -35t-54 -41q-14 -19 -37 -14q-10 1 -20.5 9.5t-26.5 12.5q-24 10 -72 24
q-26 7 -46 11t-34 5l-17 1q-31 1 -31 28v17q0 15 27 26l9 3q17 8 17 25v336q0 13 8 21q4 7 9 9q81 41 125 78q17 14 36 14q11 0 27 -8q21 -11 33 -15l108 -35q27 -9 27 -39v-393zM347 85q-13 13 -13 39v41v275q0 28 -18 34l-76 24q-27 9 -35 32l-13 -9q11 -13 13 -39v-41
v-275q0 -28 18 -34l76 -24q27 -9 35 -32z" />
    <glyph glyph-name="oacute" unicode="&#xf3;" horiz-adv-x="526" 
d="M355 822q5 -16 -5 -30l-86 -128q-9 -15 -25 -21q-5 -2 -26 10q-21 13 -22 18q-4 12 7 35l65 132q8 16 24 20q12 3 37 -12q27 -14 31 -24zM456 123q0 -16 -3 -23q-5 -11 -18 -17q-37 -16 -67 -35t-54 -41q-14 -19 -37 -14q-10 1 -20.5 9.5t-26.5 12.5q-24 10 -72 24
q-26 7 -46 11t-34 5l-17 1q-31 1 -31 28v17q0 15 27 26l9 3q17 8 17 25v336q0 13 8 21q4 7 9 9q81 41 125 78q17 14 36 14q11 0 27 -8q21 -11 33 -15l108 -35q27 -9 27 -39v-393zM347 85q-13 13 -13 39v41v275q0 28 -18 34l-76 24q-27 9 -35 32l-13 -9q11 -13 13 -39v-41
v-275q0 -28 18 -34l76 -24q27 -9 35 -32z" />
    <glyph glyph-name="ocircumflex" unicode="&#xf4;" horiz-adv-x="526" 
d="M427 668q0 -9 -7.5 -17t-15.5 -8q-19 0 -34 12l-98 79h-15q-26 -23 -90 -72q-25 -19 -42 -19q-7 0 -14.5 9t-7.5 18q0 10 20 36l85 104q24 24 56 24q37 0 57 -24l87 -104q19 -18 19 -38zM456 123q0 -16 -3 -23q-5 -11 -18 -17q-37 -16 -67 -35t-54 -41q-14 -19 -37 -14
q-10 1 -20.5 9.5t-26.5 12.5q-24 10 -72 24q-26 7 -46 11t-34 5l-17 1q-31 1 -31 28v17q0 15 27 26l9 3q17 8 17 25v336q0 13 8 21q4 7 9 9q81 41 125 78q17 14 36 14q11 0 27 -8q21 -11 33 -15l108 -35q27 -9 27 -39v-393zM347 85q-13 13 -13 39v41v275q0 28 -18 34l-76 24
q-27 9 -35 32l-13 -9q11 -13 13 -39v-41v-275q0 -28 18 -34l76 -24q27 -9 35 -32z" />
    <glyph glyph-name="otilde" unicode="&#xf5;" horiz-adv-x="526" 
d="M416 745q0 -101 -71 -101q-34 0 -91 25q-56 25 -77 25q-16 0 -34 -18q-19 -17 -21 -17q-10 3 -10 17q0 39 18 66q20 32 57 32q27 0 83 -24q57 -23 84 -23q15 0 32 15q16 16 20 16q10 0 10 -13zM456 123q0 -16 -3 -23q-5 -11 -18 -17q-37 -16 -67 -35t-54 -41
q-14 -19 -37 -14q-10 1 -20.5 9.5t-26.5 12.5q-24 10 -72 24q-26 7 -46 11t-34 5l-17 1q-31 1 -31 28v17q0 15 27 26l9 3q17 8 17 25v336q0 13 8 21q4 7 9 9q81 41 125 78q17 14 36 14q11 0 27 -8q21 -11 33 -15l108 -35q27 -9 27 -39v-393zM347 85q-13 13 -13 39v41v275
q0 28 -18 34l-76 24q-27 9 -35 32l-13 -9q11 -13 13 -39v-41v-275q0 -28 18 -34l76 -24q27 -9 35 -32z" />
    <glyph glyph-name="odieresis" unicode="&#xf6;" horiz-adv-x="526" 
d="M412 700q0 -23 -16.5 -40t-39.5 -17q-24 0 -40 17t-16 40t16.5 39.5t39.5 16.5q22 0 39 -16.5t17 -39.5zM215 700q0 -23 -16.5 -40t-40.5 -17q-23 0 -39 17t-16 40t16.5 39.5t38.5 16.5q23 0 40 -16.5t17 -39.5zM456 123q0 -16 -3 -23q-5 -11 -18 -17q-37 -16 -67 -35
t-54 -41q-14 -19 -37 -14q-10 1 -20.5 9.5t-26.5 12.5q-24 10 -72 24q-26 7 -46 11t-34 5l-17 1q-31 1 -31 28v17q0 15 27 26l9 3q17 8 17 25v336q0 13 8 21q4 7 9 9q81 41 125 78q17 14 36 14q11 0 27 -8q21 -11 33 -15l108 -35q27 -9 27 -39v-393zM347 85q-13 13 -13 39
v41v275q0 28 -18 34l-76 24q-27 9 -35 32l-13 -9q11 -13 13 -39v-41v-275q0 -28 18 -34l76 -24q27 -9 35 -32z" />
    <glyph glyph-name="divide" unicode="&#xf7;" horiz-adv-x="410" 
d="M293 530q0 -33 -23.5 -56t-55.5 -23q-33 0 -56.5 23t-23.5 56t23.5 56.5t56.5 23.5q32 0 55.5 -23.5t23.5 -56.5zM395 347q0 -12 -12 -12h-339q-12 0 -12 12v52q0 12 12 12h339q12 0 12 -12v-52zM293 218q0 -33 -23.5 -56t-55.5 -23q-33 0 -56.5 23t-23.5 56t23.5 56.5
t56.5 23.5q32 0 55.5 -23.5t23.5 -56.5z" />
    <glyph glyph-name="oslash" unicode="&#xf8;" horiz-adv-x="526" 
d="M456 123q0 -16 -3 -23q-5 -11 -18 -17q-37 -16 -67 -35t-54 -41q-14 -19 -37 -14q-10 1 -20.5 9.5t-26.5 12.5q-5 2 -12 5t-16 6l-18 -52q-6 -17 -21 -17h-23q-16 0 -10 18l22 66q-49 13 -74 14l-17 1q-31 1 -31 28v17q0 15 27 26l9 3q17 8 17 25v336q0 13 8 21q4 7 9 9
q81 41 125 78q17 14 36 14q11 0 27 -8q21 -11 33 -15l19 -6l16 46q5 14 19 14h25q16 0 10 -16l-21 -60l40 -13q27 -9 27 -39v-393zM303 478l-63 20q-27 9 -35 32l-13 -9q11 -13 13 -39v-41v-248zM347 85q-13 13 -13 39v41v242l-97 -279l62 -20q27 -9 35 -32z" />
    <glyph glyph-name="ugrave" unicode="&#xf9;" horiz-adv-x="600" 
d="M345 671q-1 -6 -23 -18q-19 -12 -25 -10q-15 6 -26 21l-85 128q-10 14 -5 30q4 10 30 24q26 15 38 12q16 -4 24 -20l65 -132q11 -23 7 -35zM595 123q6 -13 -4 -22l-89 -81q-31 -28 -42 -28q-26 2 -38 11l-50 38q-21 16 -21 36v11h-10q0 -26 -30 -48l-56 -44
q-15 -12 -31 0l-109 84q-15 12 -15 49l-1 363q0 19 -12 19q-8 0 -22 -11l-8 -7l-21 -19q-13 -12 -25 1l-6 7q-12 13 1 25l93 87q20 19 35 19q7 0 27 -15q10 -8 33 -27q23 -18 23 -39v-380q0 -23 9 -30l36 -26q13 -9 24 0l51 42q13 10 13 28v294q0 27 -14 38l-16 13
q-12 10 -12 22q0 8 5 16l39 45q16 19 30 19q12 0 26 -11l78 -58q13 -12 13 -25q0 -3 -3.5 -9t-7 -13t-7 -14.5t-3.5 -13.5v-335q0 -37 28 -37q12 0 22 8l31 27l6 5q9 6 18 0l6 -6z" />
    <glyph glyph-name="uacute" unicode="&#xfa;" horiz-adv-x="600" 
d="M375 822q5 -16 -5 -30l-86 -128q-9 -15 -25 -21q-5 -2 -26 10q-21 13 -22 18q-4 12 7 35l65 132q8 16 24 20q12 3 37 -12q27 -14 31 -24zM595 123q6 -13 -4 -22l-89 -81q-31 -28 -42 -28q-26 2 -38 11l-50 38q-21 16 -21 36v11h-10q0 -26 -30 -48l-56 -44q-15 -12 -31 0
l-109 84q-15 12 -15 49l-1 363q0 19 -12 19q-8 0 -22 -11l-8 -7l-21 -19q-13 -12 -25 1l-6 7q-12 13 1 25l93 87q20 19 35 19q7 0 27 -15q10 -8 33 -27q23 -18 23 -39v-380q0 -23 9 -30l36 -26q13 -9 24 0l51 42q13 10 13 28v294q0 27 -14 38l-16 13q-12 10 -12 22q0 8 5 16
l39 45q16 19 30 19q12 0 26 -11l78 -58q13 -12 13 -25q0 -3 -3.5 -9t-7 -13t-7 -14.5t-3.5 -13.5v-335q0 -37 28 -37q12 0 22 8l31 27l6 5q9 6 18 0l6 -6z" />
    <glyph glyph-name="ucircumflex" unicode="&#xfb;" horiz-adv-x="600" 
d="M447 668q0 -9 -7.5 -17t-15.5 -8q-19 0 -34 12l-98 79h-15q-26 -23 -90 -72q-25 -19 -42 -19q-7 0 -14.5 9t-7.5 18q0 10 20 36l85 104q24 24 56 24q37 0 57 -24l87 -104q19 -18 19 -38zM595 123q6 -13 -4 -22l-89 -81q-31 -28 -42 -28q-26 2 -38 11l-50 38
q-21 16 -21 36v11h-10q0 -26 -30 -48l-56 -44q-15 -12 -31 0l-109 84q-15 12 -15 49l-1 363q0 19 -12 19q-8 0 -22 -11l-8 -7l-21 -19q-13 -12 -25 1l-6 7q-12 13 1 25l93 87q20 19 35 19q7 0 27 -15q10 -8 33 -27q23 -18 23 -39v-380q0 -23 9 -30l36 -26q13 -9 24 0l51 42
q13 10 13 28v294q0 27 -14 38l-16 13q-12 10 -12 22q0 8 5 16l39 45q16 19 30 19q12 0 26 -11l78 -58q13 -12 13 -25q0 -3 -3.5 -9t-7 -13t-7 -14.5t-3.5 -13.5v-335q0 -37 28 -37q12 0 22 8l31 27l6 5q9 6 18 0l6 -6z" />
    <glyph glyph-name="udieresis" unicode="&#xfc;" horiz-adv-x="600" 
d="M441 700q0 -23 -16.5 -40t-39.5 -17q-24 0 -40 17t-16 40t16.5 39.5t39.5 16.5q22 0 39 -16.5t17 -39.5zM244 700q0 -23 -16.5 -40t-40.5 -17q-23 0 -39 17t-16 40t16.5 39.5t38.5 16.5q23 0 40 -16.5t17 -39.5zM595 123q6 -13 -4 -22l-89 -81q-31 -28 -42 -28
q-26 2 -38 11l-50 38q-21 16 -21 36v11h-10q0 -26 -30 -48l-56 -44q-15 -12 -31 0l-109 84q-15 12 -15 49l-1 363q0 19 -12 19q-8 0 -22 -11l-8 -7l-21 -19q-13 -12 -25 1l-6 7q-12 13 1 25l93 87q20 19 35 19q7 0 27 -15q10 -8 33 -27q23 -18 23 -39v-380q0 -23 9 -30
l36 -26q13 -9 24 0l51 42q13 10 13 28v294q0 27 -14 38l-16 13q-12 10 -12 22q0 8 5 16l39 45q16 19 30 19q12 0 26 -11l78 -58q13 -12 13 -25q0 -3 -3.5 -9t-7 -13t-7 -14.5t-3.5 -13.5v-335q0 -37 28 -37q12 0 22 8l31 27l6 5q9 6 18 0l6 -6z" />
    <glyph glyph-name="thorn" unicode="&#xfe;" horiz-adv-x="556" 
d="M486 477l-1 -352q0 -16 -3 -23q-5 -11 -18 -17q-88 -39 -131 -78q-14 -14 -32 -14q-7 0 -25 8q-10 7 -21.5 13t-27.5 9v-141q0 -26 17 -29q18 -5 18 -20q0 -27 -50 -27q-43 0 -56 40h-12q-12 -40 -51 -40q-37 0 -37 28q0 13 21 18q21 4 21 39l1 137q0 19 -14 22l-19 4
q-18 4 -18 23v12q0 13 25 31l10 7q15 10 15 31l1 457q0 25 -5 32q-8 10 -19 -1l-7 -7l-26 -24q-14 -14 -26 0l-6 7q-12 13 1 25l8 8l104 97q4 6 12 6q10 0 27 -13l54 -40q11 -8 11 -25v-172h7q1 19 24 39l68 61q13 12 30 0l114 -84q16 -10 16 -47zM382 83q-13 14 -13 39v41
v17h-1v279q-2 12 -9 18l-41 31q-14 10 -24 0l-54 -47q-13 -10 -13 -28v-271q0 -25 17 -30l90 -26q27 -8 35 -32z" />
    <glyph glyph-name="ydieresis" unicode="&#xff;" horiz-adv-x="552" 
d="M427 701q0 -24 -17 -40.5t-40 -16.5t-39.5 16.5t-16.5 40.5q0 23 16.5 39t39.5 16t40 -16.5t17 -38.5zM230 701q0 -24 -17 -40.5t-40 -16.5t-39.5 16.5t-16.5 40.5q0 23 16.5 39t39.5 16t40 -16.5t17 -38.5zM502 -26q0 -18 -12 -40l-64 -114q-8 -15 -25 -15q-8 0 -15 4
q-55 16 -103 25t-93 6q-62 -5 -90 -30q-4 -4 -10 -4q-9 0 -17 12.5t-8 29.5q0 22 17 39l103 104q8 8 8 17q0 8 -8.5 14.5t-34.5 23.5q-39 25 -86 41q-25 9 -25 30v8q0 21 24 32q24 12 24 35v295q0 15 -9 15q-6 0 -10 -3l-11 -12l-14 -15q-13 -13 -26 -1l-6 6q-13 12 -1 26
l87 93q17 17 35 17q13 0 29 -14l29 -26q15 -14 15 -42l-1 -375q0 -16 12 -28l44 -27q19 -11 32 -4l35 35q10 10 10 23v14v292q0 24 -15 38l-16 15q-8 8 -8 18t7 17l58 51q14 13 29 13q13 0 23 -10l63 -66q13 -14 2 -25q-16 -15 -16 -33v-397q0 -54 18 -76q20 -26 20 -32z
M423 -83q4 10 -6 22l-60 67q-5 6 -16 30l-2 25q-3 18 -10 18t-14 -7l-162 -162l9 -9q44 32 90 32q69 0 144 -37q13 -6 19 5z" />
    <glyph glyph-name="Aogonek" unicode="&#x104;" 
d="M591 105l-87 -97l-9 -8l-10 -11q-35 -38 -35 -66q0 -22 16 -36t36 -14q26 0 60 8q11 3 19 -2t8 -14q0 -7 -6 -14l-32 -40q-9 -11 -30 -21q-24 -12 -45 -12q-23 0 -43.5 8t-35.5 22t-24 33.5t-9 42.5q0 54 72 122l-73 40l-2 2q-20 14 -20 53v206l-79 -90q-23 -26 -46 -26
t-54 24q-12 9 -18 -4l-28 -60q-11 -21 6 -35q11 -11 28 -18q12 -5 20 -4q13 1 21 11l25 28q15 16 28 6l8 -7q4 -4 6 -13q0 -7 -7 -15q-2 -4 -9 -11l-76 -84q-15 -17 -31 -17q-15 0 -26 8l-61 38q-13 9 -13 22q0 8 4 15l75 162q4 12 -3 21q-75 84 -75 212q0 119 71 204
q70 85 172 85q55 0 91 -18q25 -12 30 -29h13q4 17 19 31t35 14q52 0 52 -28q0 -13 -22 -17q-28 -4 -28 -48v-553q0 -30 26 -30q12 0 29 18l33 37q4 6 13 6q7 0 12 -5l8 -6q14 -11 1 -26zM341 380v256l-11 10q0 -30 -13 -57l-123 -271q18 -7 47 -7q20 0 44 9q28 10 46 30
q10 10 10 30zM284 608q13 27 13 43q0 19 -17.5 26t-41.5 7q-68 0 -115 -59q-42 -54 -42 -128q0 -57 27 -105q23 -38 52 -57z" />
    <glyph glyph-name="aogonek" unicode="&#x105;" horiz-adv-x="522" 
d="M512 -149l-32 -40q-9 -11 -30 -21q-24 -12 -45 -12q-23 0 -43.5 8t-35.5 22t-24 33.5t-9 42.5q0 55 72 121l-53 41q-23 17 -18 41l-12 5q-8 -26 -33 -39l-93 -47q-18 -8 -28 -8q-30 0 -46 36q-13 28 -21 45.5t-10 25.5q-11 36 -11 75q0 57 22 101t64 74q21 15 31 58
q2 11 3.5 18t1.5 11q0 10 -6 30q-9 29 -30 29q-7 0 -26 -6q-18 -6 -21 -6q-14 0 -18 15q-2 4 -2.5 8t-1.5 8q-3 18 18 22l25 4q43 7 69 46q10 15 27 15q10 0 28 -8q13 -7 30.5 -13.5t40.5 -14.5q44 -14 58 -14q15 0 41 23q8 8 16.5 16t17.5 8t12 -3.5t10 -11.5q8 -11 -5 -24
q-29 -29 -29 -50v-397q0 -44 24 -44q8 0 20 12l20 20q13 12 26 0l6 -7q13 -13 0 -25l-55 -53q-5 -2 -11.5 -6.5t-15.5 -10.5l-16 -15q-35 -33 -35 -66q0 -22 16 -36t36 -14q26 0 60 8q11 3 19 -2t8 -14q0 -7 -6 -14zM287 459q0 23 -19 32q-42 19 -63 19q-28 0 -28 -8
q0 -5 3 -9q13 -27 13 -51q0 -10 -5 -27l-6 -23q-5 -32 19 -41q35 -13 71 -17q15 -2 15 17v108zM287 160v94q0 29 -25 35q-76 17 -78 17q-20 0 -30 -33q-8 -27 -8 -49q0 -36 17 -84q20 -53 40 -53q6 0 59 28q25 13 25 45z" />
    <glyph glyph-name="Cacute" unicode="&#x106;" horiz-adv-x="569" 
d="M396 968q6 -14 -4 -29l-86 -129q-11 -15 -25 -21q-7 -2 -26 10q-21 13 -22 18q-4 12 7 35l64 132q8 16 24 20q12 3 38 -11q25 -13 30 -25zM509 638l-18 -15q-19 -16 -48 -16q-31 0 -53 18l-41 34l-6 -5q10 -13 10 -36v-310q0 -29 -10 -45l-29 -33q-8 -8 -23 -20.5
t-38 -29.5q-25 -18 -32 -8l-4 5q-4 10 6 22q12 12 12 45v370q0 22 18 37q37 29 64.5 52.5t45.5 40.5q16 16 31 16q19 0 33 -13q21 -20 39 -35t34 -23q21 -11 21 -28q0 -13 -12 -23zM521 79q-76 -91 -191 -91q-112 0 -187 78q-73 73 -73 177v261q0 108 75 182q62 61 140 70
q15 1 15 -11q0 -8 -8 -11q-34 -13 -67 -55q-37 -46 -37 -98v-334q0 -71 56 -125q56 -53 140 -53q65 0 115 35q8 5 15 5q15 0 15 -13q0 -7 -8 -17z" />
    <glyph glyph-name="cacute" unicode="&#x107;" horiz-adv-x="427" 
d="M305 822q5 -16 -5 -30l-86 -128q-9 -15 -25 -21q-5 -2 -26 10q-21 13 -22 18q-4 12 7 35l65 132q8 16 24 20q12 3 37 -12q27 -14 31 -24zM372 503q10 -3 10 -11q0 -9 -10 -16l-37 -26q-20 -14 -43 -14q-26 0 -45 19l-49 49l-9 -8q10 -10 10 -34v-317q0 -16 12 -28l43 -30
q12 -8 19 -4l66 55q13 12 25 -2l6 -7q11 -15 -2 -25l-5 -4l-120 -100q-10 -8 -21 -8q-13 0 -21 5q-24 17 -57.5 39.5t-77.5 48.5q-16 7 -16 22q0 5 3.5 10.5t7 12.5t7 16.5t3.5 22.5v311q0 22 13 31l138 96q4 3 10 5q21 8 35 -12l72 -75q16 -17 30 -21z" />
    <glyph glyph-name="Ccaron" unicode="&#x10c;" horiz-adv-x="569" 
d="M463 954q0 -10 -20 -36l-86 -104q-24 -24 -55 -24q-39 0 -58 24l-86 104q-19 18 -19 38q0 9 7.5 17t15.5 8q18 0 33 -12l98 -79h15q13 11 35.5 29t55.5 43q23 19 41 19q7 0 15 -9t8 -18zM509 638l-18 -15q-19 -16 -48 -16q-31 0 -53 18l-41 34l-6 -5q10 -13 10 -36v-310
q0 -29 -10 -45l-29 -33q-8 -8 -23 -20.5t-38 -29.5q-25 -18 -32 -8l-4 5q-4 10 6 22q12 12 12 45v370q0 22 18 37q37 29 64.5 52.5t45.5 40.5q16 16 31 16q19 0 33 -13q21 -20 39 -35t34 -23q21 -11 21 -28q0 -13 -12 -23zM521 79q-76 -91 -191 -91q-112 0 -187 78
q-73 73 -73 177v261q0 108 75 182q62 61 140 70q15 1 15 -11q0 -8 -8 -11q-34 -13 -67 -55q-37 -46 -37 -98v-334q0 -71 56 -125q56 -53 140 -53q65 0 115 35q8 5 15 5q15 0 15 -13q0 -7 -8 -17z" />
    <glyph glyph-name="ccaron" unicode="&#x10d;" horiz-adv-x="427" 
d="M380 807q0 -10 -20 -36l-86 -104q-24 -24 -55 -24q-39 0 -58 24l-86 104q-19 18 -19 38q0 9 7.5 17t15.5 8q18 0 33 -12l98 -79h15q13 11 35.5 29t55.5 43q23 19 41 19q8 0 15.5 -9t7.5 -18zM372 503q10 -3 10 -11q0 -9 -10 -16l-37 -26q-20 -14 -43 -14q-26 0 -45 19
l-49 49l-9 -8q10 -10 10 -34v-317q0 -16 12 -28l43 -30q12 -8 19 -4l66 55q13 12 25 -2l6 -7q11 -15 -2 -25l-5 -4l-120 -100q-10 -8 -21 -8q-13 0 -21 5q-24 17 -57.5 39.5t-77.5 48.5q-16 7 -16 22q0 5 3.5 10.5t7 12.5t7 16.5t3.5 22.5v311q0 22 13 31l138 96q4 3 10 5
q21 8 35 -12l72 -75q16 -17 30 -21z" />
    <glyph glyph-name="Edotaccent" unicode="&#x116;" horiz-adv-x="574" 
d="M367 855q0 -27 -19 -46t-46 -19t-46 19t-19 46q0 26 19 45t46 19t46 -19t19 -45zM509 638l-18 -15q-19 -16 -49 -16t-52 18l-40 35l-8 -7q11 -14 11 -35v-199h10q9 27 38 27h92q18 0 18 -16q0 -9 -7 -16l-50 -53q-21 -22 -51 -22h-50v-31q0 -42 -27 -67q-3 -2 -12 -11
q-8 -8 -23 -20.5t-38 -29.5q-25 -18 -32 -8l-4 5q-5 10 7 22t11 45v370q0 22 18 37q37 29 64 52.5t46 40.5q16 16 31 16q19 0 33 -13q21 -20 39 -35t34 -23q21 -11 21 -28q0 -13 -12 -23zM521 79q-76 -91 -191 -91q-112 0 -187 78q-73 73 -73 177v261q0 108 75 182
q62 61 140 70q15 1 15 -11q0 -8 -8 -11q-34 -13 -67 -55q-37 -46 -37 -98v-334q0 -71 56 -125q56 -53 140 -53q65 0 115 35q8 5 15 5q15 0 15 -13q0 -7 -8 -17z" />
    <glyph glyph-name="edotaccent" unicode="&#x117;" horiz-adv-x="469" 
d="M304 708q0 -27 -19 -46t-46 -19q-26 0 -45 19t-19 46t19 46t45 19q27 0 46 -19t19 -46zM423 397l-215 -195v-63q1 -20 12 -27l40 -25q16 -11 27 0h1l91 77q14 12 25 -2l6 -7q12 -14 -2 -25l-155 -130q-7 -7 -21 -7q-15 0 -22 4l-52 38q-19 14 -53 30q-15 7 -55 18
q-20 5 -20 25v14q0 17 18 25l13 5q19 6 19 26v302q0 22 13 31l139 96q3 3 9 5q22 7 35 -12l146 -161q10 -10 10 -22q0 -11 -9 -20zM318 380l-111 124l-9 -7q10 -10 10 -35v-181z" />
    <glyph glyph-name="Eogonek" unicode="&#x118;" horiz-adv-x="574" 
d="M509 638l-18 -15q-19 -16 -49 -16t-52 18l-40 35l-8 -7q11 -14 11 -35v-199h10q9 27 38 27h92q18 0 18 -16q0 -9 -7 -16l-50 -53q-21 -22 -51 -22h-50v-31q0 -42 -27 -67q-3 -2 -12 -11q-8 -8 -23 -20.5t-38 -29.5q-25 -18 -32 -8l-4 5q-5 10 7 22t11 45v370q0 22 18 37
q37 29 64 52.5t46 40.5q16 16 31 16q19 0 33 -13q21 -20 39 -35t34 -23q21 -11 21 -28q0 -13 -12 -23zM523 -149l-32 -40q-9 -11 -30 -21q-24 -12 -45 -12q-23 0 -43.5 8t-35.5 22t-24 33.5t-9 42.5q0 50 56 106q-8 -1 -15 -1.5t-15 -0.5q-112 0 -187 78q-73 73 -73 177v261
q0 108 75 182q62 61 140 70q15 1 15 -11q0 -8 -8 -11q-34 -13 -67 -55q-37 -46 -37 -98v-334q0 -71 56 -125q56 -53 140 -53q65 0 115 35q8 5 15 5q15 0 15 -13q0 -15 -30 -40q-11 -10 -21 -17.5t-20 -13.5l-33 -36q-35 -41 -35 -66q0 -22 16 -36t36 -14q26 0 60 8
q11 3 19 -2t8 -14q0 -7 -6 -14z" />
    <glyph glyph-name="eogonek" unicode="&#x119;" horiz-adv-x="469" 
d="M423 397l-215 -195v-63q1 -20 12 -27l40 -25q16 -11 27 0h1l91 77q14 12 25 -2l6 -7q12 -14 -2 -25l-92 -77l-33 -31l-30 -33q-35 -41 -35 -66q0 -22 16 -36t36 -14q26 0 60 8q11 3 19 -2t8 -14q0 -7 -6 -14l-32 -40q-9 -11 -30 -21q-24 -12 -45 -12q-23 0 -43.5 8
t-35.5 22t-24 33.5t-9 42.5q0 54 69 119l-43 32q-19 14 -53 30q-15 7 -55 18q-20 5 -20 25v14q0 17 18 25l13 5q19 6 19 26v302q0 22 13 31l139 96q3 3 9 5q22 7 35 -12l146 -161q10 -10 10 -22q0 -13 -9 -20zM318 380l-111 124l-9 -7q10 -10 10 -35v-181z" />
    <glyph glyph-name="Gbreve" unicode="&#x11e;" horiz-adv-x="616" 
d="M450 882q0 -38 -63 -72q-37 -20 -102 -20q-57 0 -106 23q-58 28 -58 77q0 25 27 25q16 0 54 -27q38 -26 88 -26q37 0 78 26q40 27 55 27q27 0 27 -33zM556 26q0 -40 -29 -40q-17 0 -42 19q-14 11 -27 11q-16 0 -36 -10v1q-42 -19 -92 -19q-112 0 -187 78q-73 73 -73 177
v261q0 108 75 182q62 61 140 70q15 1 15 -11q0 -8 -8 -11q-34 -13 -67 -55q-37 -46 -37 -98v-334q0 -71 56 -125q56 -53 140 -53q22 0 40 3q14 5 14 20v220q0 23 -12 23q-6 0 -26 -16q-13 -9 -40.5 -32t-72.5 -61l-1 1q-23 -20 -33 -27q-28 -19 -35 -11l-4 5q-6 10 8 24
t14 46v349q0 24 17 38q37 29 64 52.5t46 40.5q16 16 31 16q19 0 33 -13q21 -20 39 -35t34 -23q21 -11 21 -28q0 -13 -12 -23l-18 -15q-19 -16 -48 -16q-31 0 -53 18l-41 34l-6 -5q10 -13 10 -36v-280l80 69q19 18 33 18q8 0 34 -15q7 -4 15.5 -9t19.5 -13q21 -15 21 -50
v-312z" />
    <glyph glyph-name="gbreve" unicode="&#x11f;" horiz-adv-x="529" 
d="M432 735q0 -38 -63 -72q-37 -20 -102 -20q-57 0 -106 23q-58 28 -58 77q0 25 27 25q16 0 54 -27q38 -26 88 -26q37 0 78 26q40 27 54 27q28 0 28 -33zM489 572l-21 -20q-15 -14 -15 -55v-405q0 -47 7 -68q5 -17 21 -32q8 -8 8 -20q0 -16 -11 -36l-63 -116q-8 -15 -26 -15
q-7 0 -14 4q-38 13 -96 27q-25 5 -70 5q-11 0 -23.5 -2t-28.5 -6q-39 -11 -55 -24q-3 -3 -7 -3q-9 0 -17 11.5t-8 26.5q0 21 17 38q32 35 101 101q8 6 8 13q0 8 -10 15l-68 43q-42 28 -42 61v363q0 22 13 31q23 13 55.5 34.5t76.5 50.5q18 15 29 15q2 0 43 -15l71 -27
q32 -12 52 0l41 36q13 12 25 -1l6 -7q11 -11 1 -23zM326 132v303q0 23 -15 29l-118 51l-11 -8q11 -14 11 -38v-309q0 -16 12 -28l58 -42q19 -13 33 1l20 18q10 10 10 23zM412 -81q5 11 -9 20q-21 13 -46 43q-29 35 -29 64v9q0 8 -4 9q-5 1 -9 -3l-46 -46l-115 -114l9 -9
q44 40 82 40q70 0 135 -35q15 -7 22 4z" />
    <glyph glyph-name="Iogonek" unicode="&#x12e;" horiz-adv-x="540" 
d="M351 750q5 -9 -6 -17q-20 -17 -35 -53q-17 -42 -17 -83v-323q0 -28 -35 -63l-77 -75q-6 -6 -11 -6q-8 0 -8 8q0 6 4 10l5 8q13 20 13 60v293q0 88 49 146l-9 11q-29 -13 -52 -13q-18 0 -31 4.5t-33 4.5q-28 0 -60 -19q-6 -3 -9 -3q-9 1 -9 10q0 8 9 20l26 37q34 49 78 49
q11 0 36 -7q28 -6 45 -6q68 0 107 11q3 2 12 4l4 -3zM470 750q2 -4 -2 -11t-8 -12q-8 -18 -8 -40l1 -501q0 -51 -28 -70q-17 -12 -40 -33t-51 -52q-10 -11 -19.5 -22t-19.5 -24q-30 -38 -30 -62q0 -22 16 -36t36 -14q26 0 60 8q11 3 19 -2t8 -14q0 -7 -6 -14l-32 -40
q-9 -11 -30 -21q-24 -12 -45 -12q-23 0 -43.5 8t-35.5 22t-24 33.5t-9 42.5q0 54 69 119q-77 20 -146 6q-17 -3 -45 -15q-7 -3 -13 1.5t-6 10.5v7q0 8 23 31l25 24q10 10 23 18t24 12q27 10 54 10q50 0 106 -9q34 -6 45 -18l11 11q-11 14 -11 39v452q0 71 34 117
q19 27 54 45q24 11 36 11q3 0 5 -2z" />
    <glyph glyph-name="iogonek" unicode="&#x12f;" horiz-adv-x="332" 
d="M203 733q13 -17 -5 -31l-66 -49q-17 -14 -31 5l-12 16q-14 17 5 31l66 48q17 14 31 -4zM327 129q11 -12 0 -23l-7 -8l-76 -85l-23 -24q-35 -41 -35 -66q0 -22 16 -36t36 -14q26 0 60 8q11 3 19 -2t8 -14q0 -7 -6 -14l-32 -40q-9 -11 -30 -21q-24 -12 -45 -12
q-23 0 -43.5 8t-35.5 22t-24 33.5t-9 42.5q0 56 73 123q-9 7 -26 18t-43 28q-27 16 -27 59v342q0 20 -4 27l-17 22q-6 7 -6 18q0 15 12 24l88 65q7 6 18 6q15 0 24 -11l34 -46q6 -8 6 -18q0 -15 -12 -24q-15 -12 -15 -36v-369q0 -31 26 -31q13 0 34 23l28 32l4 3
q14 11 30 -10z" />
    <glyph glyph-name="Idotaccent" unicode="&#x130;" horiz-adv-x="540" 
d="M340 855q0 -27 -19 -46t-46 -19t-46 19t-19 46q0 26 19 45t46 19t46 -19t19 -45zM351 750q5 -9 -6 -17q-20 -17 -35 -53q-17 -42 -17 -83v-323q0 -28 -35 -63l-77 -75q-6 -6 -11 -6q-8 0 -8 8q0 6 4 10l5 8q13 20 13 60v293q0 88 49 146l-9 11q-29 -13 -52 -13
q-18 0 -31 4.5t-33 4.5q-28 0 -60 -19q-6 -3 -9 -3q-9 1 -9 10q0 8 9 20l26 37q34 49 78 49q11 0 36 -7q28 -6 45 -6q68 0 107 11q3 2 12 4l4 -3zM470 750q2 -4 -2 -11t-8 -13q-8 -16 -8 -39l1 -501q0 -51 -28 -70q-11 -7 -24.5 -18.5t-30.5 -28.5q-38 -36 -55 -63
q-7 -13 -22 -13q-7 0 -37 8q-48 14 -97 14q-52 0 -84 -13q-4 -1 -18 -8q-7 -3 -13 1.5t-6 10.5v7q0 8 23 31l25 24q10 10 23 18t24 12q27 10 54 10q50 0 106 -9q34 -6 45 -18l11 11q-11 14 -11 39v452q0 71 34 117q19 27 54 45q24 11 36 11q3 0 5 -2z" />
    <glyph glyph-name="dotlessi" unicode="&#x131;" horiz-adv-x="337" 
d="M327 129q11 -12 0 -23l-7 -8l-80 -89q-15 -17 -31 -17q-13 0 -26 8q-11 8 -30.5 21t-48.5 32q-27 16 -27 59v342q0 20 -4 27l-17 22q-6 7 -6 18q0 15 12 24l88 65q7 6 18 6q15 0 24 -11l34 -46q6 -8 6 -18q0 -15 -12 -24q-15 -12 -15 -36v-369q0 -31 26 -31q13 0 34 23
l28 32l4 3q14 11 30 -10z" />
    <glyph glyph-name="Lslash" unicode="&#x141;" horiz-adv-x="634" 
d="M624 139q12 -8 0 -25l-8 -13q-4 -6 -21.5 -28t-49.5 -60q-17 -21 -34 -21q-18 0 -30 12q-37 35 -112 35q-53 0 -125 -19q-51 -13 -64 -18q-26 -10 -60 -10q-19 0 -37.5 5t-18.5 19q0 18 19 19l25 1q84 3 132 69q41 56 41 129v349q0 71 34 117q19 28 53 45q24 11 31 11
q3 0 5 -2l3 -4q2 -4 -2 -11t-8 -12q-7 -15 -7 -40v-190l58 27q7 4 12 -12q4 -21 0 -39q-2 -8 -12 -12l-58 -27l-1 -174q0 -87 -64 -151l4 -9q22 16 61 31t61 15q41 0 75 -23q22 -16 26 -16q10 0 18 9l15 18q4 7 18 15q7 1 13 -4zM294 750q5 -9 -5 -17l-5 -4
q-46 -46 -46 -132v-324q0 -106 -56 -159q-19 -17 -39 -26q-40 -15 -40 4q0 5 4 12l8 16q14 30 14 114v76l-43 -20q-19 -13 -21 8q-3 31 0 39q4 12 15 12l49 23v137q0 91 71 153l-6 5q-19 -13 -31 -13q-5 0 -12.5 1.5t-16 3t-16.5 2.5t-12 1q-8 0 -16 -3.5t-15.5 -7.5
t-14 -7.5t-10.5 -3.5q-15 0 5 30l23 37q18 30 29 39.5t31 9.5q5 0 27 -7q24 -6 35 -6q40 0 69 9q2 1 3 1t2 1q4 2 12 4l1 -1v1l4 -3z" />
    <glyph glyph-name="lslash" unicode="&#x142;" horiz-adv-x="319" 
d="M314 106l-11 -13l-76 -84q-15 -17 -31 -17q-13 0 -26 8q-11 8 -31.5 22t-50.5 33q-25 15 -25 61v222l-26 -12q-17 -6 -20 9q-5 24 0 39q4 12 15 12l31 14v258q0 23 -2 33q-5 16 -21 21q-20 5 -20 17q0 28 37 28q39 0 51 -40h12q15 40 56 40q50 0 50 -27q0 -17 -19 -18
q-15 -5 -15 -31v-220l51 23q7 4 12 -12q4 -21 0 -39q-2 -8 -12 -12l-51 -23v-286q0 -13 12 -22q10 -8 16 -8q13 0 32 22l29 32q12 13 25 1l7 -6q13 -12 1 -25z" />
    <glyph glyph-name="Nacute" unicode="&#x143;" horiz-adv-x="632" 
d="M393 968q6 -14 -4 -29l-86 -129q-11 -15 -25 -21q-7 -2 -26 10q-21 13 -22 18q-4 12 7 35l64 132q8 16 24 20q12 3 38 -11q25 -13 30 -25zM577 103q0 -7 -40 -80q-12 -21 -32 -21q-17 0 -39 7t-29 7q-15 0 -45 -13l-1 1q-5 -4 -14 -4q-23 0 -23 21q0 10 19 52l24 54
q64 170 64 286q0 76 -40 147q-47 84 -118 84q-7 0 -13 -6l-49 -49q-11 -14 -11 -26v-416q0 -26 20 -40t20 -26q0 -13 -35 -66q-17 -24 -31 -24q-11 0 -37 20q-40 31 -56 39q-29 15 -29 30q0 5 10.5 22t10.5 41v488q0 24 -11 24q-6 0 -13 -6l-33 -27q-15 -11 -25 2l-6 7
q-12 14 2 26l99 82q22 19 37 19q26 0 40 -11q9 -7 28 -34q9 -14 9 -43v-30l108 108q10 10 24 10q10 0 13 -1q195 -51 195 -256q0 -91 -40 -202q-13 -34 -34 -81.5t-51 -109.5l5 -5q14 11 29 11q7 0 23.5 -6.5t28.5 -6.5q-3 0 32 15q10 2 14 -13z" />
    <glyph glyph-name="nacute" unicode="&#x144;" horiz-adv-x="603" 
d="M385 822q5 -16 -5 -30l-86 -128q-9 -15 -25 -21q-5 -2 -26 10q-21 13 -22 18q-4 12 7 35l65 132q8 16 24 20q12 3 37 -12q27 -14 31 -24zM598 99l-27 -29l-53 -61q-15 -17 -31 -17q-15 0 -26 8q-10 8 -29 21.5t-48 31.5q-18 9 -18 40v354q0 23 -10 30l-41 31q-14 9 -24 0
l-56 -47q-13 -10 -13 -28v-289q0 -27 14 -38l16 -13q12 -11 12 -22q0 -8 -5 -16l-39 -45q-16 -19 -30 -19q-12 0 -26 11l-67 53q-24 10 -24 27q0 7 10.5 19.5t10.5 28.5v339q0 26 -5 33q-8 9 -17 0l-35 -32q-14 -14 -26 0l-6 7q-12 13 1 25l112 105q4 6 12 6q10 0 27 -13
l54 -40q11 -8 11 -25v-25h10q0 22 29 46l62 52q13 12 30 0l114 -84q16 -10 16 -49v-362q0 -30 28 -30q12 0 27 17l20 23l7 7q11 14 25 1l7 -6q13 -12 1 -26z" />
    <glyph glyph-name="OE" unicode="&#x152;" horiz-adv-x="904" 
d="M839 638l-18 -15q-19 -16 -49 -16t-52 18l-40 35l-8 -7q11 -14 11 -35v-199h10q9 27 38 27h92q18 0 18 -16q0 -9 -7 -16l-50 -53q-21 -22 -51 -22h-50v-31q0 -42 -27 -67q-3 -2 -12 -11q-8 -8 -23 -20.5t-38 -29.5q-25 -18 -32 -8l-4 5q-5 10 7 22t11 45v370q0 22 18 37
q37 29 64 52.5t46 40.5q16 16 31 16q19 0 33 -13q21 -20 39 -35t34 -23q21 -11 21 -28q0 -13 -12 -23zM851 79q-76 -91 -191 -91q-109 0 -182 73q-25 -23 -44 -35q-59 -34 -131 -34q-98 0 -166 68q-67 67 -67 160v233q0 77 49 123q34 31 66 51q7 3 13 3q15 0 15 -14
q0 -6 -4 -13q-12 -20 -12 -55v-340q0 -63 45 -106q45 -42 110 -42q51 0 97 34q-49 67 -49 149v298q0 63 -45 105q-44 43 -110 43q-64 0 -111 -46q-29 -27 -38 -27q-16 0 -16 16q0 10 7 20q32 45 76 71q59 34 132 34q105 0 171 -81q65 71 149 80q15 1 15 -11q0 -8 -8 -11
q-34 -13 -67 -55q-37 -46 -37 -98v-334q0 -71 56 -125q56 -53 140 -53q65 0 115 35q8 5 15 5q15 0 15 -13q0 -7 -8 -17z" />
    <glyph glyph-name="oe" unicode="&#x153;" horiz-adv-x="731" 
d="M672 396l-216 -195v-62q0 -20 12 -27l40 -25q16 -11 27 0h1l91 77q14 12 25 -2l6 -7q12 -14 -2 -25l-155 -130q-7 -7 -21 -7q-15 0 -22 4l-52 38q-12 9 -30 18q-17 -11 -32.5 -22t-29.5 -24q-14 -19 -37 -14q-10 1 -20.5 9.5t-26.5 12.5q-24 10 -72 24q-26 7 -46 11
t-34 5l-17 1q-31 1 -31 28v17q0 15 27 26l9 3q17 8 17 25v336q0 13 8 21q4 7 9 9q81 41 125 78q17 14 36 14q11 0 27 -8q21 -11 33 -15l92 -30l67 47q3 3 9 5q22 7 35 -12l147 -162q10 -10 10 -22q0 -11 -9 -20zM567 380l-112 124l-9 -7q10 -10 10 -35v-181zM347 85
q-13 13 -13 39v41v275q0 28 -18 34l-76 24q-27 9 -35 32l-13 -9q11 -13 13 -39v-41v-275q0 -28 18 -34l76 -24q27 -9 35 -32z" />
    <glyph glyph-name="Sacute" unicode="&#x15a;" horiz-adv-x="589" 
d="M409 969q6 -15 -4 -30l-86 -128q-9 -15 -25 -21q-5 -2 -26 10q-21 13 -22 18q-4 12 7 35l65 132q7 14 24 19q11 4 37 -11q25 -14 30 -24zM539 341q0 -59 -14 -59q-8 0 -17 15q-22 40 -79 63q-14 5 -50.5 14.5t-97.5 23.5q-95 23 -138 55q-60 49 -60 145q0 24 22 77
q22 58 42 70q16 12 54 12q14 0 38 -2.5t57 -7.5t57 -7.5t38 -2.5q52 0 80 11l12 5q9 4 18 4q15 0 15 -14q0 -6 -5 -16l-127 -229q73 -18 108 -48q47 -41 47 -109zM505 159q0 -31 -24 -86q-22 -54 -43 -70q-15 -12 -53 -12q-31 0 -86 13t-86 13q-73 0 -98 -15l-11 -6
q-10 -5 -21 -5q-12 3 -12 16q0 9 7 22l123 218q-74 21 -109 51q-42 37 -42 99q0 72 15 72q5 0 17 -19q24 -40 84 -65q22 -10 50.5 -18.5t64.5 -16.5q43 -9 72 -16t44 -12q108 -36 108 -163zM440 677l-9 4q-41 -48 -109 -48q-61 0 -127 25q-32 12 -37 12q-28 0 -28 -44
q0 -29 37 -57q48 -36 98 -45l32.5 -7.5t46.5 -9.5zM456 113q0 41 -46 72q-39 27 -85 34q-14 4 -35 8.5t-50 10.5l-98 -174l10 -5q16 29 52 48q32 17 64 17q40 0 95 -23q53 -22 66 -22q11 0 19 9.5t8 24.5z" />
    <glyph glyph-name="sacute" unicode="&#x15b;" horiz-adv-x="487" 
d="M321 822q5 -16 -5 -30l-86 -128q-9 -15 -25 -21q-5 -2 -26 10q-21 13 -22 18q-4 12 7 35l65 132q8 16 24 20q12 3 37 -12q27 -14 31 -24zM422 124q0 -31 -21 -44l-129 -81l-9 -5q-18 -6 -35 11l-112 79q-11 7 -16 2q-6 -7 -3 -19q4 -15 4 -28q0 -48 -22 -48q-24 0 -24 49
q0 25 18 51l93 135q9 12 -4 21l-77 51q-27 18 -27 50v134q0 30 21 44l129 81l10 5q17 6 35 -12l106 -74q11 -8 18 2t4 22t-3 24q0 40 21 40q23 0 23 -43q0 -28 -15 -44l-92 -132q-11 -14 2 -23l78 -56q27 -20 27 -51v-141zM334 466l-9 6q-25 -13 -47 -13q-24 0 -50 17
l-45 30l-8 -10q10 -10 10 -34v-58q0 -26 19 -39l41 -27zM305 110q-10 10 -10 34v76q0 23 -19 35l-40 26l-98 -140l9 -6q25 13 51 13q32 0 58 -19l41 -29z" />
    <glyph glyph-name="Scaron" unicode="&#x160;" horiz-adv-x="589" 
d="M464 956q0 -11 -20 -36l-86 -105q-24 -24 -55 -24q-37 0 -58 24l-86 105q-19 18 -19 38q0 8 7.5 16.5t15.5 8.5q18 0 34 -13l98 -79h15q24 22 90 72q25 20 42 20q7 0 14.5 -9.5t7.5 -17.5zM539 341q0 -59 -14 -59q-8 0 -17 15q-22 40 -79 63q-14 5 -50.5 14.5t-97.5 23.5
q-95 23 -138 55q-60 49 -60 145q0 24 22 77q22 58 42 70q16 12 54 12q14 0 38 -2.5t57 -7.5t57 -7.5t38 -2.5q52 0 80 11l12 5q9 4 18 4q15 0 15 -14q0 -6 -5 -16l-127 -229q73 -18 108 -48q47 -41 47 -109zM505 159q0 -31 -24 -86q-22 -54 -43 -70q-15 -12 -53 -12
q-31 0 -86 13t-86 13q-73 0 -98 -15l-11 -6q-10 -5 -21 -5q-12 3 -12 16q0 9 7 22l123 218q-74 21 -109 51q-42 37 -42 99q0 72 15 72q5 0 17 -19q24 -40 84 -65q22 -10 50.5 -18.5t64.5 -16.5q43 -9 72 -16t44 -12q108 -36 108 -163zM440 677l-9 4q-41 -48 -109 -48
q-61 0 -127 25q-32 12 -37 12q-28 0 -28 -44q0 -29 37 -57q48 -36 98 -45l32.5 -7.5t46.5 -9.5zM456 113q0 41 -46 72q-39 27 -85 34q-14 4 -35 8.5t-50 10.5l-98 -174l10 -5q16 29 52 48q32 17 64 17q40 0 95 -23q53 -22 66 -22q11 0 19 9.5t8 24.5z" />
    <glyph glyph-name="scaron" unicode="&#x161;" horiz-adv-x="487" 
d="M401 809q0 -10 -20 -36l-86 -104q-24 -24 -55 -24q-39 0 -58 24l-86 104q-19 18 -19 38q0 9 7.5 17t15.5 8q18 0 33 -12l98 -79h15q13 11 35.5 29t55.5 43q23 19 41 19q7 0 15 -9t8 -18zM422 124q0 -31 -21 -44l-129 -81l-9 -5q-18 -6 -35 11l-112 79q-11 7 -16 2
q-6 -7 -3 -19q4 -15 4 -28q0 -48 -22 -48q-24 0 -24 49q0 25 18 51l93 135q9 12 -4 21l-77 51q-27 18 -27 50v134q0 30 21 44l129 81l10 5q17 6 35 -12l106 -74q11 -8 18 2t4 22t-3 24q0 40 21 40q23 0 23 -43q0 -28 -15 -44l-92 -132q-11 -14 2 -23l78 -56q27 -20 27 -51
v-141zM334 466l-9 6q-25 -13 -47 -13q-24 0 -50 17l-45 30l-8 -10q10 -10 10 -34v-58q0 -26 19 -39l41 -27zM305 110q-10 10 -10 34v76q0 23 -19 35l-40 26l-98 -140l9 -6q25 13 51 13q32 0 58 -19l41 -29z" />
    <glyph glyph-name="Umacron" unicode="&#x16a;" horiz-adv-x="650" 
d="M521 832q0 -32 -39 -32h-309q-36 0 -36 32q0 34 36 34h309q39 0 39 -34zM422 494v-41v41zM635 122q12 -13 -2 -25l-96 -87q-21 -18 -40 -18q-23 0 -37 11q-10 7 -28 34q-10 13 -10 43v38h-8q-2 -19 -24 -41l-75 -75q-11 -11 -31 -11q-1 1 -2 1q-3 0 -5 1q-50 13 -89 38
t-67 60.5t-42.5 79t-14.5 94.5q0 89 39 196q21 55 83 184l-4 5q-13 -10 -30 -10q-6 0 -22.5 6t-28.5 6q-7 0 -18.5 -7.5t-14.5 -7.5q-13 0 -13 13q0 7 40 80q12 22 32 22q17 0 39 -7t28 -7q13 0 45 12q9 3 16 3q23 0 23 -21q0 -9 -18 -51l-24 -59q-35 -97 -45 -136
q-20 -78 -20 -149q0 -73 52 -149q57 -82 127 -82q6 0 12 6l50 49q10 11 10 26v448q0 16 -11 16q-7 0 -14 -7l-19 -17q-1 -1 -4 -3.5t-8 -6.5q-14 -12 -26 1l-6 7q-12 13 2 25l20 18l80 73q16 16 41 16q22 0 33 -9q15 -16 29 -35q9 -12 9 -40v-49q1 -2 1 -7v-492
q0 -21 17 -21q8 0 25 15l12 11q14 12 26 -1z" />
    <glyph glyph-name="umacron" unicode="&#x16b;" horiz-adv-x="600" 
d="M482 687q0 -32 -39 -32h-309q-36 0 -36 32q0 34 36 34h309q39 0 39 -34zM595 123q6 -13 -4 -22l-89 -81q-31 -28 -42 -28q-26 2 -38 11l-50 38q-21 16 -21 36v11h-10q0 -26 -30 -48l-56 -44q-15 -12 -31 0l-109 84q-15 12 -15 49l-1 363q0 19 -12 19q-8 0 -22 -11l-8 -7
l-21 -19q-13 -12 -25 1l-6 7q-12 13 1 25l93 87q20 19 35 19q7 0 27 -15q10 -8 33 -27q23 -18 23 -39v-380q0 -23 9 -30l36 -26q13 -9 24 0l51 42q13 10 13 28v294q0 27 -14 38l-16 13q-12 10 -12 22q0 8 5 16l39 45q16 19 30 19q12 0 26 -11l78 -58q13 -12 13 -25
q0 -3 -3.5 -9t-7 -13t-7 -14.5t-3.5 -13.5v-335q0 -37 28 -37q12 0 22 8l31 27l6 5q9 6 18 0l6 -6z" />
    <glyph glyph-name="Uogonek" unicode="&#x172;" horiz-adv-x="650" 
d="M422 494v-41v41zM635 122q11 -14 -2 -25l-79 -74q-7 -8 -15 -16t-16 -18q-35 -40 -35 -66q0 -22 16 -36t36 -14q26 0 60 8q11 3 19 -2t8 -14q0 -7 -6 -14l-32 -40q-9 -11 -30 -21q-24 -12 -45 -12q-23 0 -43.5 8t-35.5 22t-24 33.5t-9 42.5q0 53 64 114q-11 7 -34 39
q-10 13 -10 43v38h-8q-2 -19 -24 -41l-75 -75q-11 -11 -31 -11q-1 1 -2 1q-3 0 -5 1q-50 13 -89 38t-67 60.5t-42.5 79t-14.5 94.5q0 89 39 196q21 55 83 184l-4 5q-13 -10 -30 -10q-6 0 -22.5 6t-28.5 6q-7 0 -18.5 -7.5t-14.5 -7.5q-13 0 -13 13q0 7 40 80q12 22 32 22
q17 0 39 -7t28 -7q13 0 45 12q9 3 16 3q23 0 23 -21q0 -9 -18 -51l-24 -59q-35 -97 -45 -136q-20 -78 -20 -149q0 -73 52 -149q57 -82 127 -82q6 0 12 6l50 49q10 11 10 26v448q0 16 -11 16q-7 0 -14 -7l-19 -17q-1 -1 -4 -3.5t-8 -6.5q-14 -12 -26 1l-6 7q-12 13 2 25
l20 18l80 73q16 16 41 16q22 0 33 -9q15 -16 29 -35q9 -12 9 -40v-49q1 -2 1 -7v-492q0 -21 17 -21q8 0 25 15l12 11q14 12 26 -1z" />
    <glyph glyph-name="uogonek" unicode="&#x173;" horiz-adv-x="600" 
d="M595 123q6 -13 -4 -22l-79 -70q-20 -18 -36 -39q-35 -44 -35 -69q0 -22 16 -36t36 -14q26 0 60 8q11 3 19 -2t8 -14q0 -7 -6 -14l-32 -40q-9 -11 -30 -21q-24 -12 -45 -12q-23 0 -43.5 8t-35.5 22t-24 33.5t-9 42.5q0 54 69 119l-52 38q-21 16 -21 36v11h-10
q0 -26 -30 -48l-56 -44q-15 -12 -31 0l-109 84q-15 12 -15 49l-1 363q0 19 -12 19q-8 0 -22 -11l-8 -7l-21 -19q-13 -12 -25 1l-6 7q-12 13 1 25l93 87q20 19 35 19q7 0 27 -15q10 -8 33 -27q23 -18 23 -39v-380q0 -23 9 -30l36 -26q13 -9 24 0l51 42q13 10 13 28v294
q0 27 -14 38l-16 13q-12 10 -12 22q0 8 5 16l39 45q16 19 30 19q12 0 26 -11l78 -58q13 -12 13 -25q0 -3 -3.5 -9t-7 -13t-7 -14.5t-3.5 -13.5v-335q0 -37 28 -37q12 0 22 8l31 27l6 5q9 6 18 0l6 -6z" />
    <glyph glyph-name="Ydieresis" unicode="&#x178;" horiz-adv-x="641" 
d="M483 847q0 -24 -17 -40.5t-40 -16.5t-39.5 16.5t-16.5 40.5q0 23 16.5 39t39.5 16t40 -16.5t17 -38.5zM286 847q0 -24 -17 -40.5t-40 -16.5t-39.5 16.5t-16.5 40.5q0 23 16.5 39t39.5 16t40 -16.5t17 -38.5zM422 494v-41v41zM598 8q2 -22 -17 -52l-77 -136
q-9 -16 -30 -16q-10 0 -18 4q-14 5 -39.5 12t-61.5 16q-59 10 -114 6q-69 -4 -107 -33q-5 -3 -10 -3q-21 0 -21 39q0 40 31 68l131 117q-99 19 -152 85q-50 62 -50 150t39 195q20 58 81 184l-4 4q-11 -8 -30 -8q-6 0 -21 6t-27 6q-5 0 -17.5 -7t-17.5 -7q-13 0 -11 12
q0 8 40 81q12 21 32 21q13 0 37 -8q21 -7 27 -7q18 0 47 12q12 5 17 5q23 0 23 -23q0 -9 -19 -53l-24 -56q-17 -48 -28 -82t-16 -54q-20 -78 -20 -149q0 -175 197 -214l43 40q11 13 11 24v449q0 16 -11 16q-6 0 -13 -6l-30 -27q-13 -12 -25 1l-6 7q-12 13 1 25l85 77l6 3
l7 7q18 18 42 18q21 0 30 -9q7 -7 15 -15.5t16 -19.5t8 -28v-576q0 -44 21 -62l14 -12q14 -12 16 -27zM524 -64q7 13 -8 25l-62 52q-33 27 -33 60v43h-10l-205 -186l9 -11q46 37 119 37q67 0 163 -37q15 -5 21 7z" />
    <glyph glyph-name="Zacute" unicode="&#x179;" horiz-adv-x="617" 
d="M412 970q5 -16 -5 -30l-86 -128q-9 -15 -25 -21q-5 -2 -26 10q-21 13 -22 18q-4 12 7 35l65 132q8 16 24 20q12 3 37 -12q27 -14 31 -24zM583 733q0 -18 -20 -18l-25 -1q-81 -5 -124 -56q-24 -29 -58 -111l-152 -366q-23 -56 -53 -80q-20 -17 -45 -21q-5 -1 -12 -1.5
t-17 -0.5q-22 1 -25 6l-3 4q-2 3 2 9l9 13.5t11 15.5t9 16l156 379q27 65 91 120l-5 8q-44 -24 -91 -24q-9 0 -20.5 2.5t-23.5 5t-23.5 5t-20.5 2.5q-22 0 -52 -14q-27 -13 -34 -13q-20 0 -9 27l27 63q22 54 82 54q24 0 49 -3t51 -8q55 -12 84 -12q24 0 68 9q48 11 67 12
q25 3 50 3q19 0 38 -5t19 -20zM587 128l-5 -15l-41 -99q-8 -21 -34 -21q-13 0 -26 12q-34 34 -149 34q-52 0 -122 -18q-53 -14 -63 -18q-27 -10 -60 -10q-20 0 -38.5 5t-18.5 20q0 17 19 18l25 1q80 3 130 56q31 34 62 111l152 366q24 57 53 80q21 15 45 21q9 1 30 0
q22 -2 25 -4l3 -4q1 -3 -2.5 -9t-9 -13.5t-11.5 -16t-9 -15.5l-159 -386q-29 -68 -86 -113l5 -9q76 42 139 42q41 0 60 -17q13 -11 19 -11q12 0 17 11l8 17q9 18 24 11l8 -3q16 -7 10 -23z" />
    <glyph glyph-name="zacute" unicode="&#x17a;" horiz-adv-x="400" 
d="M265 822q6 -15 -4 -30l-86 -128q-11 -15 -26 -21q-6 -2 -25 10q-21 13 -22 18q-4 13 6 35l65 132q8 16 24 20q12 3 38 -12q25 -14 30 -24zM330 86q0 -65 -55 -129q-21 -24 -81 -72q-34 -26 -61 -45.5t-49 -30.5q-6 -3 -11 -3q-14 0 -14 13q0 7 7 13q55 47 91 98
q45 61 45 105v148q0 46 -4 62q-4 21 -23 43l-14 18q-15 18 -35 18q-11 0 -21 -6l-45 -34q-14 -11 -25 3l-6 7q-11 14 4 25l128 99q17 14 17 29q0 9 -8 20l-25 33q-10 13 -23 13q-12 0 -25 -10l-16 -11l-41 -30q-14 -11 -25 5l-5 7q-11 16 4 26l145 104q13 9 30 9
q24 0 36 -14l67 -81q9 -12 9 -23q0 -17 -20 -32l-49 -38q-19 -15 -19 -28q0 -14 20 -19q36 -9 61 -39q36 -42 36 -112v-141z" />
    <glyph glyph-name="Zdotaccent" unicode="&#x17b;" horiz-adv-x="617" 
d="M377 855q0 -27 -19 -46t-46 -19q-26 0 -45 19t-19 46t19 46t45 19q27 0 46 -19t19 -46zM583 733q0 -18 -20 -18l-25 -1q-81 -5 -124 -56q-24 -29 -58 -111l-152 -366q-23 -56 -53 -80q-20 -17 -45 -21q-5 -1 -12 -1.5t-17 -0.5q-22 1 -25 6l-3 4q-2 3 2 9l9 13.5t11 15.5
t9 16l156 379q27 65 91 120l-5 8q-44 -24 -91 -24q-9 0 -20.5 2.5t-23.5 5t-23.5 5t-20.5 2.5q-22 0 -52 -14q-27 -13 -34 -13q-20 0 -9 27l27 63q22 54 82 54q24 0 49 -3t51 -8q55 -12 84 -12q24 0 68 9q48 11 67 12q25 3 50 3q19 0 38 -5t19 -20zM587 128l-5 -15l-41 -99
q-8 -21 -34 -21q-13 0 -26 12q-34 34 -149 34q-52 0 -122 -18q-53 -14 -63 -18q-27 -10 -60 -10q-20 0 -38.5 5t-18.5 20q0 17 19 18l25 1q80 3 130 56q31 34 62 111l152 366q24 57 53 80q21 15 45 21q9 1 30 0q22 -2 25 -4l3 -4q1 -3 -2.5 -9t-9 -13.5t-11.5 -16t-9 -15.5
l-159 -386q-29 -68 -86 -113l5 -9q76 42 139 42q41 0 60 -17q13 -11 19 -11q12 0 17 11l8 17q9 18 24 11l8 -3q16 -7 10 -23z" />
    <glyph glyph-name="zdotaccent" unicode="&#x17c;" horiz-adv-x="401" 
d="M238 708q0 -27 -18.5 -46t-45.5 -19t-46 19t-19 46t19 46t46 19t45.5 -19t18.5 -46zM330 86q0 -65 -55 -129q-21 -24 -81 -72q-34 -26 -61 -45.5t-49 -30.5q-6 -3 -11 -3q-14 0 -14 13q0 7 7 13q55 47 91 98q45 61 45 105v148q0 46 -4 62q-4 21 -23 43l-14 18
q-15 18 -35 18q-11 0 -21 -6l-45 -34q-14 -11 -25 3l-6 7q-11 14 4 25l128 99q17 14 17 29q0 9 -8 20l-25 33q-10 13 -23 13q-12 0 -25 -10l-16 -11l-41 -30q-14 -11 -25 5l-5 7q-11 16 4 26l145 104q13 9 30 9q24 0 36 -14l67 -81q9 -12 9 -23q0 -17 -20 -32l-49 -38
q-19 -15 -19 -28q0 -14 20 -19q36 -9 61 -39q36 -42 36 -112v-141z" />
    <glyph glyph-name="Zcaron" unicode="&#x17d;" horiz-adv-x="617" 
d="M486 955q0 -11 -20 -36l-86 -104q-24 -25 -55 -25q-39 0 -58 25l-86 104q-19 18 -19 38q0 9 7.5 17t15.5 8q17 0 34 -12l98 -79h15q24 22 90 72q23 19 41 19q8 0 15.5 -9t7.5 -18zM583 733q0 -18 -20 -18l-25 -1q-81 -5 -124 -56q-24 -29 -58 -111l-152 -366
q-23 -56 -53 -80q-20 -17 -45 -21q-5 -1 -12 -1.5t-17 -0.5q-22 1 -25 6l-3 4q-2 3 2 9l9 13.5t11 15.5t9 16l156 379q27 65 91 120l-5 8q-44 -24 -91 -24q-9 0 -20.5 2.5t-23.5 5t-23.5 5t-20.5 2.5q-22 0 -52 -14q-27 -13 -34 -13q-20 0 -9 27l27 63q22 54 82 54
q24 0 49 -3t51 -8q55 -12 84 -12q24 0 68 9q48 11 67 12q25 3 50 3q19 0 38 -5t19 -20zM587 128l-5 -15l-41 -99q-8 -21 -34 -21q-13 0 -26 12q-34 34 -149 34q-52 0 -122 -18q-53 -14 -63 -18q-27 -10 -60 -10q-20 0 -38.5 5t-18.5 20q0 17 19 18l25 1q80 3 130 56
q31 34 62 111l152 366q24 57 53 80q21 15 45 21q9 1 30 0q22 -2 25 -4l3 -4q1 -3 -2.5 -9t-9 -13.5t-11.5 -16t-9 -15.5l-159 -386q-29 -68 -86 -113l5 -9q76 42 139 42q41 0 60 -17q13 -11 19 -11q12 0 17 11l8 17q9 18 24 11l8 -3q16 -7 10 -23z" />
    <glyph glyph-name="zcaron" unicode="&#x17e;" horiz-adv-x="400" 
d="M334 808q0 -10 -20 -36l-86 -104q-24 -24 -55 -24q-39 0 -58 24l-86 104q-19 18 -19 38q0 9 7.5 17t15.5 8q17 0 34 -12l98 -79h15q24 22 90 72q23 19 41 19q8 0 15.5 -9t7.5 -18zM330 86q0 -65 -55 -129q-21 -24 -81 -72q-34 -26 -61 -45.5t-49 -30.5q-6 -3 -11 -3
q-14 0 -14 13q0 7 7 13q55 47 91 98q45 61 45 105v148q0 46 -4 62q-4 21 -23 43l-14 18q-15 18 -35 18q-11 0 -21 -6l-45 -34q-14 -11 -25 3l-6 7q-11 14 4 25l128 99q17 14 17 29q0 9 -8 20l-25 33q-10 13 -23 13q-12 0 -25 -10l-16 -11l-41 -30q-14 -11 -25 5l-5 7
q-11 16 4 26l145 104q13 9 30 9q24 0 36 -14l67 -81q9 -12 9 -23q0 -17 -20 -32l-49 -38q-19 -15 -19 -28q0 -14 20 -19q36 -9 61 -39q36 -42 36 -112v-141z" />
    <glyph glyph-name="florin" unicode="&#x192;" horiz-adv-x="555" 
d="M525 690q0 -15 -7 -33q-3 -11 -11 -11q-7 0 -18.5 3t-17.5 3q-29 0 -50 -21q-20 -20 -26 -48q-3 -14 -9 -43.5t-14 -74.5h65q41 0 41 -22q0 -29 -23 -29h-91l-71 -414q-21 -119 -37 -151q-34 -73 -124 -73q-40 0 -73 10q-19 6 -19 19q0 6 6 29q4 15 17 15q5 0 15.5 -2.5
t16.5 -2.5q45 0 68 59q8 19 22 98l73 413h-85q-23 0 -23 24q0 20 17 25q10 2 34 2h61q5 25 9.5 50t9.5 51q33 157 149 157q28 0 55 -6q40 -9 40 -27z" />
    <glyph glyph-name="circumflex" unicode="&#x2c6;" horiz-adv-x="542" 
d="M437 668q0 -9 -7.5 -17t-15.5 -8q-19 0 -34 12l-98 79h-15q-26 -23 -90 -72q-25 -19 -42 -19q-7 0 -14.5 9t-7.5 18q0 10 20 36l85 104q24 24 56 24q37 0 57 -24l87 -104q19 -18 19 -38z" />
    <glyph glyph-name="caron" unicode="&#x2c7;" horiz-adv-x="542" 
d="M437 807q0 -10 -20 -36l-86 -104q-24 -24 -55 -24q-39 0 -58 24l-86 104q-19 18 -19 38q0 9 7.5 17t15.5 8q18 0 33 -12l98 -79h15q13 11 35.5 29t55.5 43q23 19 41 19q8 0 15.5 -9t7.5 -18z" />
    <glyph glyph-name="breve" unicode="&#x2d8;" horiz-adv-x="529" 
d="M432 735q0 -38 -63 -72q-37 -20 -102 -20q-57 0 -106 23q-58 28 -58 77q0 25 27 25q16 0 54 -27q38 -26 88 -26q37 0 78 26q40 27 54 27q28 0 28 -33z" />
    <glyph glyph-name="dotaccent" unicode="&#x2d9;" horiz-adv-x="469" 
d="M311 708q0 -27 -19 -46t-46 -19q-26 0 -45 19t-19 46t19 46t45 19q27 0 46 -19t19 -46z" />
    <glyph glyph-name="ring" unicode="&#x2da;" horiz-adv-x="542" 
d="M372 735q0 -38 -26.5 -64.5t-64.5 -26.5t-64.5 26.5t-26.5 64.5t26.5 64.5t64.5 26.5t64.5 -26.5t26.5 -64.5zM323 735q0 42 -42 42t-42 -42t42 -42t42 42z" />
    <glyph glyph-name="ogonek" unicode="&#x2db;" horiz-adv-x="595" 
d="M578 -149l-32 -40q-9 -11 -30 -21q-24 -12 -45 -12q-23 0 -43.5 8t-35.5 22t-24 33.5t-9 42.5q0 38 31 78q17 21 62 63q16 15 50 15q17 0 17 -6q0 -3 -3 -6l-36 -39q-35 -41 -35 -66q0 -22 16 -36t36 -14q26 0 60 8q11 3 19 -2t8 -14q0 -7 -6 -14z" />
    <glyph glyph-name="tilde" unicode="&#x2dc;" horiz-adv-x="542" 
d="M435 745q0 -101 -71 -101q-34 0 -91 25q-56 25 -77 25q-16 0 -34 -18q-19 -17 -21 -17q-10 3 -10 17q0 39 18 66q20 32 57 32q27 0 83 -24q57 -23 84 -23q15 0 32 15q16 16 20 16q10 0 10 -13z" />
    <glyph glyph-name="hungarumlaut" unicode="&#x2dd;" horiz-adv-x="486" 
d="M404 664q0 -5 -6 -12l-95 -109q-9 -10 -39 -10q-27 0 -27 8q0 3 3 6l78 116q9 13 49 13q37 0 37 -12zM237 664q0 -6 -6 -13l-93 -108q-9 -10 -37 -10q-26 0 -26 8q0 2 2 6l73 115q9 14 47 14q40 0 40 -12z" />
    <glyph glyph-name="uni0394" unicode="&#x394;" horiz-adv-x="613" 
d="M594 50q4 -8 4 -18q0 -32 -41 -32h-499q-43 0 -43 35q0 7 3 15l243 696q14 35 42 35q29 0 41 -35zM468 97l-165 474l-158 -474h323z" />
    <glyph glyph-name="uni0394" unicode="&#x2206;" horiz-adv-x="613" 
d="M594 50q4 -8 4 -18q0 -32 -41 -32h-499q-43 0 -43 35q0 7 3 15l243 696q14 35 42 35q29 0 41 -35zM468 97l-165 474l-158 -474h323z" />
    <glyph glyph-name="uni03A9" unicode="&#x3a9;" horiz-adv-x="698" 
d="M648 28q0 -29 -30 -29h-187q-26 0 -26 32v55q0 15 33 41q42 35 61 65q33 55 33 138q0 79 -52 143q-56 69 -128 69q-78 0 -133 -66q-52 -61 -52 -140q0 -91 35 -149q10 -17 26 -32.5t38 -31.5q34 -24 34 -38v-6.5t1 -10.5v-19q0 -50 -35 -50h-186q-24 0 -29 20q-1 3 -1 39
q0 26 30 26h136q-70 49 -101 93q-45 64 -45 155q0 124 90 207q83 74 190 74q124 0 205 -87q77 -83 77 -196q0 -162 -147 -246h133q23 0 29 -18q1 -4 1 -38z" />
    <glyph glyph-name="uni03A9" unicode="&#x2126;" horiz-adv-x="698" 
d="M648 28q0 -29 -30 -29h-187q-26 0 -26 32v55q0 15 33 41q42 35 61 65q33 55 33 138q0 79 -52 143q-56 69 -128 69q-78 0 -133 -66q-52 -61 -52 -140q0 -91 35 -149q10 -17 26 -32.5t38 -31.5q34 -24 34 -38v-6.5t1 -10.5v-19q0 -50 -35 -50h-186q-24 0 -29 20q-1 3 -1 39
q0 26 30 26h136q-70 49 -101 93q-45 64 -45 155q0 124 90 207q83 74 190 74q124 0 205 -87q77 -83 77 -196q0 -162 -147 -246h133q23 0 29 -18q1 -4 1 -38z" />
    <glyph glyph-name="pi" unicode="&#x3c0;" horiz-adv-x="556" 
d="M531 35q0 -13 -8 -24t-21 -11h-33q-110 0 -110 99v410h-163v-455q0 -53 -31 -54h-44q-26 0 -26 26v483h-32q-32 0 -32 25q0 7 4 14l22 36q13 21 35 21h416q9 0 17.5 -8.5t8.5 -18.5q0 -8 -4 -13l-18 -29q-17 -27 -36 -27h-16v-376q0 -25 9 -34q10 -8 35 -8q27 0 27 -28
v-28z" />
    <glyph glyph-name="endash" unicode="&#x2013;" horiz-adv-x="413" 
d="M383 302q0 -12 -12 -12h-349q-12 0 -12 12v57q0 12 12 12h349q12 0 12 -12v-57z" />
    <glyph glyph-name="emdash" unicode="&#x2014;" horiz-adv-x="543" 
d="M513 301q0 -12 -12 -12h-479q-12 0 -12 12v58q0 12 12 12h479q12 0 12 -12v-58z" />
    <glyph glyph-name="quoteleft" unicode="&#x2018;" horiz-adv-x="194" 
d="M154 601q0 -26 -19.5 -46t-46.5 -20q-28 0 -48 20q-25 25 -25 80q0 45 25 86q30 48 71 48q15 0 15 -14q0 -3 -17 -26q-16 -22 -16 -47q0 -1 3 -14q25 -3 41.5 -22.5t16.5 -44.5z" />
    <glyph glyph-name="quoteright" unicode="&#x2019;" horiz-adv-x="174" 
d="M159 661q0 -45 -25 -86q-30 -48 -71 -48q-15 0 -15 14q0 3 17 26t17 47q0 2 -4 14q-25 3 -41.5 22.5t-16.5 44.5q0 26 19.5 46t46.5 20q28 0 48 -20q25 -26 25 -80z" />
    <glyph glyph-name="quotesinglbase" unicode="&#x201a;" horiz-adv-x="174" 
d="M159 25q0 -45 -25 -86q-30 -48 -71 -48q-15 0 -15 14q0 3 17 26t17 47q0 2 -4 14q-25 3 -41.5 22.5t-16.5 44.5q0 26 19.5 46t46.5 20q28 0 48 -20q25 -26 25 -80z" />
    <glyph glyph-name="quotedblleft" unicode="&#x201c;" horiz-adv-x="379" 
d="M339 601q0 -26 -19.5 -46t-46.5 -20q-28 0 -48 20q-25 25 -25 80q0 45 25 86q30 48 71 48q15 0 15 -14q0 -3 -17 -26q-16 -22 -16 -47q0 -1 3 -14q25 -3 41.5 -22.5t16.5 -44.5zM164 601q0 -26 -19.5 -46t-46.5 -20q-28 0 -48 20q-25 25 -25 80q0 45 25 86q30 48 71 48
q15 0 15 -14q0 -3 -17 -26q-16 -22 -16 -47q0 -1 3 -14q25 -3 41.5 -22.5t16.5 -44.5z" />
    <glyph glyph-name="quotedblright" unicode="&#x201d;" horiz-adv-x="349" 
d="M334 663q0 -45 -25 -86q-30 -48 -71 -48q-15 0 -15 14q0 3 17 26t17 47q0 2 -4 14q-25 3 -41.5 22.5t-16.5 44.5q0 26 19.5 46t46.5 20q28 0 48 -20q25 -26 25 -80zM159 663q0 -45 -25 -86q-30 -48 -71 -48q-15 0 -15 14q0 3 17 26t17 47q0 2 -4 14q-25 3 -41.5 22.5
t-16.5 44.5q0 26 19.5 46t46.5 20q28 0 48 -20q25 -26 25 -80z" />
    <glyph glyph-name="quotedblbase" unicode="&#x201e;" horiz-adv-x="349" 
d="M334 25q0 -45 -25 -86q-30 -48 -71 -48q-15 0 -15 14q0 3 17 26t17 47q0 2 -4 14q-25 3 -41.5 22.5t-16.5 44.5q0 26 19.5 46t46.5 20q28 0 48 -20q25 -26 25 -80zM159 25q0 -45 -25 -86q-30 -48 -71 -48q-15 0 -15 14q0 3 17 26t17 47q0 2 -4 14q-25 3 -41.5 22.5
t-16.5 44.5q0 26 19.5 46t46.5 20q28 0 48 -20q25 -26 25 -80z" />
    <glyph glyph-name="dagger" unicode="&#x2020;" horiz-adv-x="561" 
d="M511 425q0 -37 -53 -32l-152 15l17 -553q2 -65 -34 -65h-37q-42 0 -40 63l18 555l-156 -15q-54 -5 -54 34v22q0 16 15 25t37 7l159 -16q-18 197 -17 197q-2 47 30 47h49q33 0 28 -47l-16 -197l158 16q48 4 48 -33v-23z" />
    <glyph glyph-name="daggerdbl" unicode="&#x2021;" horiz-adv-x="564" 
d="M514 425q0 -37 -53 -32l-153 15v-317l150 14q53 5 53 -31v-23q0 -38 -48 -33l-158 15l16 -196q5 -47 -28 -47h-49q-32 0 -30 47q-1 0 17 196l-159 -15q-22 -2 -37 6.5t-15 25.5v22q0 37 54 33l158 -14v317l-155 -15q-54 -5 -54 34v22q0 16 15 25t37 7l159 -16
q-18 197 -17 197q-2 47 30 47h49q33 0 28 -47l-16 -197l158 16q48 4 48 -33v-23z" />
    <glyph glyph-name="bullet" unicode="&#x2022;" horiz-adv-x="405" 
d="M335 370q0 -68 -49 -117q-48 -48 -116 -48t-117 48q-48 49 -48 117t48 116q49 49 117 49t116 -49q49 -48 49 -116z" />
    <glyph glyph-name="ellipsis" unicode="&#x2026;" horiz-adv-x="591" 
d="M561 58q0 -27 -19.5 -46.5t-46.5 -19.5t-46.5 19.5t-19.5 46.5t19.5 46.5t46.5 19.5t46.5 -19.5t19.5 -46.5zM361 58q0 -27 -19 -46.5t-47 -19.5q-27 0 -46 19.5t-19 46.5t19 46.5t46 19.5q28 0 47 -19.5t19 -46.5zM162 58q0 -27 -19.5 -46.5t-46.5 -19.5t-46.5 19.5
t-19.5 46.5t19.5 46.5t46.5 19.5t46.5 -19.5t19.5 -46.5z" />
    <glyph glyph-name="perthousand" unicode="&#x2030;" horiz-adv-x="1169" 
d="M1124 83q0 -10 -2 -16q-3 -8 -13 -12q-53 -23 -84 -53q-10 -13 -33 -10q-10 5 -40 15q-33 13 -59.5 20t-46.5 8l-12 1q-22 1 -22 20v12q0 11 19 18l6 2q12 4 12 17v264q0 10 6 15q3 4 6 6q28 14 49.5 28t37.5 27q11 10 33 10q8 0 22 -6l27 -10l75 -25q19 -6 19 -27v-304z
M774 83q0 -10 -2 -16q-3 -8 -13 -12q-53 -23 -84 -53q-10 -13 -33 -10q-10 5 -40 15q-33 13 -59.5 20t-46.5 8l-12 1q-22 1 -22 20v12q0 11 19 18l6 2q12 4 12 17v264q0 10 6 15q3 4 6 6q28 14 49.5 28t37.5 27q11 10 33 10q8 0 22 -6l27 -10l75 -25q19 -6 19 -27v-304z
M337 383q0 -10 -2.5 -16.5t-12.5 -11.5q-53 -23 -84 -53q-10 -13 -33 -10q-5 2 -14.5 6.5t-25.5 9.5q-65 25 -106 28h-12q-22 1 -22 20v12q0 11 19 18l6 2q12 4 12 18v264q0 9 4 14t8 7q55 28 87 54q11 10 33 10q7 0 22 -5q11 -5 18 -7.5t9 -3.5l75 -25q19 -6 19 -27v-304z
M603 621l-376 -605q-9 -16 -27 -16h-30q-20 0 -10 19l374 601q9 13 22 13h41q13 0 6 -12zM1048 56q-9 10 -9 28v28v222q0 20 -13 23l-67 17q-19 4 -25 23l-9 -7q9 -11 9 -27v-29l1 -221q0 -20 12 -24l67 -16q19 -4 25 -23zM698 56q-9 10 -9 28v28v222q0 20 -13 23l-67 17
q-19 4 -25 23l-9 -7q9 -11 9 -27v-29l1 -221q0 -20 12 -24l67 -16q19 -4 25 -23zM261 357q-9 10 -9 27v29l-1 221q0 19 -12 24l-67 17q-19 4 -25 22l-9 -6q9 -11 9 -28v-28v-222q0 -20 13 -23l67 -17q19 -4 25 -23z" />
    <glyph glyph-name="guilsinglleft" unicode="&#x2039;" horiz-adv-x="298" 
d="M258 28q5 -8 5 -13q0 -15 -24 -15h-40q-26 0 -48 28l-116 169q-8 13 -8 22q0 10 8 23l113 163q25 33 52 33h37q23 0 23 -18q0 -8 -6 -15l-126 -186z" />
    <glyph glyph-name="guilsinglright" unicode="&#x203a;" horiz-adv-x="298" 
d="M263 197l-116 -169q-24 -28 -48 -28h-40q-24 0 -24 15q0 5 5 13l130 191q-32 47 -63.5 93t-63.5 93q-5 8 -5 15q0 18 23 18h37q26 0 52 -33q16 -22 43.5 -62.5t68.5 -100.5q9 -12 9 -23q0 -9 -8 -22z" />
    <glyph glyph-name="Euro" unicode="&#x20ac;" horiz-adv-x="589" 
d="M542 456l-19 -22q-15 -18 -38 -18h-113v-31h69q21 0 21 -17q0 -8 -7 -15l-23 -22q-20 -18 -38 -18h-22v-5q0 -29 -10 -45l-29 -33q-8 -8 -23 -20.5t-38 -29.5q-25 -18 -32 -8l-4 5q-5 10 7 22t12 45l-1 370q0 22 18 37q37 29 64.5 52.5t45.5 40.5q16 16 31 16
q20 0 33 -13q21 -20 39 -35t34 -23q22 -10 22 -28q0 -13 -13 -23l-18 -15q-19 -16 -48 -16q-31 0 -53 18l-41 34l-6 -5q10 -13 10 -36v-130h156q21 0 21 -16q0 -9 -7 -16zM540 79q-76 -91 -191 -91q-112 0 -187 78q-73 73 -73 177v70h-54q-15 0 -15 13q0 8 9 19l18 19
q19 21 42 21v31h-54q-15 0 -15 13q0 8 9 19l18 19q19 21 42 21v16q0 108 75 182q62 61 140 70q15 1 15 -11q0 -8 -8 -11q-35 -14 -67 -55q-37 -46 -37 -98v-334q0 -71 56 -125q56 -53 140 -53q66 0 116 35q8 5 14 5q15 0 15 -13q0 -7 -8 -17z" />
    <glyph glyph-name="trademark" unicode="&#x2122;" horiz-adv-x="667" 
d="M637 433q-5 -13 -9.5 -23.5t-9.5 -18.5q-4 -10 -16 -10q-9 0 -18.5 3t-11.5 3q-7 0 -17.5 -3.5t-13.5 -3.5q-12 0 -12 11l20 58q31 84 31 137q0 100 -65 115q-5 1 -9 0q-5 -2 -5 -6q0 -6 6 -30q7 -21 7 -36q0 -63 -60 -195q7 6 16 6q4 0 11.5 -3.5t12.5 -3.5q3 0 9 3.5
t9 3.5h-1q7 0 7 -7q-5 -13 -10 -23.5t-9 -18.5q-6 -10 -17 -10q-8 0 -18 3t-11 3q-8 0 -16 -2.5t-9 -3.5h-1q-2 -1 -6 -1q-13 0 -13 11q0 1 21 58q31 84 31 137q0 99 -65 114q-8 1 -12 0q-7 -4 -7 -14v-231q0 -14 10 -21.5t10 -14.5q0 -4 -6 -11q-21 -32 -30 -32t-16 7
q-12 12 -25 20q-17 11 -17 19q0 3 5.5 10.5t5.5 17.5v244q0 11 -6 11q-4 0 -11 -7l-10 -9q-7 -6 -13 1l-3 3q-6 7 1 13l54 48q8 5 16 5q11 0 17 -6q18 -18 18 -29l25 27q7 7 16 7q17 0 38.5 -13t33.5 -28l33 36q5 5 16 5q42 0 71 -45q25 -38 25 -83q0 -49 -19 -100l-39 -95
q7 5 13 5q4 0 11.5 -3.5t12.5 -3.5q3 0 9 3.5t9 3.5h1h-1q6 0 6 -7zM266 744l-6 -14q-15 -34 -43 -34q-7 0 -26 3l-6 1q-11 2 -11 -13v-145q0 -16 -12 -26l-36 -37l-7 -4q-6 -3 -9 1q-4 3 1 8l2 2q6 9 6 24v124q0 50 25 66v4q-56 6 -54 6q-27 0 -41 -8t-15 -8q-3 0 -5 2
q-2 5 1 12l9 21q12 30 57 30q22 0 47 -5q23 -4 38.5 -5t36.5 -1q18 0 35 6l12 5q2 0 4 -2q1 -3 -3 -13zM262 421q-38 -45 -96 -45q-56 0 -93 37t-37 90v106q0 16 16 31l45 44q4 4 8 3q3 -3 -1 -9l-2 -4q-7 -10 -7 -33v-136q0 -36 28 -62.5t70 -26.5q32 0 58 17q3 3 7 3
q8 0 8 -7q0 -4 -4 -8z" />
    <glyph glyph-name="partialdiff" unicode="&#x2202;" horiz-adv-x="585" 
d="M530 273q0 -124 -58 -201q-64 -88 -186 -88q-128 0 -196 92q-59 82 -59 212q0 118 56 201q66 95 181 95q86 0 151 -68q-18 66 -78 139q-27 33 -55 57l-20 17q-8 11 -8 21q0 18 23 18h29q22 0 49 -22t62 -65q62 -76 88 -181q21 -89 21 -227zM422 292q0 86 -28 145
q-36 80 -108 80q-80 0 -118 -80q-29 -61 -29 -152q0 -88 31 -149q40 -79 117 -79q135 0 135 235z" />
    <glyph glyph-name="product" unicode="&#x220f;" horiz-adv-x="762" 
d="M726 755l-26 -38q-16 -25 -34 -25h-34v-756q0 -24 -24 -24h-51q-24 0 -24 24v756h-304v-756q0 -24 -25 -24h-51q-24 0 -24 24v756h-69q-23 0 -23 20q0 8 6 16l25 37q16 24 39 24h599q24 0 24 -22q0 -7 -4 -12z" />
    <glyph glyph-name="summation" unicode="&#x2211;" horiz-adv-x="681" 
d="M631 39q0 -39 -38 -39h-497q-36 0 -36 35v46q0 28 18 48l271 300l-266 329q-16 25 -16 53v36q0 36 37 36h490q34 0 34 -32v-24q0 -34 -35 -34q3 -1 -402 -1l271 -340q15 -24 -1 -46l-284 -308l413 -1q41 0 41 -33v-25z" />
    <glyph glyph-name="minus" unicode="&#x2212;" horiz-adv-x="437" 
d="M395 347q0 -12 -12 -12h-339q-12 0 -12 12v52q0 12 12 12h339q12 0 12 -12v-52z" />
    <glyph glyph-name="uni2215" unicode="&#x2215;" horiz-adv-x="681" 
d="M512 621l-376 -605q-10 -16 -27 -16h-30q-22 0 -10 19l374 601q7 13 22 13h41q13 0 6 -12z" />
    <glyph glyph-name="radical" unicode="&#x221a;" horiz-adv-x="614" 
d="M628 827l-289 -852q-13 -39 -44 -41h-9h-14q-33 0 -45 37l-131 385q-5 9 -15 9h-55q-41 0 -41 40v19q0 17 13 29t31 12h103q36 0 47 -29l105 -318l239 705q16 46 45 46h33q30 0 30 -27q0 -8 -3 -15z" />
    <glyph glyph-name="infinity" unicode="&#x221e;" horiz-adv-x="782" 
d="M747 312q0 -73 -42 -121q-43 -52 -116 -52q-59 0 -111 36q-17 13 -38.5 33t-46.5 48q-100 -118 -204 -118q-70 0 -113 54q-41 50 -41 120q0 75 43 124q45 53 119 53q54 0 107 -39q13 -10 34 -29.5t50 -50.5q29 30 50 50t35 30q54 39 108 39q39 0 69.5 -13t52 -36.5
t33 -56t11.5 -71.5zM680 310q0 46 -26 76t-69 30q-45 0 -85 -37l-69 -66q35 -52 65 -75q40 -33 89 -33q43 0 69 31t26 74zM353 314q-78 106 -158 106q-42 0 -67.5 -32.5t-25.5 -77.5q0 -21 8 -40.5t21.5 -33.5t32.5 -22.5t40 -8.5q79 0 149 109z" />
    <glyph glyph-name="integral" unicode="&#x222b;" horiz-adv-x="273" 
d="M317 829q0 -20 -21 -20l-37 -1q-43 0 -56 -54q-11 -47 -11 -146l1 -531q0 -128 -21 -171q-38 -78 -132 -78h-40q-23 0 -23 20v37q0 20 23 20h19q56 0 75 49q11 28 11 137v510q0 146 13 186q34 105 128 105h51q20 -3 20 -20v-43z" />
    <glyph glyph-name="approxequal" unicode="&#x2248;" horiz-adv-x="451" 
d="M394 487l-114 -114l113 -113q4 -4 4 -8q0 -5 -4 -9l-39 -40q-5 -3 -9 -3q-5 0 -8 3l-113 114l-113 -114q-5 -3 -9 -3q-5 0 -8 3l-41 41q-3 3 -3 8q0 4 3 9l113 113l-112 112q-4 4 -4 9t4 8l40 40q3 3 8 3q4 0 9 -3l112 -113l114 114q3 4 8 4t9 -4l40 -40q4 -4 4 -9
q0 -4 -4 -8z" />
    <glyph glyph-name="approxequal" unicode="&#x22f2;" horiz-adv-x="451" 
d="M394 487l-114 -114l113 -113q4 -4 4 -8q0 -5 -4 -9l-39 -40q-5 -3 -9 -3q-5 0 -8 3l-113 114l-113 -114q-5 -3 -9 -3q-5 0 -8 3l-41 41q-3 3 -3 8q0 4 3 9l113 113l-112 112q-4 4 -4 9t4 8l40 40q3 3 8 3q4 0 9 -3l112 -113l114 114q3 4 8 4t9 -4l40 -40q4 -4 4 -9
q0 -4 -4 -8z" />
    <glyph glyph-name="notequal" unicode="&#x2260;" horiz-adv-x="451" 
d="M394 487l-114 -114l113 -113q4 -4 4 -8q0 -5 -4 -9l-39 -40q-5 -3 -9 -3q-5 0 -8 3l-113 114l-113 -114q-5 -3 -9 -3q-5 0 -8 3l-41 41q-3 3 -3 8q0 4 3 9l113 113l-112 112q-4 4 -4 9t4 8l40 40q3 3 8 3q4 0 9 -3l112 -113l114 114q3 4 8 4t9 -4l40 -40q4 -4 4 -9
q0 -4 -4 -8z" />
    <glyph glyph-name="lessequal" unicode="&#x2264;" horiz-adv-x="525" 
d="M475 110q0 -5 -4 -9.5t-8 -2.5l-401 208q-12 7 -12 16v72q0 10 12 16l401 208q4 2 8 -2.5t4 -9.5v-76q0 -5 -12 -12l-288 -149q-9 -5 -9 -11q0 -7 9 -11l288 -149q12 -6 12 -12v-76zM474 4q0 -12 -12 -12h-400q-12 0 -12 12v60q0 12 12 12h400q12 0 12 -12v-60z" />
    <glyph glyph-name="greaterequal" unicode="&#x2265;" horiz-adv-x="525" 
d="M475 322q0 -9 -12 -16l-401 -208q-4 -2 -8 2.5t-4 9.5v76q0 6 12 12l288 149q9 4 9 11q0 6 -9 11l-288 149q-12 7 -12 12v76q0 5 4 9.5t8 2.5l401 -208q12 -6 12 -16v-72zM475 4q0 -12 -12 -12h-400q-12 0 -12 12v60q0 12 12 12h400q12 0 12 -12v-60z" />
    <glyph glyph-name="lozenge" unicode="&#x25ca;" horiz-adv-x="560" 
d="M555 381l-245 -390q-14 -20 -34 -20q-18 0 -32 20l-244 390l244 381q13 19 33 19q21 0 34 -19zM433 381l-156 247l-155 -247l155 -257z" />
    <glyph glyph-name="uniF6C1" unicode="&#xf6c1;" horiz-adv-x="589" 
d="M539 341q0 -59 -14 -59q-8 0 -17 15q-22 40 -79 63q-14 5 -50.5 14.5t-97.5 23.5q-95 23 -138 55q-60 49 -60 145q0 24 22 77q22 58 42 70q16 12 54 12q14 0 38 -2.5t57 -7.5t57 -7.5t38 -2.5q52 0 80 11l12 5q9 4 18 4q15 0 15 -14q0 -6 -5 -16l-127 -229
q73 -18 108 -48q47 -41 47 -109zM505 159q0 -31 -24 -86q-22 -54 -43 -70q-15 -12 -53 -12q-31 0 -86 13t-86 13q-73 0 -98 -15l-11 -6q-10 -5 -21 -5q-12 3 -12 16q0 9 7 22l123 218q-74 21 -109 51q-42 37 -42 99q0 72 15 72q5 0 17 -19q24 -40 84 -65q22 -10 50.5 -18.5
t64.5 -16.5q43 -9 72 -16t44 -12q108 -36 108 -163zM379 -97q0 -47 -44 -70q-35 -18 -85 -18q-36 0 -55 4q-8 2 -8 9q0 11 14 9q21 -3 27 -3q26 0 47 12q25 13 25 38q0 23 -22 35q-19 11 -42 11q-6 0 -7 3q-3 4 2 9l21 18q20 17 46 17q34 0 57.5 -20.5t23.5 -53.5zM440 677
l-9 4q-17 -20 -52 -34q-32 -12 -57 -12q-30 0 -93 17q-62 18 -75 18q-8 0 -15 -9q-9 -15 -9 -35q0 -29 37 -57q48 -36 98 -45l32.5 -7.5t46.5 -9.5zM456 113q0 41 -46 72q-39 27 -85 34q-14 4 -35 8.5t-50 10.5l-98 -174l10 -5q16 29 52 48q32 17 64 17q39 0 96 -23t68 -23
q9 0 16.5 9t7.5 26z" />
    <glyph glyph-name="uniFB01" unicode="&#xfb01;" horiz-adv-x="742" 
d="M608 733q13 -17 -5 -31l-66 -49q-17 -14 -31 5l-12 16q-14 17 5 31l66 48q17 14 31 -4zM732 129q11 -12 0 -23l-7 -8l-80 -89q-15 -17 -31 -17q-13 0 -26 8q-11 8 -30.5 21t-48.5 32q-27 16 -27 59v342q0 20 -4 27l-17 22q-6 7 -6 18q0 15 12 24l88 65q7 6 18 6
q15 0 24 -11l34 -46q6 -8 6 -18q0 -15 -12 -24q-15 -12 -15 -36v-369q0 -31 26 -31q13 0 34 23l28 32l4 3q14 11 30 -10zM408 655l-32 -31q-22 -20 -50 -20q-19 0 -38 11l-60 39l-11 -10q11 -11 11 -36v-58q0 -16 19 -16h66q24 0 24 -24v-21q0 -24 -24 -24h-64
q-21 0 -21 -20v-309q0 -21 12 -28l41 -25q10 -8 21 0l43 34q14 12 25 -2l6 -7q12 -14 -2 -25l-101 -83q-8 -7 -19 -7q-11 -3 -24 4l-52 26q-16 8 -32.5 15t-33.5 13t-38 9q-25 4 -25 25v19q0 19 21 25l9 3q21 7 21 29v284q0 20 -17 20h-29q-24 0 -24 24v21q0 24 24 24h29
q17 0 17 15v73q0 22 13 31q23 14 55.5 36t75.5 53q19 15 29 15q15 0 31 -11l64 -47q21 -15 32 -16l4 -1q11 -2 11 -12q0 -8 -7 -15z" />
    <glyph glyph-name="uniFB02" unicode="&#xfb02;" horiz-adv-x="729" 
d="M719 106l-11 -13l-76 -84q-15 -17 -31 -17q-13 0 -26 8q-11 8 -31.5 22t-50.5 33q-25 15 -25 61v542q0 23 -2 33q-5 16 -21 21q-20 5 -20 17q0 28 37 28q39 0 51 -40h12q15 40 56 40q50 0 50 -27q0 -17 -19 -18q-15 -5 -15 -31v-569q0 -13 12 -22q10 -8 16 -8q13 0 32 22
l29 32q12 13 25 1l7 -6q13 -12 1 -25zM408 655l-32 -31q-22 -20 -50 -20q-19 0 -38 11l-60 39l-11 -10q11 -11 11 -36v-58q0 -16 19 -16h66q24 0 24 -24v-21q0 -24 -24 -24h-64q-21 0 -21 -20v-309q0 -21 12 -28l41 -25q10 -8 21 0l43 34q14 12 25 -2l6 -7q12 -14 -2 -25
l-101 -83q-8 -7 -19 -7q-11 -3 -24 4l-52 26q-16 8 -32.5 15t-33.5 13t-38 9q-25 4 -25 25v19q0 19 21 25l9 3q21 7 21 29v284q0 20 -17 20h-29q-24 0 -24 24v21q0 24 24 24h29q17 0 17 15v73q0 22 13 31q23 14 55.5 36t75.5 53q19 15 29 15q15 0 31 -11l64 -47
q21 -15 32 -16l4 -1q11 -2 11 -12q0 -8 -7 -15z" />
    <glyph glyph-name="glyph209" horiz-adv-x="799" 
d="M798 1h-174l-273 401l271 398h176v-799zM297 1h-297v799h295l-271 -397z" />
    <glyph glyph-name="glyph275" horiz-adv-x="357" 
 />
  </font>
</defs>
</svg>
